<?xml version="1.0" standalone="no"?>
<!DOCTYPE svg PUBLIC "-//W3C//DTD SVG 20010904//EN"
 "http://www.w3.org/TR/2001/REC-SVG-20010904/DTD/svg10.dtd">
<svg version="1.0" xmlns="http://www.w3.org/2000/svg"
 width="247.000000pt" height="247.000000pt" viewBox="0 0 247.000000 247.000000"
 preserveAspectRatio="xMidYMid meet">
<metadata>
Created by potrace 1.11, written by Peter Selinger 2001-2013
</metadata>
<g transform="translate(0.000000,247.000000) scale(0.100000,-0.100000)"
fill="#000000" stroke="none">
<path d="M119 2341 c-6 -43 -2 -241 6 -242 6 -1 36 -1 68 -1 31 0 57 -4 57 -9
0 -5 -29 -9 -65 -9 -55 0 -65 -3 -66 -17 -5 -66 -3 -220 3 -228 4 -6 60 -10
138 -9 127 1 131 0 128 -20 -3 -19 -9 -20 -135 -19 -73 0 -133 -2 -134 -6 -5
-30 -2 -495 3 -504 4 -7 95 -11 280 -11 l273 -1 3 -42 3 -43 -283 -2 -283 -3
0 -248 c0 -136 2 -253 5 -260 4 -9 42 -12 135 -12 115 0 130 -2 133 -17 3 -16
-10 -18 -134 -20 l-138 -3 0 -125 0 -124 62 -1 c34 0 66 -5 71 -10 7 -7 -15
-9 -59 -7 -39 2 -70 0 -71 -5 -4 -57 -2 -173 3 -173 4 0 4 -11 -1 -23 -15 -38
2 -51 58 -50 28 1 56 5 61 8 6 3 10 3 10 -2 0 -4 15 -7 32 -6 18 1 45 2 60 2
26 1 26 2 25 66 -1 38 2 64 8 62 5 -2 10 -28 11 -58 0 -30 2 -58 3 -64 0 -6
49 -10 123 -9 l123 1 1 133 c1 110 3 134 17 141 22 13 26 -7 26 -131 -1 -58 0
-114 0 -125 1 -19 7 -20 248 -18 137 0 253 2 259 2 9 1 12 77 12 274 1 149 1
275 2 280 0 4 19 7 43 7 l42 0 -1 -272 c0 -150 1 -277 3 -283 2 -6 95 -9 256
-8 138 0 255 2 258 2 4 1 6 62 5 136 -1 129 0 135 19 135 19 0 20 -6 19 -127
0 -71 1 -132 3 -138 2 -8 184 -12 246 -6 4 1 7 30 7 66 0 36 4 65 8 65 4 0 7
-29 7 -65 0 -37 4 -66 10 -66 46 -6 111 -2 117 6 5 7 8 7 8 0 0 -10 91 -12
107 -2 5 3 9 59 9 124 l-1 118 -70 6 c-77 6 -77 10 0 14 28 1 55 3 62 4 9 1
12 35 12 126 l-1 125 -138 0 c-126 0 -138 2 -136 18 3 15 17 17 124 18 67 1
128 4 136 7 12 5 14 48 14 261 l-1 256 -282 0 c-264 0 -283 1 -280 18 1 9 0
22 -4 27 -9 17 -10 35 0 29 5 -3 9 -1 9 4 0 5 112 8 263 8 144 -1 269 2 278 6
15 7 17 34 15 260 l-1 253 -135 1 -135 1 0 25 c-1 22 2 25 20 19 16 -5 156 -6
237 -2 15 1 17 15 16 126 l-1 125 -75 0 c-88 0 -89 13 -2 16 32 1 63 5 69 9 6
3 11 31 11 61 0 49 -2 54 -22 55 -22 1 -22 1 -2 7 17 6 20 15 20 62 l-1 54
-50 2 c-27 1 -56 -3 -64 -10 -11 -8 -13 -8 -8 0 5 8 -13 11 -61 10 l-67 -1 1
-68 c1 -83 -14 -76 -18 8 l-3 60 -125 0 -125 0 0 -134 c0 -119 -2 -134 -18
-137 -20 -3 -19 -12 -21 146 l-1 125 -260 0 -260 0 0 -275 c0 -151 -4 -278 -8
-281 -5 -4 -25 -6 -44 -5 l-36 1 -1 280 -1 280 -257 2 -258 2 -1 -22 c0 -12
-1 -73 -1 -134 1 -64 -3 -113 -9 -113 -19 0 -24 -2 -39 -13 -12 -10 -13 -9 -4
3 11 15 18 226 8 261 -4 13 -23 16 -127 15 l-122 -1 1 -66 c0 -44 -3 -66 -10
-63 -6 2 -11 32 -11 67 l0 62 -63 1 c-50 1 -62 -1 -58 -12 3 -8 1 -14 -4 -14
-6 0 -10 6 -10 14 0 9 -15 13 -55 13 -30 -1 -55 -3 -56 -6z m68 -117 c-3 -3
-12 -4 -19 -1 -8 3 -5 6 6 6 11 1 17 -2 13 -5z m198 -134 c3 -5 -1 -10 -10
-10 -9 0 -13 5 -10 10 3 6 8 10 10 10 2 0 7 -4 10 -10z m1735 0 c0 -5 -7 -10
-16 -10 -8 0 -12 5 -9 10 3 6 10 10 16 10 5 0 9 -4 9 -10z m-1445 -286 c0 -12
-7 -19 -21 -20 -22 -1 -25 10 -10 34 11 18 31 9 31 -14z m1171 5 c1 -9 -2 -23
-7 -30 -7 -11 -9 -11 -9 -1 0 7 -4 10 -10 7 -5 -3 -10 -3 -11 2 0 4 -2 16 -4
26 -3 14 2 17 17 15 12 -2 22 -10 24 -19z m-1305 -146 c13 -16 12 -17 -3 -4
-10 7 -18 15 -18 17 0 8 8 3 21 -13z m740 -410 c6 -64 1 -73 -40 -73 -35 0
-39 3 -43 29 -2 17 -1 36 4 44 10 18 77 18 79 0z m-511 -43 c0 -5 -2 -10 -4
-10 -3 0 -8 5 -11 10 -3 6 -1 10 4 10 6 0 11 -4 11 -10z m561 -417 c13 -16 12
-17 -3 -4 -17 13 -22 21 -14 21 2 0 10 -8 17 -17z m516 -156 c-2 -7 -13 -13
-24 -15 -16 -2 -21 1 -18 15 2 10 4 22 4 26 1 4 10 3 22 -3 11 -6 18 -17 16
-23z m-1167 3 c0 -14 -7 -20 -24 -20 -22 0 -26 8 -17 38 1 1 10 2 21 2 13 0
20 -7 20 -20z m1330 -10 c0 -5 -5 -10 -11 -10 -5 0 -7 5 -4 10 3 6 8 10 11 10
2 0 4 -4 4 -10z m-1626 -265 c3 -9 0 -15 -9 -15 -9 0 -12 6 -9 15 4 8 7 15 9
15 2 0 5 -7 9 -15z m1731 -5 c-3 -5 -11 -10 -16 -10 -6 0 -7 5 -4 10 3 6 11
10 16 10 6 0 7 -4 4 -10z m10 -89 c3 -5 2 -12 -3 -15 -5 -3 -9 1 -9 9 0 17 3
19 12 6z"/>
</g>
</svg>
