<?xml version="1.0" encoding="UTF-8" standalone="no"?>
<!DOCTYPE svg PUBLIC "-//W3C//DTD SVG 1.1//EN" "http://www.w3.org/Graphics/SVG/1.1/DTD/svg11.dtd">
<svg width="100%" height="100%" viewBox="0 0 571 341" version="1.1" xmlns="http://www.w3.org/2000/svg" xmlns:xlink="http://www.w3.org/1999/xlink" xml:space="preserve" xmlns:serif="http://www.serif.com/" style="fill-rule:evenodd;clip-rule:evenodd;stroke-linejoin:round;stroke-miterlimit:2;">
    <g transform="matrix(1,0,0,1,-231.685,-1103.24)">
        <g transform="matrix(0.910126,0,0,0.984975,72.0648,16.5758)">
            <rect x="175.382" y="1103.24" width="626.464" height="345.826" style="fill:rgb(235,235,235);"/>
        </g>
        <g transform="matrix(1,0,0,1,702,0)">
            <path d="M26,1299.5L23.5,1302L21.125,1301.75L19,1288.5L20.5,1287L23.75,1287.25L24,1290.5L23,1291.5L24,1292.5L25,1298.5L26,1299.5"/>
        </g>
        <g transform="matrix(1,0,0,1,702,0)">
            <path d="M-39.625,1291L-40.25,1295.75L-41.5,1296L-43.5,1298L-49.5,1298L-52,1295.5L-52,1294.5L-53,1293.5L-52,1292.5L-53,1291.5L-52,1290.5L-52,1289.5L-49.5,1287L-43.5,1286L-40,1289.5L-39.625,1291M-45.5,1294L-44,1292.5L-44,1291.5L-45.5,1290L-46.5,1290L-48,1291.5L-48,1292.5L-46.5,1294L-45.5,1294"/>
        </g>
        <g transform="matrix(1,0,0,1,702,0)">
            <path d="M-9.5,1297L-11.75,1296.75L-13,1293.5L-9.5,1290L-8,1289.5L-3,1286.5L-1.5,1286L-1,1285.5L-4.5,1282L-5.5,1282L-7.5,1284L-9,1282.5L-8,1278.5L-6.5,1277L-2,1279.5L-0.5,1280L1.5,1282L3.5,1282L6.5,1279L7.5,1279L8.5,1278L9.5,1279L11.75,1279.25L12,1280.5L10.5,1282L9.5,1282L6,1285.5L9.5,1291L10,1292.5L8.5,1294L5.25,1293.75L5,1291.5L2.5,1289L0.5,1289L-1.5,1291L-3,1291.5L-7.75,1294.25L-8,1295.5L-9.5,1297"/>
        </g>
        <g transform="matrix(1,0,0,1,702,0)">
            <path d="M-34,1266.5L-35.75,1266.75L-36,1264.5L-34.5,1263L-32.25,1263.25L-32.25,1265.75L-34,1266.5"/>
        </g>
        <g transform="matrix(1,0,0,1,702,0)">
            <path d="M-72.5,1293L-75.5,1293L-77,1291.5L-77,1290.5L-73.5,1287L-69.5,1285L-67,1282.5L-67.25,1280.25L-71.5,1278L-74,1275.5L-74,1274.5L-72.5,1273L-71,1273.5L-68.5,1275L-65,1277.5L-62,1278.5L-58,1276.63L-54.5,1276L-53,1277.5L-55.5,1280L-59.75,1282.25L-58.5,1285L-57,1287.5L-56,1288.5L-57.5,1290L-59.5,1290L-63.5,1286L-68.5,1289L-72.5,1293"/>
        </g>
        <g transform="matrix(1,0,0,1,702,0)">
            <path d="M-51,1267.5L-52.5,1268L-54,1266.5L-51.75,1262.25L-49.25,1262.25L-48,1265.5L-49.5,1267L-51,1267.5"/>
        </g>
        <g transform="matrix(1,0,0,1,702,0)">
            <path d="M-61.25,1262.88L-67.5,1263L-68,1262.5L-67,1261.5L-66.75,1260.13L-62.5,1260L-61,1261.5L-61.25,1262.88"/>
        </g>
        <g transform="matrix(1,0,0,1,702,0)">
            <path d="M-66,1255.5L-68.75,1255.75L-68.375,1253L-68,1251.5L-65.5,1249L-64,1250.5L-63.75,1251.75L-62.25,1252.25L-62,1253.5L-63.5,1255L-66,1255.5"/>
        </g>
        <g transform="matrix(1,0,0,1,702,0)">
            <path d="M-91.5,1267L-93.5,1266L-95,1264.5L-94.75,1262.25L-93,1261.5L-91,1261.5L-89.5,1262L-88,1260.5L-88.25,1259.25L-91,1259.63L-92.5,1260L-94,1258.5L-93,1257.5L-93,1256.5L-91.5,1255L-89.5,1255L-88.5,1254L-87.5,1255L-86.25,1255.25L-86,1256.5L-86,1257L-85,1256.5L-85.625,1249L-87.25,1243.25L-90.75,1243.75L-91,1241.5L-89.5,1240L-85.5,1239L-84,1240.5L-83.5,1242L-82.625,1244L-81.75,1248L-81.875,1260L-83,1263.5L-83.5,1264L-84.5,1263L-89,1265.5L-90.5,1266L-91.5,1267"/>
        </g>
        <g transform="matrix(1,0,0,1,702,0)">
            <path d="M-58.25,1234.88L-62.5,1235L-65,1232.5L-65,1227.5L-63.5,1226L-62.25,1226.25L-61,1230.5L-59.5,1232L-58.25,1232.25L-58.25,1234.88"/>
        </g>
        <g transform="matrix(1,0,0,1,702,0)">
            <path d="M-95.5,1262L-97.5,1262L-99.5,1260L-101.5,1262L-102.5,1262L-104,1260.5L-103.375,1258L-103.5,1256L-104.5,1254L-105,1252.5L-103.5,1251L-102.5,1251L-100.5,1253L-97.5,1250L-96.5,1250L-94.5,1248L-92.25,1248.25L-92.625,1251L-93.25,1252.75L-94.5,1253L-97,1255.5L-95,1259.5L-94,1260.5L-95.5,1262"/>
        </g>
        <g transform="matrix(1,0,0,1,702,0)">
            <path d="M-103.5,1248L-104.5,1248L-107,1250.5L-108,1262.5L-106,1264.5L-106,1265.5L-105,1266.5L-106.5,1268L-108.5,1268L-111,1265.5L-112,1261.5L-113,1260.5L-112,1259.5L-113,1258.5L-111.375,1253L-111.25,1251.25L-114.5,1251L-116,1249.5L-115.75,1247.25L-113.25,1246.75L-113,1244.5L-115,1242.5L-117,1238.5L-119.5,1236L-120,1236.5L-120.75,1241L-120.5,1243L-120,1244.5L-121,1245.5L-120,1246.5L-119,1256.5L-117.5,1258L-116.25,1258.25L-116.25,1265L-116.5,1267L-117,1268.5L-118.5,1270L-119.5,1270L-121,1268.5L-121,1261.5L-121.5,1261L-122.5,1262L-125.75,1260.75L-125.75,1258.25L-123.25,1257.75L-124,1248.5L-125,1247.5L-124,1246.5L-125,1245.5L-124.5,1240L-123.25,1235L-123,1233.5L-121.5,1232L-117.5,1232L-113,1236.5L-112.5,1238L-109.625,1243L-109,1245.5L-108.5,1246L-107.5,1245L-106,1244.63L-102.25,1244.25L-102,1246.5L-103.5,1248"/>
        </g>
        <g transform="matrix(1,0,0,1,702,0)">
            <path d="M-7.25,1225.88L-13.5,1225L-18,1220.5L-19.25,1216.25L-20.75,1215.75L-21.625,1212L-21.25,1200L-20.5,1198L-17.5,1193L-17,1191.5L-15.5,1190L-12.5,1190L-11,1191.5L-11.875,1208L-13,1210.5L-14.5,1213L-15,1214.5L-16,1215.5L-15,1216.5L-14,1219.5L-12.5,1221L-11,1221.5L-9,1222.5L-7.25,1223.25L-7.25,1225.88M-16.25,1208.75L-14.625,1203L-14,1196.5L-14.5,1196L-16,1197.5L-17.25,1201L-17.875,1208.75L-16.25,1208.75"/>
        </g>
        <g transform="matrix(1,0,0,1,702,0)">
            <path d="M-62.5,1218L-64.875,1217.75L-64.875,1213.25L-62.5,1213L-61,1214.5L-61,1216.5L-62.5,1218"/>
        </g>
        <g transform="matrix(1,0,0,1,702,0)">
            <path d="M-63.25,1200.75L-66.75,1200.75L-67,1198.5L-65.5,1197L-64.5,1197L-63.5,1196L-62,1197.5L-63.25,1200.75"/>
        </g>
        <g transform="matrix(1,0,0,1,702,0)">
            <path d="M-83.25,1206.75L-85.5,1207L-87,1205.5L-87.25,1204L-87,1193.5L-88,1192.5L-86.5,1191L-84.25,1191.25L-83.625,1193L-83.25,1206.75"/>
        </g>
        <g transform="matrix(1,0,0,1,702,0)">
            <path d="M-97.5,1198L-99,1196.5L-99,1194.5L-97,1192.5L-97.5,1191L-98.375,1189L-99,1186.5L-97.5,1185L-95.5,1185L-94,1186.5L-94,1188L-93,1187.5L-92,1184.5L-89.5,1182L-87.5,1182L-86,1183.5L-87,1184.5L-87.5,1186L-90.5,1191L-91,1192.5L-89,1194.5L-89.25,1196.75L-95,1196.63L-96.5,1197L-97.5,1198"/>
        </g>
        <g transform="matrix(1,0,0,1,702,0)">
            <path d="M-7.5,1272L-13,1269.63L-15.5,1269L-16,1268.5L-15,1267.5L-16,1266.5L-15,1265.5L-16,1263.5L-22.5,1254L-25.5,1250L-27,1247.5L-29,1245.5L-29,1243.5L-31,1241.5L-38.375,1228L-39.625,1225L-47,1215.5L-52.5,1207L-55.625,1200L-56,1198.5L-58,1196.5L-59,1191.5L-59,1191L-60,1191.5L-60,1192.5L-62.5,1195L-64,1195.38L-67.5,1196L-70,1193.5L-70,1192.5L-71,1191.5L-70,1190.5L-70,1188.5L-68,1186.5L-66,1182.5L-63.5,1180L-60.5,1183L-58.5,1183L-57,1184.5L-57,1187.5L-55,1189.5L-54.375,1192L-50.5,1201L-44.5,1211L-41.5,1215L-39.75,1217.75L-38.5,1218L-37,1219.5L-36.5,1221L-33.5,1228L-27,1239.5L-25,1241.5L-24.375,1244L-23,1246.5L-14.5,1258L-11.75,1262.75L-10,1262.63L-7.5,1262L-6.5,1261L-5.5,1262L-2.25,1263.25L-1.625,1265L-1,1268.5L-3.5,1271L-6.5,1271L-7.5,1272M-65.5,1192L-64,1190.5L-64.5,1190L-65.75,1190.75L-65.5,1192M-5.25,1267.75L-5,1265.5L-5.5,1265L-8,1267.5L-7.5,1268L-5.25,1267.75"/>
        </g>
        <g transform="matrix(1,0,0,1,702,0)">
            <path d="M-78.5,1202L-80.75,1201.75L-80.5,1198L-79.75,1195L-79.75,1187L-81,1183.5L-82.5,1182L-86.5,1181L-87,1180.5L-86,1179.5L-85.75,1178.25L-84,1177.5L-82,1177.5L-80.5,1178L-78,1180.5L-75.875,1185L-75.75,1196L-77,1200.5L-78.5,1202"/>
        </g>
        <g transform="matrix(1,0,0,1,702,0)">
            <path d="M-102.25,1203.75L-105.5,1204L-108,1201.5L-106.375,1187L-105.375,1184L-102.75,1179.25L-99,1177.63L-95.25,1177.25L-95.625,1180L-96.25,1181.75L-99.5,1183L-101,1184.5L-102.375,1190L-103,1197.5L-104,1198.5L-102,1200.5L-102.25,1203.75"/>
        </g>
        <g transform="matrix(1,0,0,1,702,0)">
            <path d="M-113.125,1203.75L-115.5,1204L-117,1202.5L-117.5,1199L-118.25,1196.25L-119.75,1196.25L-120.25,1197.75L-121.75,1197.75L-122.375,1196L-122.75,1193.25L-121.5,1193L-120,1191.5L-121.5,1185L-121.5,1182L-120.375,1179L-120,1177.5L-117.5,1175L-111.5,1174L-110,1175.5L-109.5,1177L-108.625,1179L-108,1181.5L-107,1182.5L-108,1183.5L-108,1185.5L-112.5,1190L-113.5,1190L-115,1191.5L-113,1195.5L-114,1196.5L-113,1197.5L-113.125,1203.75M-114,1185.38L-112.25,1184.75L-112.5,1181L-113,1178.5L-113.5,1178L-114.5,1179L-115.75,1179.25L-116.25,1181L-116.875,1185.75L-114,1185.38"/>
        </g>
        <g transform="matrix(1,0,0,1,702,0)">
            <path d="M-166,1403.5L-222.5,1407L-223.5,1406L-224.5,1407L-225.5,1406L-230,1405.5L-239,1403.5L-246,1401.38L-251,1399.5L-253.5,1399L-255.5,1397L-257,1396.5L-263.5,1393L-279.5,1382L-294,1367.5L-295,1365.5L-308.5,1345L-311.5,1341L-313.5,1338L-321.375,1320L-326.25,1302.25L-329.5,1302L-335,1296.5L-338.5,1290L-339.25,1288L-339.25,1282L-338,1278.5L-336.5,1277L-335.5,1277L-335,1276.5L-336,1275.5L-336.5,1274L-344.5,1254L-348,1248.5L-349,1246.5L-354.5,1241L-365,1235.63L-370,1233.63L-379,1231.5L-383.5,1231L-384.5,1232L-385.5,1231L-386.5,1231L-387.5,1232L-388.5,1231L-389.5,1232L-403,1233.5L-415.5,1236L-419,1239.5L-419,1242.5L-423.5,1247L-426,1247.38L-431,1247.25L-432.5,1247L-435,1244.5L-435,1241.5L-436,1240.5L-435,1239.5L-434,1232.5L-432.5,1231L-423.5,1230L-420.5,1233L-418,1232.38L-416,1231.63L-396,1227.5L-390.5,1227L-389.5,1226L-388.5,1227L-387.5,1226L-386.5,1226L-385.5,1227L-384.5,1226L-373,1227.5L-369,1228.5L-364,1230.5L-360,1232.38L-357.5,1233L-354.5,1236L-351.25,1237.25L-350.75,1238.75L-349.5,1239L-345,1243.5L-344.5,1245L-341.75,1249.75L-340.25,1250.25L-338.375,1258L-337.5,1260L-337,1261.5L-335,1263.5L-334.375,1267L-332.625,1271L-332,1273.5L-330.5,1275L-326.5,1274L-324.5,1272L-323,1271.5L-256,1227.5L-194,1194.63L-189,1192.5L-173,1184.5L-171.5,1184L-169.5,1182L-167.5,1182L-165.5,1180L-164,1179.5L-133,1161.5L-118,1150.5L-112.5,1146L-109,1143.63L-104,1141.63L-100.5,1141L-99,1142.5L-100,1143.5L-100.25,1144.75L-102.5,1146L-111,1151.5L-118.75,1157.25L-124,1164.5L-132.5,1179L-134.5,1184L-135.375,1187L-136,1191.5L-137,1192.5L-136,1193.5L-137,1194.5L-139.375,1207L-140,1219.5L-139,1220.5L-140,1221.5L-139,1222.5L-135.5,1245L-133.5,1253L-131.5,1258L-128.625,1263L-128,1265.5L-126,1267.5L-122.625,1274L-120.5,1279L-119.5,1281L-119,1282.5L-116.5,1285L-115.5,1285L-109,1291.5L-108,1294.5L-101.5,1301L-100,1301.5L-96,1303.5L-85,1312.5L-61,1322.5L-57,1323.5L-50,1323.63L-48,1324.25L-27,1327.25L-10,1327.25L1,1325.5L8,1323.5L18,1319.5L22.5,1317L39,1300.5L42.5,1295L51.5,1275L53.625,1269L58.25,1258L59.5,1253L60,1249.5L61,1248.5L60,1247.5L61,1238.5L62,1237.5L61,1236.5L62,1233.5L61,1232.5L62,1231.5L58.375,1211L54,1197.5L52,1195.5L52,1193.5L50,1191.5L49.75,1190.25L48.5,1190L47,1188.5L47,1187.5L36.5,1177L9,1155.5L-3,1148.5L-19,1141.63L-21.5,1141L-23.5,1139L-48,1134.75L-68,1134.75L-74,1135.63L-84,1138.5L-89,1140.25L-93.75,1140.88L-94,1138.5L-92.5,1137L-91,1136.5L-81,1132.75L-66,1129.75L-49,1129.75L-27,1133.63L-24,1134.5L-19,1136.5L5,1147.5L17,1155.5L30.5,1166L38.5,1173L43.5,1177L46,1179.5L46.25,1180.75L47.75,1181.25L54.5,1190L56.5,1193L62.5,1208L64.5,1217L64.375,1252L63.375,1257L52.625,1284L52,1287.5L50,1289.5L49.5,1291L48.625,1293L48,1295.5L46,1297.5L45,1299.5L43,1302.5L42,1304.5L26.5,1320L24.5,1321L21.5,1323L19,1324.38L9,1328.5L1,1330.5L-11,1332.38L-27,1332.38L-94,1324.5L-137,1318.5L-149.5,1318L-150.5,1317L-151.5,1318L-152.5,1317L-167.5,1317L-168.5,1316L-169.5,1317L-170.5,1316L-307.5,1302L-308.5,1301L-309.5,1302L-310.5,1301L-321.75,1300.25L-321.625,1303L-317.5,1318L-313.5,1328L-310.625,1334L-310,1336.5L-307,1339.5L-306,1341.5L-295,1357.5L-291,1364.5L-279.5,1376L-271.5,1382L-255,1392.5L-243,1397.5L-232,1400.5L-218,1402.38L-184,1401.38L-161,1397.5L-150,1394.5L-145,1392.5L-137,1388.5L-134,1386.5L-130,1383.5L-127.25,1381.75L-127,1380.5L-126,1379.5L-126.5,1379L-127.5,1379L-129,1377.5L-129,1374.5L-125.5,1371L-124,1370.75L-119,1370.75L-115.5,1372L-114,1373.5L-113.5,1375L-112.625,1377L-112,1379.5L-115.5,1383L-121.5,1384L-122.5,1383L-127.5,1388L-133,1391.5L-137,1393.5L-138.5,1394L-140.5,1396L-143,1396.63L-161,1402.5L-166,1403.5M-75.5,1323L-75,1322L-75.5,1322L-77,1321.63L-80,1320.5L-82.5,1320L-84.5,1318L-86,1317.5L-88.5,1316L-100,1306.63L-103,1305.38L-104.5,1305L-110,1299.5L-113.5,1294L-114.25,1292.25L-115.5,1292L-124,1283.5L-124.625,1281L-126.375,1277L-127,1274.5L-129,1272.5L-136.5,1259L-138.5,1254L-139.5,1250L-144.25,1223L-144.25,1206L-140.25,1186L-137.5,1178L-137,1175.5L-135,1173.5L-132.5,1169L-132,1167.5L-131,1166.5L-131.5,1166L-132.5,1166L-134.5,1168L-136.5,1168L-138.5,1170L-140,1170.5L-163,1183.5L-187,1195.38L-189.5,1196L-191.5,1198L-194,1198.63L-212,1207.5L-213.5,1208L-215.5,1210L-217.5,1210L-219.5,1212L-221,1212.5L-247,1226.5L-252.5,1230L-257,1232.5L-322,1275.5L-323.5,1276L-324,1277L-323.5,1277L-319,1277.75L-315.5,1279L-313,1281.5L-313.75,1288L-315.625,1293L-316,1294.5L-318,1296.5L-317.5,1297L-140,1314.5L-75.5,1323M-130,1166L-130,1165L-131,1165L-131,1166L-130,1166M-426.5,1243L-424,1240.5L-425,1236.5L-426,1236L-426,1238.5L-427.5,1240L-429.5,1240L-431,1241.5L-429.5,1243L-426.5,1243M-333,1290L-333,1289.5L-333.5,1287L-333.5,1284L-333,1280.5L-334,1280L-334,1280.5L-335,1284.5L-336,1285.5L-335,1286.5L-334.5,1288.5L-333,1290M-322.5,1295L-320,1292.5L-319.5,1290L-318.5,1287L-318.25,1283.25L-320,1282.75L-327.75,1282.13L-327.5,1284L-324.625,1290L-324,1293.5L-322.5,1295M-328.5,1297L-328,1296.5L-329,1290.5L-329.5,1290L-330.5,1291L-331.5,1291L-332.5,1290L-333,1290.5L-332.5,1292.5L-328.5,1297M-327,1298L-327,1297L-328,1297L-328,1298L-327,1298M-118,1379.5L-116.5,1379L-116,1378.5L-118.5,1376L-119,1376.5L-119,1378.5L-120,1379.5L-119.5,1380L-118,1379.5"/>
        </g>
    </g>
</svg>
