<?xml version="1.0" encoding="UTF-8" standalone="no"?>
<!DOCTYPE svg PUBLIC "-//W3C//DTD SVG 1.1//EN" "http://www.w3.org/Graphics/SVG/1.1/DTD/svg11.dtd">
<svg width="100%" height="100%" viewBox="0 0 334 316" version="1.1" xmlns="http://www.w3.org/2000/svg" xmlns:xlink="http://www.w3.org/1999/xlink" xml:space="preserve" xmlns:serif="http://www.serif.com/" style="fill-rule:evenodd;clip-rule:evenodd;stroke-linejoin:round;stroke-miterlimit:2;">
    <g transform="matrix(1,0,0,1,-383.007,-182.349)">
        <g transform="matrix(1.04473,0,0,1.08917,251.346,-770.487)">
            <rect x="126.025" y="874.825" width="318.781" height="289.524" style="fill:rgb(235,235,235);"/>
        </g>
        <g transform="matrix(1,0,0,1,702,0)">
            <path d="M-152,475.5L-156.5,475L-159,472.5L-158,468.5L-155.5,466L-151,463.75L-145,462.25L-143.5,462L-142,463.5L-143,464.5L-144,471.5L-145.5,473L-147,473.5L-152,475.5"/>
        </g>
        <g transform="matrix(1,0,0,1,702,0)">
            <path d="M-85.25,409.75L-86.5,410L-88,408.5L-87.75,407.25L-85.25,407.25L-85.25,409.75"/>
        </g>
        <g transform="matrix(1,0,0,1,702,0)">
            <path d="M-127.5,455L-129,453L-127.5,451L-126.25,451.25L-126,453.5L-127.5,455"/>
        </g>
        <g transform="matrix(1,0,0,1,702,0)">
            <path d="M-106.5,435L-108.5,435L-110,433.5L-110,429.5L-108.5,428L-106.5,428L-105,429.5L-104,432.5L-106.5,435"/>
        </g>
        <g transform="matrix(1,0,0,1,702,0)">
            <path d="M-170.5,454L-178.75,454L-179,452.5L-177.5,451L-174,450.5L-170,449.375L-168.25,449.25L-168,451.5L-170.5,454"/>
        </g>
        <g transform="matrix(1,0,0,1,702,0)">
            <path d="M-185.25,436.75L-187.5,437L-189,435.5L-189.25,434.25L-190.5,434L-192,432.5L-192,429.5L-190.5,428L-186.25,428.125L-185,433.5L-184,434.5L-185,435.5L-185.25,436.75"/>
        </g>
        <g transform="matrix(1,0,0,1,702,0)">
            <path d="M-221.5,413L-222.75,412.75L-223,411.5L-224,410.5L-222.5,409L-219.5,409L-219,409.5L-220,410.5L-220,411.5L-221.5,413"/>
        </g>
        <g transform="matrix(1,0,0,1,702,0)">
            <path d="M-59.25,389.75L-62.5,390L-65,387.5L-65,385.5L-62.5,383L-59.25,383.25L-59,386.5L-58,387.5L-59,388.5L-59.25,389.75"/>
        </g>
        <g transform="matrix(1,0,0,1,702,0)">
            <path d="M-41.5,369L-42.5,369L-44,367.5L-44,366.5L-42.5,365L-41.5,365L-40,366.5L-40,367.5L-41.5,369"/>
        </g>
        <g transform="matrix(1,0,0,1,702,0)">
            <path d="M-147,411.25L-156.5,411L-160,407.5L-160.25,397L-159,392.5L-157.5,391L-156,390.5L-150,386.5L-148,385.5L-146.5,385L-145.5,386L-144.5,385L-142.5,387L-141.5,387L-140,388.5L-140,389.5L-138,391.5L-137.25,397L-137.25,399L-138.75,404L-140.25,407.75L-145,410.5L-147,411.25M-149,407.25L-144.25,404.75L-143.625,402L-143.625,395L-144,392.5L-145.5,391L-148.5,392L-154.5,398L-156.875,398.25L-156.25,405L-155.75,406.75L-154,407.25L-149,407.25"/>
        </g>
        <g transform="matrix(1,0,0,1,702,0)">
            <path d="M-145,345.25L-154,345.25L-155.875,344.75L-156,339.5L-153.5,337L-152.5,338L-152,337.5L-151.75,336.25L-150,335.75L-145.5,335L-143,337.5L-142,343.5L-143.5,345L-145,345.25"/>
        </g>
        <g transform="matrix(1,0,0,1,702,0)">
            <path d="M-234.5,386L-238.75,385.75L-239,384.5L-240,383.5L-238,381.5L-237.75,380.25L-236,380.375L-233.25,381.25L-232.5,383L-232.25,384.75L-234.5,386"/>
        </g>
        <g transform="matrix(1,0,0,1,702,0)">
            <path d="M-265,373.5L-268.75,373.75L-269,372.5L-267.5,371L-263.5,370L-261.5,368L-260,369.5L-260,370.5L-262.5,373L-265,373.5"/>
        </g>
        <g transform="matrix(1,0,0,1,702,0)">
            <path d="M-286,349.625L-287.5,350L-290,347.5L-290,344.5L-291,343.5L-290,342.5L-289,339.5L-286.5,337L-280.5,336L-279,337.5L-279,339.5L-277,341.5L-278,345.5L-280.5,348L-283,348.5L-286,349.625"/>
        </g>
        <g transform="matrix(1,0,0,1,702,0)">
            <path d="M-16,344.25L-23.5,344L-26,341.5L-26.25,340L-26.25,335L-25.75,333.25L-17,328.625L-14,328.625L-12.5,329L-10,331.5L-9,339.5L-10.5,341L-11.75,341.25L-12.25,342.75L-16,344.25"/>
        </g>
        <g transform="matrix(1,0,0,1,702,0)">
            <path d="M-42.5,314L-45.75,313.75L-46,312.5L-43.5,310L-42.5,311L-41.25,311.25L-41,312.5L-42.5,314"/>
        </g>
        <g transform="matrix(1,0,0,1,702,0)">
            <path d="M-65.5,301L-66.5,301L-69,298.5L-69,295.5L-67.5,294L-66.5,295L-65.5,295L-63,297.5L-64,298.5L-64,299.5L-65.5,301"/>
        </g>
        <g transform="matrix(1,0,0,1,702,0)">
            <path d="M-101.5,275L-103,273.5L-102.75,271.25L-101,270.75L-96.25,270.125L-96,271.5L-95,272.5L-95.5,273L-97,273.375L-100.5,274L-101.5,275"/>
        </g>
        <g transform="matrix(1,0,0,1,702,0)">
            <path d="M-216.5,284L-219,281.5L-217.5,280L-214.25,280.25L-214,281.5L-216.5,284"/>
        </g>
        <g transform="matrix(1,0,0,1,702,0)">
            <path d="M-259.5,324L-260.5,321.5L-260,319.5L-258.5,318L-257.5,318L-256,319.5L-257,320.5L-257,321.5L-259.5,324"/>
        </g>
        <g transform="matrix(1,0,0,1,702,0)">
            <path d="M-229,301.5L-233,305L-235.5,306L-237,304.5L-237,301.5L-233.5,298L-231.5,298L-229,300.5L-229,301.5"/>
        </g>
        <g transform="matrix(1,0,0,1,702,0)">
            <path d="M-103.125,257.875L-107.5,258L-109,256.5L-109,255.5L-110,254.5L-106.5,251L-105.5,252L-104.5,252L-103,253.5L-103.125,257.875"/>
        </g>
        <g transform="matrix(1,0,0,1,702,0)">
            <path d="M-137.5,236L-140.5,235L-142,233.5L-141.75,232.125L-136.25,232.125L-136,234.5L-137.5,236"/>
        </g>
        <g transform="matrix(1,0,0,1,702,0)">
            <path d="M-152,218.375L-156.5,219L-158.5,217L-159.75,216.75L-161,212.5L-162,211.5L-161,210.5L-161,208.5L-158.5,206L-154,204.75L-148.5,204L-145,207.5L-145,214.5L-147.5,217L-152,218.375M-153,213L-153,212L-154,212L-154,213L-153,213"/>
        </g>
        <g transform="matrix(1,0,0,1,702,0)">
            <path d="M-191,260.375L-193.5,261L-195,259.5L-195,254.5L-193.5,253L-191.5,253L-189,255.5L-189,257.5L-188,258.5L-189.5,260L-191,260.375"/>
        </g>
        <g transform="matrix(1,0,0,1,702,0)">
            <path d="M-180.25,238.75L-182.5,239L-184,237.5L-183,236.5L-183,235.5L-182.5,235L-181.5,236L-180.25,236.25L-180.25,238.75"/>
        </g>
    </g>
</svg>
