<?xml version="1.0" encoding="UTF-8" standalone="no"?>
<!DOCTYPE svg PUBLIC "-//W3C//DTD SVG 1.1//EN" "http://www.w3.org/Graphics/SVG/1.1/DTD/svg11.dtd">
<svg width="100%" height="100%" viewBox="0 0 298 290" version="1.1" xmlns="http://www.w3.org/2000/svg" xmlns:xlink="http://www.w3.org/1999/xlink" xml:space="preserve" xmlns:serif="http://www.serif.com/" style="fill-rule:evenodd;clip-rule:evenodd;stroke-linejoin:round;stroke-miterlimit:2;">
    <g transform="matrix(1,0,0,1,-146.933,-874.825)">
        <g transform="matrix(0.934411,0,0,1,29.1745,0)">
            <rect x="126.025" y="874.825" width="318.781" height="289.524" style="fill:rgb(235,235,235);"/>
        </g>
        <g transform="matrix(1,0,0,1,702,0)">
            <path d="M-357.5,1006L-359.5,1006L-362,1003.5L-362,1002.5L-365.5,999L-367,998.5L-369,997.625L-371.5,997L-372.5,996L-373,996.5L-373,997.5L-374,998.5L-373,999.5L-374.25,1003.75L-377.5,1004L-379,1002.5L-378,995.5L-381,992.5L-380.75,990.25L-379.5,990L-378,988.5L-378,985.5L-379.5,984L-381,985.5L-381,986.5L-382.5,988L-383.5,988L-385,986.5L-384.375,984L-382,979.5L-379.5,977L-365,976.875L-361.25,978.25L-360.75,980L-360,986.5L-364.5,991L-368.5,992L-369,992L-368.5,993L-366,993.625L-364,994.5L-359.25,997.25L-359,998.5L-356,1001.5L-356,1004.5L-357.5,1006M-370,987.375L-368,986.5L-366.5,986L-365,984.5L-365.25,981.25L-372.5,980L-374,981.5L-374,986.5L-372.5,988L-370,987.375M-377,982L-377,981L-378,981L-378,982L-377,982"/>
        </g>
        <g transform="matrix(1,0,0,1,702,0)">
            <path d="M-355.5,1104L-370.5,1119.5L-378,1129.5L-381.5,1133L-383.5,1134L-393,1140.5L-405,1150.5L-406.5,1151L-408,1149.5L-408.25,1147.25L-409.5,1147L-412,1144.5L-413,1141.5L-421.5,1133L-424,1131.5L-432.5,1125L-447.5,1112L-463,1096.5L-472,1085.5L-476.5,1081L-477.5,1081L-479,1079.5L-479.25,1078.25L-484.5,1075L-489,1070.5L-489.25,1069.25L-490.5,1069L-496,1063.5L-520,1035.5L-521,1033.5L-533.5,1021L-534.5,1021L-537,1018.5L-537.375,1017L-537.75,1014.25L-532,1014.63L-527.25,1012.75L-526.75,1011.25L-525.5,1011L-524,1009.5L-523.75,1008.25L-517.5,1004L-516,1002.5L-516,1001.5L-513.5,999L-512.25,998.75L-512,997.5L-510.5,996L-509.25,995.75L-509,994.5L-506.5,992L-505.25,991.75L-504.75,990.25L-472.5,960L-469.5,958L-468,956.5L-457.5,944L-455.75,941.25L-454.5,941L-453,939.5L-452.75,938.25L-451.5,938L-441,927.5L-440.75,926.25L-439.5,926L-436,922.5L-436,921.5L-433.5,919L-428.25,915.75L-428,914.5L-424.5,911L-423.5,911L-421,908.5L-420.75,907.25L-415.25,903.75L-414.75,902.25L-407.5,897L-406,895.5L-408,893.5L-408,891.5L-406.5,890L-405.5,891L-401.5,892L-400,890.5L-400,889.5L-398.5,888L-396.25,888.25L-396.625,892L-397,893.5L-399,895.5L-398.5,896L-397.5,896L-393,900.5L-392.75,901.75L-391.5,902L-389,904.5L-386.5,908L-382,913.5L-380,916.5L-378,918.5L-377.375,921L-376,923.5L-368,933.5L-366.5,935L-363.5,936L-357,942.5L-356.75,943.75L-352.25,946.25L-351.75,947.75L-345.25,952.25L-344.75,953.75L-335.25,961.25L-335,962.5L-329.5,968L-328.5,968L-327,969.5L-327,970.5L-321.5,976L-320.25,976.25L-320,977.5L-317.5,980L-316,980.5L-312.5,983L-302.5,991L-295,998.5L-283,1012.5L-281.5,1014L-278,1014.63L-276.25,1015.25L-274.625,1020L-274.25,1023.75L-278.5,1026L-284,1031.5L-284.25,1032.75L-296.5,1043L-299.5,1045L-303,1048.5L-310.25,1057.75L-311.5,1058L-313,1059.5L-315,1063.5L-320.5,1069L-332.75,1079.25L-334.25,1082.75L-335.75,1083.25L-336.25,1084.75L-337.5,1085L-339,1086.5L-343,1092.5L-346.5,1096L-347.5,1096L-353,1101.5L-353,1102.5L-354.5,1104L-355.5,1104M-356.75,1098.25L-349.5,1093L-347,1090.5L-347,1088.5L-336,1077.5L-336,1076.5L-334.5,1075L-322.5,1065L-319,1061.5L-317.75,1058.25L-316.25,1057.75L-307,1046.5L-302.5,1042L-301.5,1042L-300,1040.5L-299.75,1039.25L-290.5,1032L-281,1022.5L-281,1021.5L-282.5,1020L-297.5,1020L-298.5,1019L-299.5,1020L-300.5,1019L-358.5,1022L-359.5,1023L-360.5,1022L-361.5,1023L-373.5,1023L-374.5,1022L-375.5,1023L-406.5,1024L-408.5,1026L-411,1023.5L-411,1021.5L-409.5,1020L-388.5,1018L-387.5,1017L-386.5,1018L-385.5,1018L-384.5,1017L-383.5,1018L-382.5,1017L-381.5,1018L-380.5,1017L-377.5,1018L-376.5,1017L-375.5,1018L-345.5,1016L-344.5,1017L-343.5,1016L-342.5,1017L-341.5,1016L-340.5,1017L-339.5,1016L-324.5,1015L-323.5,1014L-322.5,1015L-286.5,1015L-286,1014.5L-289.5,1011L-290.75,1010.75L-300,999.5L-304.5,995L-307.5,993L-325.5,979L-328,976.5L-328,975.5L-333.5,970L-334.5,970L-338,966.5L-338.25,965.25L-339.75,964.75L-340.25,963.25L-347.75,957.75L-348,956.5L-349.5,955L-354.75,951.75L-355,950.5L-356.5,949L-368,939.5L-369.5,939L-376,932.5L-380.5,926L-383.5,920L-392,908.5L-393.25,906.25L-394.5,906L-399,901.5L-399.25,900.25L-401,899.625L-404,899.625L-429.5,922L-438,930.5L-444.25,938.75L-448.5,941L-450,942.5L-450,943.5L-452.5,946L-453.75,946.25L-458,952.5L-469.5,964L-473.5,966L-481,973.5L-481,974.5L-482.5,976L-483.75,976.25L-484.25,977.75L-485.5,978L-489,981.5L-489,982.5L-492.5,986L-493.5,986L-497,989.5L-497.25,990.75L-504.5,996L-506,997.5L-506,998.5L-507.5,1000L-508.75,1000.25L-509,1001.5L-510.5,1003L-518.5,1009L-521,1011.5L-521.25,1012.75L-522.75,1013.25L-523,1014.5L-524.5,1016L-528.5,1018L-530,1019.5L-519,1030.5L-517,1033.5L-501.5,1051L-499.75,1053.75L-498.25,1054.25L-497.75,1055.75L-496.25,1056.25L-496,1057.5L-494.5,1059L-493.25,1059.25L-491.75,1062.75L-486.25,1066.25L-486,1067.5L-479.5,1074L-471.25,1080.25L-467,1086.5L-462.5,1091L-461.5,1091L-460,1092.5L-453,1101.5L-446.5,1108L-440.25,1112.25L-439.75,1113.75L-430.25,1121.25L-429.75,1122.75L-427.5,1124L-421,1128.5L-418.5,1130L-414,1134.5L-408.75,1142L-408,1146.5L-407.5,1147L-404.5,1144L-396.25,1137.75L-395.75,1136.25L-389,1132.5L-383.5,1129L-382,1127.5L-373.5,1116.5L-356.75,1098.25"/>
        </g>
    </g>
</svg>
