<?xml version="1.0" encoding="UTF-8" standalone="no"?>
<!DOCTYPE svg PUBLIC "-//W3C//DTD SVG 1.1//EN" "http://www.w3.org/Graphics/SVG/1.1/DTD/svg11.dtd">
<svg width="100%" height="100%" viewBox="0 0 1140 453" version="1.1" xmlns="http://www.w3.org/2000/svg" xmlns:xlink="http://www.w3.org/1999/xlink" xml:space="preserve" xmlns:serif="http://www.serif.com/" style="fill-rule:evenodd;clip-rule:evenodd;stroke-linejoin:round;stroke-miterlimit:2;">
    <g transform="matrix(1,0,0,1,-133.69,-716.463)">
        <rect x="133.69" y="716.463" width="1139.65" height="452.111" style="fill:rgb(235,235,235);"/>
        <g transform="matrix(1,0,0,1,702,0)">
            <g transform="matrix(1,0,0,1,-81.8045,7.48888)">
                <path d="M204,948.625L202,948.625L199,947.375L197.5,947L196,945.5L195.5,944L194.5,942L194,940.5L192.5,939L191,939.375L187.25,939.75L187.25,936.25L189,935.5L191,934.5L192.875,933.75L191.625,924L191.625,916L192.75,911L193.5,909L194.5,907L195,905.5L198.5,902L202.75,903.25L204.25,907L205,915.5L206,916.5L205,917.5L206,918.5L205.5,923L204.375,927L203.5,929L201,933.5L199,935.5L200,941.5L201.5,943L208.5,942L209.5,941L212,943.5L212,945.5L210.5,947L207,947.5L204,948.625M199,928L200,910.5L199,910L199,910.5L197.875,914L198,927.5L199,928"/>
            </g>
        </g>
        <g transform="matrix(1,0,0,1,702,0)">
            <g transform="matrix(1,0,0,1,-81.8045,7.48888)">
                <path d="M108.5,958L105.25,956.75L105,955.5L106.5,954L109.75,954.25L110,956.5L108.5,958"/>
            </g>
        </g>
        <g transform="matrix(1,0,0,1,702,0)">
            <g transform="matrix(1,0,0,1,-81.8045,7.48888)">
                <path d="M106.5,942L105.5,942L103,939.5L103,937.5L105.5,935L106.75,935.25L107.375,937L108,940.5L106.5,942"/>
            </g>
        </g>
        <g transform="matrix(1,0,0,1,702,0)">
            <g transform="matrix(1,0,0,1,-81.8045,7.48888)">
                <path d="M104.5,932L103.5,932L102,930.5L103.5,923L103.25,918L102.5,916L101.5,914L101,912.5L102,911.5L101,910.5L101,908.5L102.5,907L103.5,907L105,908.5L105.75,914L107.5,919L107.625,922L106,930.5L104.5,932"/>
            </g>
        </g>
        <g transform="matrix(1,0,0,1,702,0)">
            <g transform="matrix(1,0,0,1,-81.8045,7.48888)">
                <path d="M165.5,843L163,841.5L161.25,840.75L161,839.5L165.5,835L167.5,835L169,836.5L168,837.5L167,841.5L165.5,843"/>
            </g>
        </g>
        <g transform="matrix(1,0,0,1,702,0)">
            <g transform="matrix(1,0,0,1,-150.748,-13.5373)">
                <path d="M-182.5,897L-184.5,897L-186,895.5L-184,880.5L-184.5,880L-185.5,881L-186.5,881L-188,879.5L-187.375,876L-187,874.5L-183.5,871L-169.5,871L-166,874.5L-167,881.5L-169.5,884L-170.75,884.25L-171,885.5L-168.5,888L-167.5,888L-166,889.5L-165.625,891L-165,894.5L-166.5,896L-167.5,896L-170,893.5L-170,892.5L-174.5,888L-176,887.5L-178,886.5L-179.5,886L-180.5,885L-181,885.5L-181.5,889L-181.25,894L-181,895.5L-182.5,897M-173,880.25L-171.5,880L-170,878.5L-170,876.5L-171.5,875L-179.5,874L-181,875.5L-179.75,880.875L-173,880.25"/>
            </g>
        </g>
        <g transform="matrix(1,0,0,1,702,0)">
            <g transform="matrix(1,0,0,1,-150.748,-13.5373)">
                <path d="M-186.5,869L-187,868.5L-186.875,864.25L-183.25,864.25L-183,865.5L-186.5,869"/>
            </g>
        </g>
        <g transform="matrix(1,0,0,1,702,0)">
            <g transform="matrix(1,0,0,1,-150.748,-13.5373)">
                <path d="M-172.5,861L-175,858.5L-173.5,857L-172,856.625L-168.25,856.25L-168.25,858.75L-171.5,860L-172.5,861"/>
            </g>
        </g>
        <g transform="matrix(1,0,0,1,702,0)">
            <g transform="matrix(1,0,0,1,-150.748,-13.5373)">
                <path d="M-159.5,856L-161.75,855.75L-162,853.5L-160.5,852L-159.5,852L-157.5,850L-154.25,850.25L-154.25,853.75L-157.5,854L-159.5,856"/>
            </g>
        </g>
        <g transform="matrix(1,0,0,1,702,0)">
            <g transform="matrix(1,0,0,1,-150.748,-13.5373)">
                <path d="M-229.5,894L-233,893.375L-237.5,894L-240,891.5L-240,888.5L-237.5,886L-236.5,886L-234.5,884L-221.5,883L-219,885.5L-220.5,887L-222.5,887L-225,889.5L-225,890.5L-227.5,893L-228.5,893L-229.5,894"/>
            </g>
        </g>
        <g transform="matrix(1,0,0,1,702,0)">
            <g transform="matrix(1,0,0,1,-150.748,-13.5373)">
                <path d="M-212.5,881L-214.75,880.75L-214.75,877.25L-211.25,877.25L-211,879.5L-212.5,881"/>
            </g>
        </g>
        <g transform="matrix(1,0,0,1,702,0)">
            <g transform="matrix(1,0,0,1,-150.748,-13.5373)">
                <path d="M-199.5,876L-200.75,875.75L-202,871.5L-200.5,870L-197.5,869L-195,871.5L-196.5,873L-197.75,873.25L-198,874.5L-199.5,876"/>
            </g>
        </g>
        <g transform="matrix(1,0,0,1,702,0)">
            <g transform="matrix(1,0,0,1,-81.8045,7.48888)">
                <path d="M167.75,831.75L165.5,832L164,830.5L164,827.5L165.5,826L166.5,826L169,828.5L167.75,831.75"/>
            </g>
        </g>
        <g transform="matrix(1,0,0,1,702,0)">
            <g transform="matrix(1,0,0,1,-81.8045,7.48888)">
                <path d="M197.5,816L194.5,815L191,811.5L191,810.5L189,808.5L187.625,803L187,798.5L185.5,797L184.5,798L183,798.25L177,798.25L175,797.5L169.5,794L167.25,792.75L166.75,791L166.75,784L168,780.5L171.5,777L174,776.5L177,775.5L181,775.5L183.5,776L189,781.5L190.25,785L192.625,801L194,806.5L195.5,808L196,807.5L196.125,803.25L198.5,803L200,804.5L200.25,806L200.375,811L200,813.5L197.5,816M183.5,790L186,787.5L186,786.5L180.5,781L174.5,782L171,785.5L172.5,787L173.75,787.25L174,789.5L175.5,791L177,791.5L179,791.625L182,790.375L183.5,790"/>
            </g>
        </g>
        <g transform="matrix(1,0,0,1,702,0)">
            <g transform="matrix(1,0,0,1,-81.8045,7.48888)">
                <path d="M147.75,848L137,847.25L132,845.75L119,845.25L114,843.375L112.5,843L107.5,838L106.5,839L98,843.375L95,844.25L85.5,845L84.5,844L83.5,845L82.5,844L79.5,843L75,838.5L75,836.5L74,835.5L75,834.5L74,833.5L75,832.5L75,831.5L72.5,829L70,828.625L65,828.75L63.5,829L62,830.5L63,840.5L60.5,843L59.5,843L57,840.5L58,839.5L57,832.5L56,831.5L57,830.5L57,827.5L60.5,824L75.5,824L77.5,826L79.5,824L83.5,823L85.5,821L90.5,821L91.5,820L92.5,821L95.5,821L97,822.5L98,826.5L96.5,828L95.5,828L93.5,826L88,826.75L83.5,828L81,830.5L80.625,832L80,835.5L81.5,837L85,838.25L94,838.25L97,837.375L99,836.5L103.5,834L105,832.5L105,814.5L107,812.5L107,811.5L111.5,807L115.75,808.25L116.25,810L117,814.5L118,815.5L117,816.5L116.375,823L115.375,827L112.5,833L112.5,835L113.25,836.75L118,839.5L120,840.25L124.5,841L126,839.5L124,837.5L124.625,834L125.5,832L126,830.5L131.5,825L133,824.625L136.75,824.25L137.25,825.75L138.875,826.25L139,831.5L140,832.5L139,833.5L139,835.5L136,838.5L135.5,840L135.25,841.75L138,842.375L145,842.375L147.5,842L149,843.5L147.75,848M112,817L112,816L111,816L111,817L112,817M110.875,821.75L111,817.5L110,817L110,820.5L109,821.5L109.5,822L110.875,821.75M131,838L131,837.5L131.25,836.25L132.75,835.75L134,830.5L133.5,830L131,832.5L131,833.5L129,835.5L130,837L131,838"/>
            </g>
        </g>
        <g transform="matrix(1,0,0,1,702,0)">
            <g transform="matrix(1,0,0,1,-81.8045,7.48888)">
                <path d="M51.5,845L48.5,844L45,840.5L45,839.5L44.5,839L41.5,842L40,842.5L38,843.375L34,844.375L26,844.25L23,843.375L21,842.5L19.5,842L16,838.5L14.75,835L14.75,830L15,828.5L16.5,827L23,823.625L27,822.5L30.5,822L31.5,821L32.5,822L34.5,822L36,823.5L35.875,827.75L33.5,828L31.5,826L30,826.375L24,828.625L19.25,831.25L19.625,834L20,835.5L21.5,837L25,838.25L37.5,838L40.5,835L41.5,835L43,833.5L44,826.5L45.5,825L49.875,826.25L49.75,837L50,838.5L52,840.5L52,842.5L53,843.5L51.5,845"/>
            </g>
        </g>
        <g transform="matrix(1,0,0,1,702,0)">
            <g transform="matrix(1,0,0,1,-81.8045,7.48888)">
                <path d="M52.875,822.75L50.5,823L49,821.5L49,810.25L51.5,810L54,812.5L52.875,822.75"/>
            </g>
        </g>
        <g transform="matrix(1,0,0,1,702,0)">
            <g transform="matrix(1,0,0,1,-81.8045,7.48888)">
                <path d="M72.75,796.75L67.5,796L65.5,794L63.5,794L61.5,796L59,796.375L52,796.25L50.5,796L47,792.5L47,789.5L45,787.5L45.25,785.25L46.75,784.75L48,780.5L51.5,777L55,775.75L60,775.625L62.5,776L66,779.5L68.25,784L68.25,789L68,790.5L70.5,793L71.5,793L73,794.5L72.75,796.75M62.5,789L64,787.5L64,784.5L59.5,780L54.5,780L52,782.5L52,783.5L51,784.5L53.5,787L56,787.375L61,788.75L62.5,789M52,791L52,790L51,790L51,791L52,791M57.5,793L58,792L57.5,792L52.5,791L52,791.5L53.5,793L57.5,793"/>
            </g>
        </g>
        <g transform="matrix(1,0,0,1,702,0)">
            <g transform="matrix(1,0,0,1,-81.8045,7.48888)">
                <path d="M294.5,800L291.5,800L289.5,798L288.25,797.75L288,796.5L286.5,795L285.5,795L283.5,793L283,793.5L283,794.5L281.5,796L280,796.375L277,797.5L273,798.375L265,798.25L262,797.75L240,797.375L235.5,796L234.5,795L232.5,797L220.5,796L219.5,795L217.5,797L210.5,798L208.5,796L207.5,796L201,789.5L200.5,788L196.5,781L196,779.5L198.5,777L200.75,777.25L201,779.5L203,781.5L203.5,783L204.5,785L205,786.5L209.5,791L210.5,791L212.5,793L213.5,792L214.875,791.75L214,785.5L215,784.5L214,783.5L215,782.5L214,781.5L214,780.5L216.5,778L219.5,778L222,780.5L222,788.5L221,789.5L221.5,790L223,790.375L226,791.625L228,791.625L231.875,790.75L232.625,786L234,781.5L237.5,778L241,777.5L246,777.75L247.5,778L251,781.5L251,782.5L254,785.5L254,790.5L253,791.5L254.5,793L255.5,792L256.5,792L257.5,793L258.5,792L260.5,792L261,791.5L260,790.5L260,789.5L259,788.5L260,787.5L259,786.5L260,785.5L260,784.5L261.5,783L265,781.875L277.75,781.75L278,780.5L279,779.5L278,778.5L278,767.5L280.5,765L281.5,766L283,766.25L283.75,779L284.5,783L285.625,786L288,790.5L291.5,794L292.5,794L295,796.5L295,797.5L296,798.5L294.5,800M247.5,792L248,791.5L247,785.5L244.5,783L243.5,783L242.5,782L241.5,783L240.5,783L238,785.5L238,786.5L240.5,789L242,789.5L247.5,792M273,789.375L275.5,789L277,787.5L275.5,786L272,785.5L267,785.75L265.5,786L264,787.5L264.25,788.75L266,789.25L273,789.375M262.5,793L263,792L261.5,792L261,793L262.5,793M278,793L278,792L277,792L277,793L278,793M265,794L265,793L264,793L264,794L265,794M275,794L275,793L274,793L274,794L275,794M269,795L269,794L268,794L268,795L269,795"/>
            </g>
        </g>
        <g transform="matrix(1,0,0,1,702,0)">
            <g transform="matrix(1,0,0,1,-81.8045,7.48888)">
                <path d="M131.5,797L123.5,796L121,793.5L121,792.5L120.5,792L113.5,799L110,798.375L108.5,798L105,794.5L104.5,793L102.5,789L102,787.5L100.5,786L98.5,788L96.5,789L93.5,791L91.5,792L89.5,794L83,793.25L79.5,792L77,789.5L76.625,788L76,784.5L75,783.5L76,782.5L77,779.5L78.5,778L83,778.75L84.75,779.25L85,781.5L83.5,783L81.5,783L80.5,782L80,782.5L80.625,786L81.25,787.75L83,788.5L85,789.5L87,789.5L93.5,786L99,780.5L98,779.5L97.75,767L99.25,763.125L103.5,763L106,765.5L106,768.5L107,769.5L106,770.5L106,771.5L107,772.5L106,773.5L105.75,783L107.625,788L108,789.5L111.5,793L112.5,793L116,789.5L116.5,787L117.5,784L118,781.5L119.5,780L121.5,780L123,781.5L123,786.5L125,788.5L125,789.5L127.5,792L131.5,792L134,794.5L131.5,797"/>
            </g>
        </g>
        <g transform="matrix(1,0,0,1,702,0)">
            <g transform="matrix(1,0,0,1,-81.8045,7.48888)">
                <path d="M29,801.75L27,801.75L22,800.25L20.5,800L19,798.5L19.875,788L19.75,786.25L18.25,785.75L18,782.5L20,780.5L17.5,769L17.625,766L18,764.5L19.5,763L32.5,762L33.5,761L34.5,762L35.5,761L45.5,760L48,762.5L48,764.5L46.5,766L27,767.875L21.5,767L21,767.5L22,768.5L24.25,779L32.5,779L33.5,778L34.5,779L35.5,779L37,780.5L37,781.5L35.5,783L24.125,784.125L23.25,796L35,795.375L45.5,794L47,795.5L47,797.5L44.5,800L29,801.75"/>
            </g>
        </g>
        <g transform="matrix(1,0,0,1,702,0)">
            <g transform="matrix(1,0,0,1,-81.8045,7.48888)">
                <path d="M476.5,942L472,940.625L453.5,941L452.5,942L451.5,941L450.5,941L449,939.5L451.5,937L453,936.5L457.5,934L462,929.5L462.5,928L465.5,923L466.25,921L467,915.5L465.5,914L457,914.75L453.25,916.25L453,917.5L451,919.5L450,923.5L448.5,925L446.25,924.75L446.25,923L447.75,918L450.25,913.25L451.5,913L453.5,911L460,909.5L465,909.625L467.5,910L471,913.5L470.25,922L469.375,925L468,927.5L466,930.5L465,932.5L462,935.5L462.5,936L478,936.875L479.75,937.25L480,939.5L478.5,941L477.5,941L476.5,942"/>
            </g>
        </g>
        <g transform="matrix(1,0,0,1,702,0)">
            <g transform="matrix(1,0,0,1,-81.8045,7.48888)">
                <path d="M525.75,940.875L521,940.25L512.5,937L503.5,928L501,927.375L499,927.25L494,928.125L495,939.5L493.5,941L490,939.75L489.25,921L487.75,914.25L486.5,914L484,911.5L485,905.5L486.5,904L492,902.75L503,902.75L507.75,904.25L508.25,905.75L509.5,906L511,907.5L511.375,909L512,912.5L513,913.5L512,914.5L512,917.5L510,919.5L510,920.5L506.5,924L505,924L505.5,925L515.5,933L518,934.5L519.5,935L520.5,936L522.5,934L523.5,934L526,936.5L526,937.5L527,938.5L526,939.5L525.75,940.875M504.5,920L506,918.5L506,917.5L508,915.5L507.25,911L506.75,909.25L505.5,909L503.5,907L500,906.5L489.5,907L488,908.5L488,913.5L488.5,914L489.5,913L491.5,913L493,914.5L494,922.5L494.5,923L495.5,922L501.5,922L503.5,920L504.5,920"/>
            </g>
        </g>
        <g transform="matrix(1,0,0,1,702,0)">
            <g transform="matrix(1,0,0,1,-81.8045,7.48888)">
                <path d="M426.5,936L407,934.125L405.25,933.75L405.5,932L406.25,930.25L408.75,929.75L408.75,928.25L407.25,927.75L407.25,924L417,923.5L428.5,922L431,924.5L430,925.5L429.75,926.75L420.5,929L420,929L420.5,930L426.5,930L428,931.5L428,934.5L426.5,936"/>
            </g>
        </g>
        <g transform="matrix(1,0,0,1,702,0)">
            <g transform="matrix(1,0,0,1,-81.8045,7.48888)">
                <path d="M467,801.25L460,801.5L455,800.25L453,799.5L451,798.5L449.5,798L445,793.5L445,791.5L446.5,790L449,790L448.5,789L447.25,788.75L446.75,787L446,782.5L448.5,780L451.5,780L452.5,779L453.5,780L457,780.625L461,782.5L462.5,783L467,787.5L469.25,792L470,799.5L468.5,801L467,801.25M465.875,797.875L466,793.5L463,790.5L463,789.5L459.5,786L456,784.75L450.5,784L450,784.5L454,788.5L453.75,789.75L450.25,790.25L450.25,793.75L456,796.375L460,797.5L465.875,797.875"/>
            </g>
        </g>
        <g transform="matrix(1,0,0,1,702,0)">
            <g transform="matrix(1,0,0,1,-81.8045,7.48888)">
                <path d="M598.5,802L595,800.75L583,798.5L577,798.625L574,799.25L564,799.25L561.5,798L558.5,798L556,799.375L553,800.25L545,800.25L543.5,800L541,797.5L541,796.5L539,794.5L541,771.5L540.5,771L535,776.5L531,800.5L528.5,803L525.25,802.75L525,801.5L524,800.5L525,799.5L525,797.5L524,796.5L525,795.5L524.75,794L524.75,787L528.25,777L528.25,768L528,766.5L523,761.5L523.25,759.125L529.5,760L531,761.5L531.5,763L533.375,767L534,769.5L534.5,770L536.5,768L537.5,768L539.5,766L543.5,766L545,767.5L545,785.5L544,786.5L545,787.5L544,788.5L544,790.5L543,791.5L544,792.5L544,793.5L546.5,796L553,795.25L556.5,794L560,790.5L560.25,789.25L563.875,789.25L564,793.5L566.5,796L572.5,795L573,794.5L571,792.5L570.5,790L570.625,787L571,785.5L573.5,783L578.5,783L582,786.5L583,793.5L584.5,795L597.5,796L600,798.5L600,800.5L598.5,802M577.75,791.75L578,788.5L576.5,787L575.25,787.25L575,790.5L576.5,792L577.75,791.75"/>
            </g>
        </g>
        <g transform="matrix(1,0,0,1,702,0)">
            <g transform="matrix(1,0,0,1,-81.8045,7.48888)">
                <path d="M484.5,813L482.5,813L481,811.5L481,809.5L477,805.5L475,801.5L474,800.5L475.5,799L476.5,799L477.5,800L478,799.5L477.75,796.25L475.5,796L473.5,798L471,795.5L471,793.5L472.5,792L476.5,792L477,791.5L476,790.5L474,774.5L473,773.5L474,772.5L474.5,769L475.625,766L476,764.5L477.5,763L480.5,763L483,765.5L484.125,769L485,779.5L483,781.5L482.75,782.75L481.5,783L480,784.5L481,785.5L481,790.5L482.5,792L489,792.5L496.75,794.25L497,795.5L495.5,797L483.25,796.25L483.375,799L486,811.5L484.5,813M479.5,780L481,778.5L480,769.5L479,769L479,773.5L478,774.5L479,775.5L479,779.5L479.5,780M479,801L479,800L478,800L478,801L479,801"/>
            </g>
        </g>
        <g transform="matrix(1,0,0,1,702,0)">
            <g transform="matrix(1,0,0,1,-81.8045,7.48888)">
                <path d="M386.5,951L380.25,949.875L379.5,948L375.5,939L375,936.5L374.5,936L373.5,937L371,937.625L369.25,937.75L369,934.5L370.5,933L371.5,933L373,931.5L373,930.5L374,929.5L373,928.5L373.875,910L376,905.5L376.5,905L377.5,906L379.5,906L382,908.5L382.25,926L381,930.5L379,932.5L379.5,935L382,943.5L384.5,946L387.5,946L389,947.5L388,948.5L388,949.5L386.5,951"/>
            </g>
        </g>
        <g transform="matrix(1,0,0,1,702,0)">
            <g transform="matrix(1,0,0,1,-81.8045,7.48888)">
                <path d="M316.5,942L301.5,943L300.5,942L299.5,943L287.25,943.875L286,940.5L287.5,939L315.5,935L318,937.5L318,938.5L319,939.5L316.5,942"/>
            </g>
        </g>
        <g transform="matrix(1,0,0,1,702,0)">
            <g transform="matrix(1,0,0,1,-81.8045,7.48888)">
                <path d="M315,932.25L308.5,934L307.5,933L306.5,934L305.5,933L297.5,933L296.5,932L295.5,933L288,932.25L286.25,931.75L286,929.5L288.5,927L289.5,928L310.5,928L312.5,926L316.75,926.125L317.5,928L317.5,930L316.75,931.75L315,932.25"/>
            </g>
        </g>
        <g transform="matrix(1,0,0,1,702,0)">
            <g transform="matrix(1,0,0,1,-81.8045,7.48888)">
                <path d="M317.5,958L316,956L315,954.5L316,953.5L318.5,949L319,947.5L332,934.5L332,932.5L333,931.5L332,930.5L331.75,929.25L330.25,928.75L329.75,927.25L317,919.5L313.5,917L311.5,916L310,914.5L310,913.5L311.5,912L314,912.625L316.5,914L323,918.5L327.5,921L330.5,923L332.5,924L337,928.5L337,934.5L335,936.5L331.75,941.75L330.5,942L325,947.5L324.625,949L323.375,952L323,953.5L319.5,957L318.5,957L317.5,958"/>
            </g>
        </g>
        <g transform="matrix(1,0,0,1,702,0)">
            <g transform="matrix(1,0,0,1,-81.8045,7.48888)">
                <path d="M398.75,798.875L394.5,799L391,795.5L391,794.5L389.5,793L385,795.25L378,795.375L375.5,795L373.5,793L372.25,793.25L371.75,794.75L368,796.25L361,797.75L359,797.625L355,796.375L349.25,793.75L348.75,792.25L346,793.5L343,795.5L341.5,796L339.5,798L337,798.375L329,800.25L319,800.25L314,798.375L312.5,798L308,793.5L307,786.5L305.5,785L304.5,786L302.5,786L299.5,789L298.5,789L298,789.5L301,792.5L300.75,793.75L297.5,794L294,790.5L295,786.5L296.5,785L297.5,785L300.5,782L303,781.625L308,781.75L309.75,782.25L311.5,788L312,791.5L314.5,794L315.5,794L317.5,796L327.5,797L328,796.5L324,792.5L325,785.5L326.5,784L328,783.75L333,783.5L338.5,785L341,787.5L342,790.5L342.5,791L347,786.5L347,783.5L349.5,781L351.5,781L353,782.5L352.625,784L351.375,787L351.5,789L352.25,790.75L356,792.25L368.5,792L370,790.5L370,782.5L371.5,781L373.5,781L375,782.5L375.375,784L375.375,787L375,788.5L377.5,791L380,791.625L382,791.625L388.5,790L389,789.5L388,788.5L387.875,783.25L384.5,783L382,780.5L382,778.5L384.5,776L385.875,775.75L385.125,762.25L388.5,761L390,762.5L391.125,775L404.5,775L406,776.5L405.75,780L393.25,780L394,789.5L397,792.5L397,793.5L399,795.5L398.75,798.875M336.5,794L338,792.5L336.75,789.25L334,788.625L329.25,788.125L329,789.5L328,790.5L331.5,794L336.5,794"/>
            </g>
        </g>
        <g transform="matrix(1,0,0,1,702,0)">
            <g transform="matrix(1,0,0,1,-150.748,-13.5373)">
                <path d="M-175,1133.38L-187.75,1134L-189,1130.5L-185.5,1127L-182.5,1126L-177,1120.5L-177,1119.5L-175,1117.5L-174.625,1115L-174.75,1110L-175,1108.5L-176.5,1107L-177.5,1108L-181.75,1109.25L-182,1110.5L-183,1111.5L-182,1112.5L-182.25,1114.88L-186.5,1115L-189,1112.5L-188,1111.5L-187,1107.5L-182.5,1103L-172.5,1102L-170,1104.5L-170,1106.5L-168,1108.5L-168.5,1114L-169.75,1119L-170.5,1121L-172.5,1124L-173.75,1126.88L-167.5,1127L-166.5,1126L-165.5,1127L-162.5,1127L-161,1128.5L-161,1130.5L-163.5,1133L-165.5,1133L-166.5,1132L-167.5,1133L-168.5,1133L-169.5,1132L-170.5,1133L-175,1133.38"/>
            </g>
        </g>
        <g transform="matrix(1,0,0,1,702,0)">
            <g transform="matrix(1,0,0,1,-150.748,-13.5373)">
                <path d="M-121.5,1136L-123.5,1136L-126,1133.5L-126,1132.5L-127.5,1131L-140,1124.63L-145,1122.63L-147.75,1122.25L-148.25,1124L-149,1129.5L-150,1130.5L-149,1131.5L-150.25,1135.75L-153.5,1136L-155,1134.5L-154,1107.5L-152.5,1106L-150.5,1106L-149,1107.5L-149,1115.5L-148.5,1116L-147.5,1115L-138,1114.25L-132.5,1113L-131,1111.5L-131,1109.5L-132.5,1108L-134,1107.63L-137.5,1107L-139.5,1105L-148.5,1104L-149.5,1103L-150.5,1104L-151.5,1103L-154.5,1104L-156,1105.5L-156.25,1106.75L-158.75,1106.75L-159,1105.5L-160,1104.5L-159,1103.5L-158.75,1100.25L-154,1098.75L-145,1098.63L-137,1100.5L-129.5,1103L-125,1107.5L-125,1114.5L-126.5,1116L-133,1119.5L-134.5,1120L-135,1120L-134.5,1121L-133,1121.5L-131,1122.5L-129.5,1123L-127.5,1125L-123.5,1126L-119,1130.5L-119,1133.5L-121.5,1136"/>
            </g>
        </g>
        <g transform="matrix(1,0,0,1,702,0)">
            <g transform="matrix(1,0,0,1,-150.748,-13.5373)">
                <path d="M-207,1124.25L-226.5,1124L-228,1122.5L-228,1120.5L-226.5,1119L-225.5,1120L-223.5,1120L-222.5,1121L-221.5,1120L-206.5,1119L-205.5,1118L-204.5,1119L-203.5,1119L-202,1120.5L-202,1122.5L-203.5,1124L-207,1124.25"/>
            </g>
        </g>
        <g transform="matrix(1,0,0,1,702,0)">
            <g transform="matrix(1,0,0,1,-150.748,-13.5373)">
                <path d="M-209,1116.25L-229.75,1116.75L-230,1115.5L-231,1114.5L-227.5,1111L-209,1111.63L-207.25,1112.25L-207.25,1115.75L-209,1116.25"/>
            </g>
        </g>
        <g transform="matrix(1,0,0,1,702,0)">
            <g transform="matrix(1,0,0,1,-150.748,-13.5373)">
                <path d="M-254.5,1131L-260,1130.25L-263.75,1128.75L-264.25,1127.25L-266,1127.38L-269,1128.25L-277,1128.25L-281.5,1127L-283.5,1129L-288.5,1129L-292,1125.5L-292,1124.5L-292.5,1124L-295.5,1127L-297,1127.5L-299,1128.38L-302,1129.38L-312.5,1129L-318,1123.5L-319,1119.5L-320,1118.5L-319,1117.5L-319,1115.5L-317.5,1114L-316,1113.63L-313,1112.5L-309.5,1112L-308.5,1111L-307.5,1112L-304.5,1112L-301,1115.5L-299.75,1121.75L-298.5,1122L-297,1120.5L-296.625,1119L-295.375,1116L-295,1114.5L-293.5,1113L-290.5,1113L-288,1115.5L-288,1116.5L-289,1117.5L-288,1118.5L-286.75,1122.75L-285.5,1123L-284,1121.5L-281.75,1113.25L-278.5,1113L-277,1114.5L-277,1121.5L-275.5,1123L-270,1122.25L-268.25,1121.75L-267,1115.5L-264.5,1113L-261.25,1113.25L-260.75,1115L-260,1121.5L-261,1122.5L-259.5,1124L-258,1123.63L-254.5,1123L-252,1125.5L-252,1128.5L-254.5,1131M-307.5,1124L-306.5,1123L-305.25,1122.75L-305.5,1121L-306,1119.5L-307.5,1118L-311.5,1118L-313,1119.5L-313,1120.5L-311.5,1122L-309.5,1122L-307.5,1124"/>
            </g>
        </g>
        <g transform="matrix(1,0,0,1,702,0)">
            <g transform="matrix(1,0,0,1,-150.748,-13.5373)">
                <path d="M-326,1109.5L-330.25,1112.75L-331.25,1111L-332,1105.5L-330.5,1104L-328.5,1104L-326,1106.5L-326,1109.5"/>
            </g>
        </g>
        <g transform="matrix(1,0,0,1,702,0)">
            <g transform="matrix(1,0,0,1,-150.748,-13.5373)">
                <path d="M-323.25,1130.88L-329,1130.25L-331.5,1129L-334,1128.5L-339,1130.5L-346,1132.25L-361.5,1132L-366,1127.5L-366.25,1126L-366.25,1120L-366,1118.5L-364.5,1117L-362.5,1117L-360.5,1115L-349.5,1116L-348.5,1117L-348,1116.5L-349.75,1101L-350.375,1099L-350.75,1095.25L-349.5,1095L-348.5,1094L-347.5,1095L-346.25,1095.25L-343.625,1110L-343,1125.5L-342.5,1126L-341.5,1125L-339,1124.38L-334,1122.5L-330.5,1122L-326.5,1126L-323.25,1127.25L-323.25,1130.88M-350.5,1128L-349,1126.5L-349,1124.5L-352.5,1121L-359.5,1121L-361,1122.5L-360.75,1125.75L-357,1127.25L-350.5,1128"/>
            </g>
        </g>
        <g transform="matrix(1,0,0,1,702,0)">
            <g transform="matrix(1,0,0,1,-87.8161,6.06313)">
                <path d="M188,1058.25L183.5,1059L182,1057.5L181.75,1056.25L179,1055.5L174,1053.5L168,1050.5L166.25,1050.25L166.625,1053L167.375,1055L167.375,1059L166.75,1060.75L164.5,1061L163,1059.5L161,1044.5L159,1042.5L159.25,1041L159.25,1036L158.75,1034.25L157.25,1034.25L156,1038.5L154.5,1040L152,1039.75L152,1031.5L153.5,1030L158,1028.63L164,1027.63L176,1027.75L180.5,1029L184,1032.5L184,1036.5L182,1038.5L181.75,1039.75L177,1042.38L174,1043.38L168,1044L168.5,1045L169.5,1045L171.5,1047L174,1047.63L187,1052.63L188.5,1053L190,1054.5L189.75,1057.75L188,1058.25M169,1038.5L176.5,1037L179,1034.5L178.5,1034L172.5,1033L171.5,1032L170.5,1033L169.5,1033L168.5,1032L167.5,1033L165.5,1033L164.5,1032L163,1033.5L164,1034.5L164.125,1038.88L169,1038.5"/>
            </g>
        </g>
        <g transform="matrix(1,0,0,1,702,0)">
            <g transform="matrix(1,0,0,1,-150.748,-13.5373)">
                <path d="M-119.5,1079L-120.5,1078L-121.5,1079L-122.5,1078L-123.5,1078L-124.5,1079L-125.5,1078L-251.875,1077.25L-252.125,1083.75L-256.5,1085L-259,1082.5L-260,1079.5L-261.5,1078L-262.5,1078L-264.5,1076L-272,1074.63L-356.5,1077L-358,1075.5L-359,1069.5L-360,1068.5L-359,1067.5L-359,1066.5L-357.5,1065L-355.5,1065L-354,1066.5L-354,1071.5L-353.5,1072L-352.5,1071L-348.5,1071L-347.5,1070L-346.5,1071L-338.5,1071L-337.5,1070L-336.5,1071L-320.5,1071L-319.5,1070L-318.5,1071L-317.5,1070L-316,1070.38L-313,1070.88L-276.5,1068L-275.5,1069L-274.5,1068L-273.5,1069L-268,1069.63L-262.5,1071L-260.5,1073L-259.5,1073L-258.5,1074L-256.5,1072L-241.5,1073L-240.5,1074L-239.5,1073L-104.5,1072L-104,1071.5L-105,1070.5L-105,1068.5L-102.5,1066L-101.5,1066L-100.5,1065L-99.5,1066L-98.5,1066L-97,1067.5L-97,1075.5L-98.5,1077L-100,1077.5L-102,1077.75L-118.5,1078L-119.5,1079"/>
            </g>
        </g>
        <g transform="matrix(1,0,0,1,702,0)">
            <g transform="matrix(1,0,0,1,-81.8045,7.48888)">
                <path d="M213.5,1017L210.5,1017L209.5,1016L208.5,1017L206.25,1016.75L206,1014.5L208.5,1012L209.5,1013L213,1013.63L214.75,1014.25L215,1015.5L213.5,1017"/>
            </g>
        </g>
        <g transform="matrix(1,0,0,1,702,0)">
            <g transform="matrix(1,0,0,1,-81.8045,7.48888)">
                <path d="M186.5,1016L182,1016.63L179,1016.38L177.25,1015.75L177,1014.5L178.5,1013L182,1011.75L186.5,1011L188,1012.5L188,1014.5L186.5,1016"/>
            </g>
        </g>
        <g transform="matrix(1,0,0,1,702,0)">
            <g transform="matrix(1,0,0,1,-81.8045,7.48888)">
                <path d="M164,1016.38L160.5,1017L159,1015.5L159.25,1012.25L161,1011.63L164,1011.63L165.75,1012.25L166,1013.5L167,1014.5L165.5,1016L164,1016.38"/>
            </g>
        </g>
        <g transform="matrix(1,0,0,1,702,0)">
            <g transform="matrix(1,0,0,1,-81.8045,7.48888)">
                <path d="M144.5,1016L143.5,1016L142,1014.5L142.125,1010.13L146.5,1010L148,1011.5L148,1012.5L144.5,1016"/>
            </g>
        </g>
        <g transform="matrix(1,0,0,1,702,0)">
            <g transform="matrix(1,0,0,1,-81.8045,7.48888)">
                <path d="M119.5,1014L111.25,1014.88L111,1011.5L112.5,1010L119.5,1009L121,1010.5L121,1012.5L119.5,1014"/>
            </g>
        </g>
        <g transform="matrix(1,0,0,1,702,0)">
            <g transform="matrix(1,0,0,1,-81.8045,7.48888)">
                <path d="M112.5,1001L110,998L111.5,996L113.75,996.25L114,997.5L115,998.5L112.5,1001"/>
            </g>
        </g>
        <g transform="matrix(1,0,0,1,702,0)">
            <g transform="matrix(1,0,0,1,-81.8045,7.48888)">
                <path d="M109.5,984L108.5,984L107,982.5L108,978.5L108.5,978L111,980.5L111,982.5L109.5,984"/>
            </g>
        </g>
        <g transform="matrix(1,0,0,1,702,0)">
            <g transform="matrix(1,0,0,1,-81.8045,7.48888)">
                <path d="M110.5,969L108.125,968.75L108.125,964.25L109.5,964L112,966.5L112,967.5L110.5,969"/>
            </g>
        </g>
        <g transform="matrix(1,0,0,1,702,0)">
            <g transform="matrix(1,0,0,1,-69.8913,5.8647)">
                <path d="M76,976.375L73.25,976.75L72.375,974L67.5,964L67,962.5L67,962L66,962.5L66.75,973.75L65.5,974L64.5,975L62,972.5L62,971.5L61,970.5L62,969.5L61,968.5L61.75,959L61.375,951L60.75,949.25L58.5,949L57,947.5L57,946.5L58.5,945L60.75,944.75L61,943.5L63.5,941L66,940.625L71,940.5L74.5,941L76.5,943L77.5,943L79,944.5L79,947.5L80,948.5L79,949.5L78,954.5L76.5,956L75.5,956L73.5,958L71.25,958.25L71,960.5L73,962.5L74,966.5L76,968.5L76,970.5L78,972.5L77.75,975.75L76,976.375M70,953.375L71.5,953L74,950.5L74,947.5L72.5,946L65.25,945.125L65.25,947L66.125,953.75L70,953.375"/>
            </g>
        </g>
        <g transform="matrix(1,0,0,1,702,0)">
            <g transform="matrix(1,0,0,1,-81.8045,7.48888)">
                <path d="M242.5,1031L232.5,1030L228,1025.5L227.875,1020.25L226.5,1020L224,1017.5L224,1016.5L225,1015.5L224.5,1015L223,1015.5L221.25,1015.75L220,1011.5L221.5,1010L223.5,1010L224,1009.5L220,1005.5L219.75,1004.25L218.25,1003.75L218,1002.5L216.5,1001L213.5,999L209.5,996L207.5,995L206,993.5L205.75,992.25L204.5,992L197,984.5L196.75,983.25L195.25,982.75L195,981.5L186.5,973L183.5,971L168.5,958L159,948.5L155,942.5L144.5,932L139.5,929L134,923.5L134,922.5L127.5,916L126.5,916L117,906.5L117,905.5L112.5,901L108.5,899L106.5,897L103.5,897L103,897.5L104,898.5L103,902.5L100.5,905L99,903.5L98.5,900L98.75,895.25L97.5,895L96,893.5L95.625,892L95.5,888L96,885.5L97.5,884L102,881.5L104,880.75L108.5,880L111,882.5L111.25,884L111.25,892L111,893.5L113.5,896L116.5,897L121,901.5L121,902.5L130.5,912L131.5,912L138,918.5L138,919.5L143.5,925L147.5,927L159,938.5L159.25,939.75L160.75,940.25L164,945.5L171.5,953L186.5,966L189.5,968L199,977.5L202,982.5L204.5,985L205.5,985L208,987.5L208,988.5L209.5,990L212,991.5L216,994.5L232.5,1009L234.5,1010L236.5,1012L240,1012.63L241.5,1013L245,1016.5L246,1027.5L242.5,1031M105.5,890L106,889.5L105.75,887.25L104.25,887.75L105.5,890M225,1011L225,1010L224,1010L224,1011L225,1011M225.5,1015L226.5,1014L227.5,1014L228,1013L227.5,1013L225.25,1013.75L225.5,1015M239.5,1026L241,1024.5L240,1019.5L238.5,1018L234.5,1018L232,1020.5L232,1022.5L235.5,1026L239.5,1026"/>
            </g>
        </g>
        <g transform="matrix(1,0,0,1,702,0)">
            <g transform="matrix(1,0,0,1,-150.748,-13.5373)">
                <path d="M-230.5,1025L-233.75,1024.75L-235,1022.5L-239.25,1016.25L-240.75,1015.75L-241,1014.5L-243.5,1012L-244.5,1012L-248,1008.5L-248,1007.5L-252.5,1003L-254,1002.5L-256,1001.5L-265,994.5L-267.75,992.75L-274.25,984.25L-281.5,979L-288,972.5L-288.25,971.25L-315,949.5L-321.5,945L-328.75,940.75L-332.5,935L-334.5,931L-335,929.5L-337.5,927L-338.75,926.75L-347.5,916L-350,911.5L-359.5,902L-366,898.5L-367.5,898L-369,896.5L-370,892.5L-368.5,891L-367.5,891L-366.5,890L-364.5,892L-363.25,891.75L-363,890.5L-361.5,889L-360.5,889L-358,886.5L-358,885.5L-352.5,880L-351.5,880L-345,873.5L-342.5,869L-341.75,867.25L-340.5,867L-335,861.5L-335,860.5L-330.5,856L-327.5,854L-312.5,841L-298.5,831L-287.5,822L-284,818.5L-284,817.5L-281.5,815L-280.5,815L-266,800.5L-265.5,799L-262,793.5L-257.5,789L-256,788.5L-251.5,786L-247,781.5L-247,780.5L-239.5,773L-238.25,772.75L-237.75,771.25L-236.5,771L-235,769.5L-236,768.5L-236.25,767.25L-237.75,766.75L-238,765.5L-241,762.5L-238.5,760L-233.5,760L-232,761.5L-231.75,763.75L-229.5,764L-227,766.5L-227,769.5L-225,771.5L-225,772.5L-223.5,774L-222.5,774L-217,779.5L-217,780.5L-212.5,785L-210,786.5L-198.5,796L-195.5,798L-184,809.5L-183.5,811L-179.75,816.75L-177,818.5L-173,821.5L-170,823.5L-168.5,824L-165,827.5L-164.5,829L-162,833.5L-157.5,838L-153.5,840L-145,848.5L-144.75,849.75L-143.25,850.25L-142.75,851.75L-136.5,856L-134.5,857L-128,863.5L-128,864.5L-118.5,874L-116.5,874L-114.5,876L-108.25,880.25L-107.75,881.75L-106.5,882L-101,887.5L-100.75,888.75L-99.25,889.25L-98.75,890.75L-97.25,891.25L-96.75,892.75L-95.5,893L-95,893.5L-96,894.5L-96.25,896.75L-97.5,897L-98.5,898L-99.5,897L-101.5,897L-102.5,896L-110,903.5L-110,904.5L-115.5,910L-116.5,910L-141,934.5L-145,940.5L-148.5,944L-149.75,944.25L-150,945.5L-154.5,950L-155.5,950L-159,953.5L-164.25,960.75L-165.75,961.25L-166,962.5L-170.5,967L-187,980.5L-189.75,982.25L-190.25,983.75L-191.5,984L-204,996.5L-204,997.5L-208.5,1002L-209.75,1002.25L-210,1003.5L-214.5,1008L-215.75,1008.25L-216,1009.5L-222.5,1016L-223.75,1016.25L-224,1018.5L-230.5,1025M-190.5,976L-176.5,965L-166,954.5L-162,948.5L-158.5,945L-157.5,945L-149,936.5L-144.5,930L-143.75,928.25L-121.25,907.75L-121,906.5L-119.5,905L-118.25,904.75L-117.75,903.25L-116.5,903L-114,900.5L-114,899.5L-111.5,897L-110.5,897L-109,895.5L-109,894.5L-106,891.5L-108,889.5L-108,888.5L-110.5,886L-113.5,884L-117.5,881L-120,879.5L-121.5,879L-130,870.5L-130.25,869.25L-131.75,868.75L-132,867.5L-137.5,862L-139.5,861L-143,858.5L-160,843.5L-162.75,841.75L-169,833.5L-170,831.5L-173.5,828L-176,826.5L-179.5,824L-181.5,823L-186,818.5L-187,816.5L-193.25,808.25L-214.5,791L-216.5,790L-222,784.5L-223.25,781.25L-227.75,778.75L-230.25,774.25L-232.5,774L-240.5,782L-241.75,782.25L-243,785.5L-248.5,791L-250,791.5L-254.5,794L-258,797.5L-259,799.5L-267.25,809.75L-272.75,813.25L-273,814.5L-276.5,818L-277.5,818L-279,819.5L-279,820.5L-286.5,828L-287.75,828.25L-288.25,829.75L-296,835.5L-302,839.5L-303.75,840.25L-304.25,841.75L-306,842.5L-309,844.5L-323,856.5L-325.5,858L-339,871.5L-339.5,873L-346.25,881.75L-347.5,882L-360,894.5L-359.75,895.75L-357.25,896.25L-356.75,897.75L-347.25,905.25L-346,907.5L-344,910.5L-332.5,924L-328.625,929L-328,931.5L-326,933.5L-326,934.5L-324.5,936L-322.5,937L-310,945.5L-299.25,954.25L-298.75,955.75L-296,957.5L-292,960.5L-289.5,962L-281,970.5L-280.75,971.75L-272.25,978.25L-271.75,979.75L-270.5,980L-269,981.5L-264.75,987.75L-257,993.5L-254.5,995L-252.5,997L-250.25,997.25L-249.75,998.75L-246.25,1000.25L-245.75,1001.75L-244.25,1002.25L-240.75,1007.75L-239.25,1008.25L-239,1009.5L-237.5,1011L-236.25,1011.25L-236,1012.5L-232.5,1016L-229.5,1017L-228,1015.5L-228,1014.5L-223.5,1010L-222.25,1009.75L-214,1000L-190.5,976"/>
            </g>
        </g>
    </g>
</svg>
