<?xml version="1.0" encoding="UTF-8" standalone="no"?>
<!DOCTYPE svg PUBLIC "-//W3C//DTD SVG 1.1//EN" "http://www.w3.org/Graphics/SVG/1.1/DTD/svg11.dtd">
<svg width="100%" height="100%" viewBox="0 0 850 236" version="1.1" xmlns="http://www.w3.org/2000/svg" xmlns:xlink="http://www.w3.org/1999/xlink" xml:space="preserve" xmlns:serif="http://www.serif.com/" style="fill-rule:evenodd;clip-rule:evenodd;stroke-linejoin:round;stroke-miterlimit:2;">
    <g transform="matrix(1,0,0,1,-154.466,-925.388)">
        <g transform="matrix(0.989655,0,0,0.889329,10.3913,128.505)">
            <rect x="145.581" y="896.049" width="858.87" height="265.095" style="fill:rgb(235,235,235);"/>
        </g>
        <g transform="matrix(1,0,0,1,702,0)">
            <g transform="matrix(1,0,0,1,-62.7038,0.918656)">
                <path d="M301,1009.5L299.5,1010L298,1008.5L298.625,1006L301,1002.5L302.75,999.25L297.5,996L296.5,995L295.5,996L294.5,995L293.5,995L292,993.5L292,992.5L293.5,991L295,990.5L297,990.375L299.5,991L301.5,993L306,995.5L309,994.5L311.5,993L313.5,991L316.5,991L318,992.5L317,993.5L317,994.5L314.5,997L313.5,997L311,999.5L313.5,1002L314.5,1002L315.5,1003L316.5,1002L318,1003.5L318,1005.5L316.5,1007L311.5,1007L307.5,1003L303,1007.5L302.75,1008.75L301,1009.5"/>
            </g>
        </g>
        <g transform="matrix(1,0,0,1,702,0)">
            <g transform="matrix(1,0,0,1,-62.7038,0.918656)">
                <path d="M338.5,1001L323.5,1000L322,998.5L323.25,995.25L325.5,995L329,991.5L329,990.5L326.5,988L325.5,988L324.5,987L323,988.5L322.75,989.75L320.125,989.75L320,985.5L321.5,984L323,983.625L327,983.625L328.5,984L333,988.5L333.625,991L332.25,995.875L339.75,996.125L340,999.5L338.5,1001"/>
            </g>
        </g>
        <g transform="matrix(1,0,0,1,702,0)">
            <g transform="matrix(1,0,0,1,-62.7038,0.918656)">
                <path d="M290,1000.25L282,1001.75L280,1002.38L276,1002.38L274.25,1001.75L274.25,998.25L289.5,996L291,997.5L291,998.5L292,999.5L291.5,1000L290,1000.25"/>
            </g>
        </g>
        <g transform="matrix(1,0,0,1,702,0)">
            <g transform="matrix(1,0,0,1,-62.7038,0.918656)">
                <path d="M233.5,1010L227.5,1003.5L226.5,1001L225.5,999L224.75,997L224.75,992L226,988.5L227.5,987L231,987.5L236,987.375L238.75,988.25L239,991.5L237.5,993L233.5,993L233,993.5L234,994.5L235.25,1000L236,1008.75L234.5,1009L233.5,1010"/>
            </g>
        </g>
        <g transform="matrix(1,0,0,1,702,0)">
            <g transform="matrix(1,0,0,1,-62.7038,0.918656)">
                <path d="M261.5,1002L253.5,1001L252.5,1002L251.5,1001L250.5,1002L249.5,1001L244.5,1001L243,999.5L243,998.5L242,997.5L244.5,995L247,994.375L249,993.5L253.5,991L254,990.5L252.5,989L250,988.5L243.25,988.75L243,986.5L245.5,984L246.5,984L247.5,983L248.5,984L249.5,983L251,983.375L254,984.5L256.5,985L259,987.5L259,988.5L260,989.5L259,990.5L259,992.5L256,995.5L256.5,996L262.5,997L264,998.5L264,999.5L261.5,1002"/>
            </g>
        </g>
        <g transform="matrix(1,0,0,1,702,0)">
            <g transform="matrix(1,0,0,1,-62.7038,0.918656)">
                <path d="M189.75,1003.75L172.5,1003L171,1001.5L171.25,1000.25L173,999.625L177,998.75L187.5,998L191,1001.5L190,1002.5L189.75,1003.75"/>
            </g>
        </g>
        <g transform="matrix(1,0,0,1,702,0)">
            <g transform="matrix(1,0,0,1,-62.7038,0.918656)">
                <path d="M175,996.75L172.5,997L171,995.5L171,993.5L172.5,992L186.5,990L187.5,991L188.5,990L189.5,991L190.75,991.25L191,994.5L189.5,996L187.5,996L186.5,995L185.5,996L184.5,995L175,996.75"/>
            </g>
        </g>
        <g transform="matrix(1,0,0,1,702,0)">
            <g transform="matrix(1,0,0,1,-62.7038,0.918656)">
                <path d="M296,974.125L214,972L214.75,987L216.625,994L217.375,996L218.25,999L218,1012.5L216.5,1014L214.5,1014L213,1012.5L212.5,1008L211,1000.5L209.5,999L206.25,998.75L205.625,997L205,993.5L206.5,992L210.5,993L211,992.5L210,991.5L209,979.5L208,978.5L209,977.5L208,976.5L209,975.5L209,968.5L210.5,967L245.5,969L246.5,970L247.5,969L248.5,970L249.5,969L269.5,971L270.5,970L271.5,971L296.5,970L297.5,969L298.5,970L299.75,970.25L300,972.5L298.5,974L296,974.125"/>
            </g>
        </g>
        <g transform="matrix(1,0,0,1,702,0)">
            <g transform="matrix(1,0,0,1,-71.8462,-6.70251)">
                <path d="M24.5,1007L23.5,1007L22,1005.5L22,1000.5L21,999.5L22.5,998L25.875,998.25L26,1005.5L24.5,1007"/>
            </g>
        </g>
        <g transform="matrix(1,0,0,1,702,0)">
            <g transform="matrix(1,0,0,1,-71.8462,-6.70251)">
                <path d="M19.5,990L16.5,989L15,987.5L17.5,985L18.5,985L19.5,984L20.5,985L21.75,985.25L22,987.5L19.5,990"/>
            </g>
        </g>
        <g transform="matrix(1,0,0,1,702,0)">
            <g transform="matrix(1,0,0,1,-222.307,246.663)">
                <path d="M-135.5,894L-136.5,894L-139,891.5L-139,886.5L-140,885.5L-139,884.5L-139.75,877L-140.5,875L-140,872.5L-139,870.5L-137.5,869L-136.5,869L-135,870.5L-134.75,872L-124.5,872L-123.5,871L-122.5,872L-121.5,872L-119.5,870L-111.5,870L-110,871.5L-110,873.5L-111.5,875L-127,877.75L-129,877.75L-133.75,877.125L-133,882.5L-132,883.5L-133,884.5L-133,888.5L-134,889.5L-133,890.5L-134,891.5L-134,892.5L-135.5,894"/>
            </g>
        </g>
        <g transform="matrix(1,0,0,1,702,0)">
            <g transform="matrix(1,0,0,1,-222.307,246.663)">
                <path d="M-209,853.5L-212.875,853.75L-213,849.5L-211.5,848L-210.25,848.25L-210,849.5L-209.5,850L-208.5,849L-203.25,849.125L-203.25,851.75L-209,853.5"/>
            </g>
        </g>
        <g transform="matrix(1,0,0,1,702,0)">
            <g transform="matrix(1,0,0,1,-222.307,246.663)">
                <path d="M-278.5,882L-283.5,882L-286,879.5L-287,874.5L-287.5,874L-289.5,876L-291.5,876L-293,874.5L-292.5,873L-290,868.5L-288.5,867L-287.25,866.75L-287,865.5L-285.5,864L-278.5,863L-276,865.5L-275.75,866.75L-274.25,867.25L-273.75,869L-273.625,875L-274,877.5L-278.5,882M-280.5,878L-278,875.5L-278,871.5L-280,869.5L-280.25,868.25L-281.75,868.25L-282.25,870L-282.25,876L-281.75,877.75L-280.5,878"/>
            </g>
        </g>
        <g transform="matrix(1,0,0,1,702,0)">
            <g transform="matrix(1,0,0,1,-222.307,246.663)">
                <path d="M-257.5,853L-258.5,853L-260,851.5L-258.75,848.25L-257.5,848L-256.5,847L-254,849.5L-257.5,853"/>
            </g>
        </g>
        <g transform="matrix(1,0,0,1,702,0)">
            <g transform="matrix(1,0,0,1,-222.307,246.663)">
                <path d="M-273.5,853L-277.75,852.875L-279,849.5L-276.5,847L-275.5,847L-273,849.5L-273,850.5L-272,851.5L-273.5,853"/>
            </g>
        </g>
        <g transform="matrix(1,0,0,1,702,0)">
            <g transform="matrix(1,0,0,1,-222.307,246.663)">
                <path d="M-234,850.5L-236.5,851L-238,849.5L-237,848.5L-236.75,847.25L-235,846.625L-232,846.625L-230.25,847.25L-230,848.5L-231.5,850L-234,850.5"/>
            </g>
        </g>
        <g transform="matrix(1,0,0,1,702,0)">
            <g transform="matrix(1,0,0,1,-222.307,246.663)">
                <path d="M-274.5,829L-277,826L-276,824.5L-277,823.5L-277,822.5L-278,821.5L-277,820.5L-277,818.5L-275.5,817L-273.125,817.25L-272.5,822L-272.625,826L-273,827.5L-274.5,829"/>
            </g>
        </g>
        <g transform="matrix(1,0,0,1,702,0)">
            <g transform="matrix(1,0,0,1,-222.307,246.663)">
                <path d="M-276.25,800.75L-278.5,801L-280,799.5L-279.375,796L-276.75,789.25L-274.125,789.25L-274.625,794L-276.25,800.75"/>
            </g>
        </g>
        <g transform="matrix(1,0,0,1,702,0)">
            <g transform="matrix(1,0,0,1,-222.307,246.663)">
                <path d="M-275.25,779.75L-277.75,779.75L-278.375,778L-278.375,774L-278,772.5L-277,771.5L-279,769.5L-278.75,766.25L-277,766.5L-275.5,767L-273,769.5L-273.625,774L-275.25,779.75"/>
            </g>
        </g>
        <g transform="matrix(1,0,0,1,702,0)">
            <g transform="matrix(1,0,0,1,-251.947,248.14)">
                <path d="M-13.5,760L-16.5,760L-18,758.5L-18,756.5L-14.5,753L-13.5,753L-7,746.5L-7,745.5L-8.5,744L-9.75,743.75L-10.25,742.25L-11.5,742L-13,740.5L-13,738.5L-10.5,736L-3.5,743L-1.5,741L-0.5,741L1,739.5L1,738.5L3.5,736L7.5,735L10,737.5L9.5,738L8.5,738L0,746.5L2.5,749L7.75,750.25L8,753.5L6.5,755L3,754.375L-0.5,752L-5,751.5L-7.5,753L-12,757.5L-12,758.5L-13.5,760"/>
            </g>
        </g>
        <g transform="matrix(1,0,0,1,702,0)">
            <g transform="matrix(1,0,0,1,-251.947,248.14)">
                <path d="M-31,748.5L-36.5,748L-37.5,749L-38.5,748L-39.5,749L-44.5,749L-45.5,750L-46.5,749L-47.5,749L-48,748.5L-47,747.5L-47,746.5L-45.5,745L-32,743.25L-29,743.625L-27.25,744.25L-27,746.5L-28.5,748L-31,748.5"/>
            </g>
        </g>
        <g transform="matrix(1,0,0,1,702,0)">
            <g transform="matrix(1,0,0,1,-251.947,248.14)">
                <path d="M-77.5,761L-79.75,759.75L-81.75,750L-84.5,743L-84.75,739.25L-82.5,739L-80,736.5L-79.75,735.25L-77.25,735.25L-76.75,737.75L-75.5,738L-74.5,737L-73.5,738L-63.5,737L-62,738.5L-62,739.5L-61,740.5L-63.5,743L-76.875,743L-77,748.5L-75,750.5L-75,756.5L-76,757.5L-75,758.5L-77.5,761"/>
            </g>
        </g>
        <g transform="matrix(1,0,0,1,702,0)">
            <g transform="matrix(1,0,0,1,-251.947,248.14)">
                <path d="M-120,758.875L-121.5,759L-123,757.5L-122,754.5L-120.5,753L-119.5,754L-102,753.875L-100.25,754.25L-100,756.5L-101.5,758L-120,758.875"/>
            </g>
        </g>
        <g transform="matrix(1,0,0,1,702,0)">
            <g transform="matrix(1,0,0,1,-251.947,248.14)">
                <path d="M-99,749.25L-118.5,751L-120,749.5L-120,748.5L-121,747.5L-119.5,746L-108,746.5L-102,745.375L-99,745.625L-97.25,746.25L-97.25,748.75L-99,749.25"/>
            </g>
        </g>
        <g transform="matrix(1,0,0,1,702,0)">
            <g transform="matrix(1,0,0,1,-251.947,248.14)">
                <path d="M-144.5,774L-146.75,770.5L-144.375,762L-143.5,760L-143,758.5L-142,757.5L-143.5,756L-146.5,755L-153.5,748L-155.875,747.75L-155.875,742.25L-154.5,742L-153.5,741L-151,743.5L-150.75,744.75L-149.25,745.25L-149,746.5L-145.5,750L-144.5,750L-142.5,752L-140.5,752L-139,750.5L-138.5,749L-136,744.5L-133.5,742L-132.5,743L-131.5,742L-131,742.5L-130.5,744L-130.375,746L-133,752.5L-134.5,754L-135.75,754.25L-138.5,761L-139,763.5L-141,765.5L-141,766.5L-140,767.5L-141,768.5L-142.25,772.75L-143.5,773L-144.5,774"/>
            </g>
        </g>
        <g transform="matrix(1,0,0,1,702,0)">
            <g transform="matrix(1,0,0,1,-222.307,246.663)">
                <path d="M-278.125,762.75L-281.75,761.75L-282.5,760L-282.625,758L-282,754.5L-280.5,753L-278,755.5L-278.125,762.75"/>
            </g>
        </g>
        <g transform="matrix(1,0,0,1,702,0)">
            <g transform="matrix(1,0,0,1,-222.307,246.663)">
                <path d="M-278.125,739.75L-281.75,739.75L-282.25,738L-283,732.5L-278.5,728L-277.5,728L-276,729.5L-276,731.5L-278,733.5L-278.125,739.75"/>
            </g>
        </g>
        <g transform="matrix(1,0,0,1,702,0)">
            <g transform="matrix(1,0,0,1,-222.307,246.663)">
                <path d="M-133,857.375L-135.5,858L-137.5,856L-138.5,856L-141,853.5L-140,850.5L-142.5,848L-143,848.5L-143,849.5L-145.5,852L-147,851.75L-180.5,851L-182.5,853L-184.75,852.75L-185,850.5L-182.5,848L-181,847.5L-179,847.125L-159,848.5L-146.5,847L-145,845.5L-147.5,843L-148.75,842.75L-149.25,841.25L-150.5,841L-152,839.5L-154,836.5L-162.5,825L-164,822.5L-171.5,815L-172.5,815L-181,806.5L-182.5,804L-185.5,800L-187,797.5L-188.5,796L-194,792.5L-198,790.5L-215.5,776L-225.5,769L-228,766.5L-228.25,765.25L-236.5,760L-238.5,759L-241,756.5L-241,755.5L-243.5,753L-245,752.5L-251,749.5L-252.75,748.75L-253,747.5L-258.5,742L-263.5,739L-269,733.5L-269.25,732.25L-270.5,732L-274,728.5L-274.25,727.25L-279.5,724L-283,720.5L-283,719.5L-284,718.5L-282.5,717L-279.5,717L-277.5,719L-275,720.5L-258.5,735L-255.5,737L-253.25,738.25L-253,739.5L-247.5,745L-246.5,745L-244.5,747L-242.5,747L-240.5,749L-239.5,749L-238,750.5L-238,751.5L-235.5,754L-233.5,755L-230.5,757L-223.25,762.25L-223,763.5L-221.5,765L-219,766.5L-199.5,782L-195.5,786L-193.5,786L-191.5,788L-186.5,791L-182,795.5L-180.5,798L-178,801.5L-177,803.5L-169.5,811L-168.5,811L-160,819.5L-159.5,821L-147.75,836.75L-146.25,837.25L-145.75,838.75L-144.5,839L-136,847.5L-131.625,854L-131.25,856.75L-133,857.375"/>
            </g>
        </g>
        <g transform="matrix(1,0,0,1,702,0)">
            <g transform="matrix(1,0,0,1,-71.8462,-6.70251)">
                <path d="M162.75,1125L150,1125.88L148.125,1126.25L149,1133.5L150,1134.5L149,1135.5L148.75,1138.75L145.5,1139L144,1137.5L143,1121.13L161.5,1120L163,1121.5L162.75,1125"/>
            </g>
        </g>
        <g transform="matrix(1,0,0,1,702,0)">
            <g transform="matrix(1,0,0,1,-71.8462,-6.70251)">
                <path d="M126.5,1105L122.25,1104.88L122,1103.5L121,1102.5L123.5,1100L126.5,1100L128,1101.5L128,1103.5L126.5,1105"/>
            </g>
        </g>
        <g transform="matrix(1,0,0,1,702,0)">
            <g transform="matrix(1,0,0,1,-71.8462,-6.70251)">
                <path d="M103.5,1105L98.25,1104.88L98,1102.5L100.5,1100L103.75,1101.25L104,1102.5L105,1103.5L103.5,1105"/>
            </g>
        </g>
        <g transform="matrix(1,0,0,1,702,0)">
            <g transform="matrix(1,0,0,1,-71.8462,-6.70251)">
                <path d="M136.5,1104L135.5,1101.5L136,1099.5L138.5,1097L141.5,1097L144,1099.5L143,1100.5L142.75,1101.75L137.5,1103L136.5,1104"/>
            </g>
        </g>
        <g transform="matrix(1,0,0,1,702,0)">
            <g transform="matrix(1,0,0,1,-71.8462,-6.70251)">
                <path d="M82,1104.25L77.5,1105L76,1103.5L77.25,1100.13L82.5,1100L84,1101.5L83.75,1103.75L82,1104.25"/>
            </g>
        </g>
        <g transform="matrix(1,0,0,1,702,0)">
            <g transform="matrix(1,0,0,1,-71.8462,-6.70251)">
                <path d="M63,1103.5L61.5,1104L60.5,1103L59.5,1104L57.5,1104L56,1102.5L56,1101.5L58.5,1099L62.5,1099L65,1101.5L64.75,1102.75L63,1103.5"/>
            </g>
        </g>
        <g transform="matrix(1,0,0,1,702,0)">
            <g transform="matrix(1,0,0,1,-71.8462,-6.70251)">
                <path d="M39.5,1104L37.25,1102.75L37.25,1099.25L41.5,1098L43,1099.5L42,1100.5L42,1101.5L39.5,1104"/>
            </g>
        </g>
        <g transform="matrix(1,0,0,1,702,0)">
            <g transform="matrix(1,0,0,1,-71.8462,-6.70251)">
                <path d="M25,1142.25L14.5,1142L11,1138.5L10.75,1137L10.625,1130L11,1127.5L13.5,1125L18,1122.63L22,1121.5L25,1121.5L28.5,1122L32,1125.5L33,1128.5L34,1129.5L33,1130.5L33,1137.5L29.5,1141L25,1142.25M26.5,1136L28,1134.5L27,1128.5L25.5,1127L19.5,1128L17.5,1130L16.25,1130.25L15.625,1132L15,1135.5L16.5,1137L20.5,1138L21.5,1137L22.5,1138L23.5,1137L26.5,1136"/>
            </g>
        </g>
        <g transform="matrix(1,0,0,1,702,0)">
            <g transform="matrix(1,0,0,1,-71.8462,-6.70251)">
                <path d="M28.5,1105L24.5,1104L23,1102.5L23.25,1100.25L25.5,1100L26,1099.5L25,1098.5L25,1096.5L27,1094.5L27,1093.5L29.5,1091L30.5,1091L32,1092.5L31,1093.5L29,1097.5L31,1099.5L29,1101.5L29,1102.5L30,1103.5L28.5,1105"/>
            </g>
        </g>
        <g transform="matrix(1,0,0,1,702,0)">
            <g transform="matrix(1,0,0,1,-71.8462,-6.70251)">
                <path d="M28.75,1068.75L27.5,1069L26,1067.5L26.75,1060L26.5,1058L25.5,1056L25,1054.5L26.5,1053L29,1055.5L29.25,1057L29.5,1067L28.75,1068.75"/>
            </g>
        </g>
        <g transform="matrix(1,0,0,1,702,0)">
            <g transform="matrix(1,0,0,1,-71.8462,-6.70251)">
                <path d="M27.875,1037.75L24.5,1037L23,1035.5L24,1034.5L25.25,1031.25L27.875,1031.25L27.875,1037.75"/>
            </g>
        </g>
        <g transform="matrix(1,0,0,1,702,0)">
            <g transform="matrix(1,0,0,1,-62.7038,0.918656)">
                <path d="M142.5,1016L140.5,1016L139,1014.5L139,1013.5L138,1012.5L139,1011.5L139.5,1008L141.375,1003L142,1000.5L143,999.5L133,989.5L132.75,988.25L129.125,987.75L129,983.5L130.5,982L132.5,982L134,983.5L134,984.5L143.5,994L144.75,993.75L145,991.5L152.5,984L154.5,984L157,986.5L156,987.5L155.75,988.75L154.25,989.25L154,991.5L152,993.5L148.5,999L146.625,1003L145.5,1007L145,1010.5L146,1011.5L145,1012.5L145,1013.5L142.5,1016"/>
            </g>
        </g>
        <g transform="matrix(1,0,0,1,702,0)">
            <g transform="matrix(1,0,0,1,-71.8462,-6.70251)">
                <path d="M159.75,1107.75L154.25,1106.75L154,1105.5L153,1104.5L154,1103.5L153.375,1101L152.625,1099L148.5,1084L148,1080.5L146,1078.5L145.5,1076L140.625,1063L140,1060.5L138,1058.5L138,1057.5L136.5,1056L135.25,1055.75L134,1053.5L128.5,1045L127.5,1043L124,1037.5L115.5,1029L99.5,1016L96,1013.5L85,1007.63L80,1005.5L72,1000.5L51,991.625L48.5,991L46.5,989L45,988.5L43,987.625L40.5,987L38.5,985L37,984.5L32,982.5L23,980.5L16.5,980L15,978.5L15.25,975.125L22,975.5L30,976.75L33,977.5L38,979.375L40.5,980L42.5,982L46.5,983L48.5,985L51,985.625L66,991.5L89,1003.38L91.5,1004L93.5,1006L95,1006.5L100,1009.5L103.5,1012L109,1016.5L112.5,1019L115,1021.5L115.25,1022.75L116.75,1023.25L117.25,1024.75L125.75,1031.25L126.5,1033L131.5,1040L133.5,1044L143,1056.5L144.375,1059L145,1061.5L147,1063.5L147.5,1067L149.625,1073L153.375,1082L157.625,1098L160.5,1104L160.5,1106L159.75,1107.75"/>
            </g>
        </g>
    </g>
</svg>
