<?xml version="1.0" encoding="UTF-8" standalone="no"?>
<!DOCTYPE svg PUBLIC "-//W3C//DTD SVG 1.1//EN" "http://www.w3.org/Graphics/SVG/1.1/DTD/svg11.dtd">
<svg width="100%" height="100%" viewBox="0 0 765 726" version="1.1" xmlns="http://www.w3.org/2000/svg" xmlns:xlink="http://www.w3.org/1999/xlink" xml:space="preserve" xmlns:serif="http://www.serif.com/" style="fill-rule:evenodd;clip-rule:evenodd;stroke-linejoin:round;stroke-miterlimit:2;">
    <g transform="matrix(1,0,0,1,-297.902,-408.669)">
        <g transform="matrix(1,0,0,0.986924,0,14.8354)">
            <rect x="297.902" y="399.052" width="764.863" height="735.479" style="fill:rgb(235,235,235);"/>
        </g>
        <g transform="matrix(1,0,0,1,702,0)">
            <path d="M187.5,943L184.25,941.75L184,939.5L185.5,938L187.5,938L189,939.5L189,941.5L187.5,943"/>
        </g>
        <g transform="matrix(1,0,0,1,702,0)">
            <path d="M184.5,930L183.25,929.75L183.625,926L184,924.5L185.5,923L186.875,923.25L187,927.5L184.5,930"/>
        </g>
        <g transform="matrix(1,0,0,1,702,0)">
            <path d="M187.75,910.75L185.5,911L183,908.5L183,906.5L184.5,905L188.75,905.125L188.625,907L187.75,910.75"/>
        </g>
        <g transform="matrix(1,0,0,1,702,0)">
            <path d="M172.5,910L170.5,909L169,907.5L169.25,906.25L171,905.5L173,905.5L174.75,906.25L174.75,908.75L173.5,909L172.5,910"/>
        </g>
        <g transform="matrix(1,0,0,1,702,0)">
            <path d="M160.75,908.875L155.25,908.875L155,906.5L156.5,905L160.75,906.25L160.75,908.875"/>
        </g>
        <g transform="matrix(1,0,0,1,702,0)">
            <path d="M142,908.375L138.25,908.75L138,906.5L139.5,905L142.5,905L144,906.5L143.75,907.75L142,908.375"/>
        </g>
        <g transform="matrix(1,0,0,1,702,0)">
            <path d="M99.5,909L97,906.5L97.5,906L103.75,905.125L104,906.5L102.5,908L100.5,908L99.5,909"/>
        </g>
        <g transform="matrix(1,0,0,1,702,0)">
            <path d="M84.5,909L83.5,909L82,907.5L82.25,905.25L84.5,905L86,906.5L86,907.5L84.5,909"/>
        </g>
        <g transform="matrix(1,0,0,1,702,0)">
            <path d="M115.5,909L113,906L115.5,903L116.5,903L118,904.5L118,906.5L115.5,909"/>
        </g>
        <g transform="matrix(1,0,0,1,702,0)">
            <path d="M53.5,911L47.25,910.875L47,909.5L49.5,907L53.5,907L55,908.5L55,909.5L53.5,911"/>
        </g>
        <g transform="matrix(1,0,0,1,702,0)">
            <path d="M19.75,910.75L16,910.5L13.25,909.75L13,908.5L14.5,907L18.5,907L20,908.5L19.75,910.75"/>
        </g>
        <g transform="matrix(1,0,0,1,702,0)">
            <path d="M72.75,910.875L65.25,910.875L65,909.5L64,908.5L65,907.5L65.25,906.25L67,906.5L69,907.375L71.5,908L73,909.5L72.75,910.875"/>
        </g>
        <g transform="matrix(1,0,0,1,702,0)">
            <path d="M34,910.5L31.5,911L30,909.5L32.5,907L34,906.625L37.5,906L39,907.5L39,908.5L37.5,910L34,910.5"/>
        </g>
        <g transform="matrix(1,0,0,1,702,0)">
            <path d="M-35.5,913L-40.75,912.875L-40.75,910.25L-39,909.5L-37,909.5L-35.5,910L-34,911.5L-35.5,913"/>
        </g>
        <g transform="matrix(1,0,0,1,702,0)">
            <path d="M3,911.5L-0.5,912L-2,910.5L-2,909.5L-0.5,908L4.5,908L6,909.5L5.75,910.75L3,911.5"/>
        </g>
        <g transform="matrix(1,0,0,1,702,0)">
            <path d="M-18.5,913L-19.5,913L-21,911.5L-20,910.5L-20,909.5L-18.5,908L-14.5,907L-12,909.5L-12.25,910.875L-16.5,911L-18.5,913"/>
        </g>
        <g transform="matrix(1,0,0,1,702,0)">
            <path d="M-78.5,964L-79.5,964L-81,962.5L-80,961.5L-79.75,958.25L-78.5,958L-77,959.5L-77,962.5L-78.5,964"/>
        </g>
        <g transform="matrix(1,0,0,1,702,0)">
            <path d="M-77.125,945.75L-79.875,945.75L-79.375,941L-77.75,935.25L-76.5,935L-75,936.5L-76.375,941L-77.125,945.75"/>
        </g>
        <g transform="matrix(1,0,0,1,702,0)">
            <path d="M-75.25,932.75L-76.5,933L-79,930.5L-78.375,927L-78,925.5L-76.5,924L-75,925.5L-75.625,928L-75.625,930L-75.25,932.75"/>
        </g>
        <g transform="matrix(1,0,0,1,702,0)">
            <path d="M-57.5,913L-62.75,911.875L-63,910.5L-60.5,908L-56.5,908L-55,909.5L-55.25,911.75L-56.5,912L-57.5,913"/>
        </g>
        <g transform="matrix(1,0,0,1,702,0)">
            <path d="M-75,915.5L-76.5,916L-78,914.5L-78.375,913L-78.375,910L-78,908.5L-76.5,907L-75.25,907.25L-74.75,910.75L-73.25,911.25L-73.25,914.75L-75,915.5"/>
        </g>
        <g transform="matrix(1,0,0,1,702,0)">
            <path d="M-132.5,954L-134.5,953L-136,951.5L-136,949.5L-134.5,948L-130.25,949.25L-130,951.5L-132.5,954"/>
        </g>
        <g transform="matrix(1,0,0,1,702,0)">
            <path d="M305.5,855L302.5,854L301,852.5L300,845.5L300,845L299,845.5L296.5,850L296,851.5L294.5,853L291.5,853L289,850.5L289,848.5L287,846.5L287,840.5L288.5,839L290.75,839.25L292.25,843.75L293.75,843.75L294,842.5L297.5,839L299,838.625L302.5,838L305,840.5L305.375,842L306.5,845L307.5,849L308,852.5L305.5,855"/>
        </g>
        <g transform="matrix(1,0,0,1,702,0)">
            <path d="M187.5,897L185,894.5L185.25,892.25L188.75,892.25L189,893.5L190,894.5L187.5,897"/>
        </g>
        <g transform="matrix(1,0,0,1,702,0)">
            <path d="M186.5,879L185,877.5L185.25,874.125L189.75,874.125L190,875.5L186.5,879"/>
        </g>
        <g transform="matrix(1,0,0,1,702,0)">
            <path d="M187,854.375L183.5,855L182,853.5L182,852.5L184.5,850L187.5,850L189,851.5L188.75,853.75L187,854.375"/>
        </g>
        <g transform="matrix(1,0,0,1,702,0)">
            <path d="M186.5,841L180.25,840.875L180,838.5L181.5,837L186,837.75L187.75,838.25L188,839.5L186.5,841"/>
        </g>
        <g transform="matrix(1,0,0,1,702,0)">
            <path d="M-74.5,901L-76.5,901L-78,899.5L-77.75,896.25L-75.5,897L-73.25,898.25L-73,899.5L-74.5,901"/>
        </g>
        <g transform="matrix(1,0,0,1,702,0)">
            <path d="M-72.5,882L-74.25,879.5L-74.25,874L-73.75,872.25L-72.25,872.25L-72,873.5L-71,874.5L-72,875.5L-71.625,877L-71,880.5L-72.5,882"/>
        </g>
        <g transform="matrix(1,0,0,1,702,0)">
            <path d="M-72.5,870L-75,867.5L-76,861.5L-74.5,860L-73.5,860L-72,861.5L-71,868.5L-72.5,870"/>
        </g>
        <g transform="matrix(1,0,0,1,702,0)">
            <path d="M283.5,854L279.5,854L276,850.5L274.5,845L274.5,841L276,835.5L277.5,834L278.5,834L280,835.5L279.5,844L280,847.5L281.5,849L284.75,850.25L285,852.5L283.5,854"/>
        </g>
        <g transform="matrix(1,0,0,1,702,0)">
            <path d="M282.75,827.875L278.25,827.875L277.625,826L277.25,823.25L281.5,822L284,824.5L282.75,827.875"/>
        </g>
        <g transform="matrix(1,0,0,1,702,0)">
            <path d="M268,852.5L266.5,853L263,849.5L262.25,843L261.75,841.25L260.5,841L259,842.5L258,850.5L255.5,853L253.5,853L252,851.5L252,850.5L250,848.5L249,843.5L247.5,842L246.125,842.25L246,849.5L247,850.5L246,851.5L246,854.5L244.5,856L242.5,856L240,853.5L238.125,838.25L239.5,838L240.5,837L241.5,838L244.5,835L248.5,834L252,837.5L252,838.5L253.5,840L257.5,836L259,835.5L261,834.625L264.5,834L266,835.5L266,836.5L268,838.5L268,846.75L270.75,847.25L271,848.5L272,849.5L269.5,852L268,852.5"/>
        </g>
        <g transform="matrix(1,0,0,1,702,0)">
            <path d="M226,856.25L217,856.25L212,853.5L210.5,853L209,851.5L209,849.5L210.5,848L214.5,848L216.5,850L218,850.375L221,851.5L225,851.5L227.875,850.75L227,838.5L225,836.5L224.75,835.25L223,834.75L217,834.5L211.5,836L209,833.5L208.125,819L208.5,817L209,815.5L209.5,815L210.5,816L225.75,815.25L226,816.5L227,817.5L224.5,820L213,821.125L213,829.5L214.5,831L215.5,830L224.5,830L226.5,832L227.5,832L230,834.5L231.25,839L232.5,846L232.375,851L232,853.5L230.5,855L226,856.25"/>
        </g>
        <g transform="matrix(1,0,0,1,702,0)">
            <path d="M188.875,827.75L187.5,828L185,825.5L184.625,824L184.25,821.25L187.5,821L189,822.5L188.875,827.75"/>
        </g>
        <g transform="matrix(1,0,0,1,702,0)">
            <path d="M190.75,807.75L187,807.5L182.25,805.75L182.25,802.25L184,801.5L188,799.625L191.75,799.25L192,801.5L190.5,803L189.5,803L189,803.5L191,805.5L190.75,807.75"/>
        </g>
        <g transform="matrix(1,0,0,1,702,0)">
            <path d="M194.5,786L191.5,786L190,784.5L190,780.5L191.5,779L192.75,779.25L194.25,782.75L195.75,783.25L196,784.5L194.5,786"/>
        </g>
        <g transform="matrix(1,0,0,1,702,0)">
            <path d="M-72.5,835L-74.75,834.75L-75,832.5L-73.5,831L-72.5,831L-71,832.5L-71,833.5L-72.5,835"/>
        </g>
        <g transform="matrix(1,0,0,1,702,0)">
            <path d="M-73.125,822.75L-75.875,822.75L-76,818.5L-74.5,817L-73.125,817.25L-73.125,822.75"/>
        </g>
        <g transform="matrix(1,0,0,1,702,0)">
            <path d="M-71.5,808L-73.75,806.75L-74,805.5L-72.5,804L-71.5,804L-70,805.5L-70,806.5L-71.5,808"/>
        </g>
        <g transform="matrix(1,0,0,1,702,0)">
            <path d="M-69.125,797.75L-71.5,798L-73,796.5L-72,793.5L-70.5,792L-69,793.5L-69.125,797.75"/>
        </g>
        <g transform="matrix(1,0,0,1,702,0)">
            <path d="M-68.5,784L-71,781.5L-71,779.5L-68.5,777L-66.25,777.25L-66.5,780L-67,782.5L-68.5,784"/>
        </g>
        <g transform="matrix(1,0,0,1,702,0)">
            <path d="M193.5,766L191.5,766L190,764.5L190,758.5L193.5,755L195,756.5L195,757.5L196,758.5L195,759.5L195,764.5L193.5,766"/>
        </g>
        <g transform="matrix(1,0,0,1,702,0)">
            <path d="M151.5,758L146.5,757L145,755.5L146.5,754L152.5,754L154,755.5L151.5,758"/>
        </g>
        <g transform="matrix(1,0,0,1,702,0)">
            <path d="M169.5,760L167.25,758.75L167.5,756L168.25,753.25L170,752.625L173,752.625L174.5,753L177,755.5L176.75,757.75L175.5,758L174.5,759L172.5,757L169.5,760"/>
        </g>
        <g transform="matrix(1,0,0,1,702,0)">
            <path d="M160.5,758L156.5,757L154,754.5L154,753.5L155.5,752L159.5,754L162,756.5L160.5,758"/>
        </g>
        <g transform="matrix(1,0,0,1,702,0)">
            <path d="M189.875,756.75L187.5,757L185,754.5L185,753.5L187.5,751L188.5,752L189.875,752.25L189.875,756.75"/>
        </g>
        <g transform="matrix(1,0,0,1,702,0)">
            <path d="M142.75,756.875L137.25,756.875L136.625,755L136.25,752.25L138.5,752L140.5,754L142.75,754.25L142.75,756.875"/>
        </g>
        <g transform="matrix(1,0,0,1,702,0)">
            <path d="M-69.5,774L-70.5,774L-72,772.5L-72.5,771L-72.75,769.25L-71.5,769L-70.5,768L-69.5,769L-68.25,769.25L-68,772.5L-69.5,774"/>
        </g>
        <g transform="matrix(1,0,0,1,702,0)">
            <path d="M-134.5,724L-136.25,721.5L-140,706.5L-140.5,706L-142,707.5L-144,711.5L-146,713.5L-146,715.5L-147.5,717L-150.75,716.75L-152,711.5L-154,709.5L-153.75,707.25L-151,707.5L-148.5,708L-147,706.5L-145,702.5L-142.5,700L-139,700.625L-137.25,701.25L-134.625,706L-131.5,717L-131,721.5L-132.5,723L-133.5,723L-134.5,724"/>
        </g>
        <g transform="matrix(1,0,0,1,702,0)">
            <path d="M-159.5,719L-162.75,718.75L-165.5,712L-165.75,709L-165,701.5L-163.5,700L-161.25,700.25L-161,703.5L-160,704.5L-161,705.5L-160.25,713L-159.75,714.75L-158.25,715.25L-158,717.5L-159.5,719"/>
        </g>
        <g transform="matrix(1,0,0,1,702,0)">
            <path d="M-164.5,695L-167.5,694L-169,692.5L-169,691.5L-167.5,690L-164.5,690L-163,691.5L-163,693.5L-164.5,695"/>
        </g>
        <g transform="matrix(1,0,0,1,702,0)">
            <path d="M-172,718.25L-176.5,719L-178,717.5L-178.25,716L-178,705.5L-179.5,704L-180.5,704L-183,706.5L-183,711.5L-185.5,714L-187.5,714L-189,712.5L-190,709.5L-189,708.5L-190,707.5L-190,705.5L-191.5,704L-193,705.5L-194,713.5L-195.5,715L-197.5,715L-199,713.5L-201.75,704L-202,702.5L-199.5,700L-198.25,700.25L-198,701.5L-197.5,702L-194.5,699L-193,698.625L-189,698.625L-187.5,699L-185.5,701L-182.5,698L-175.5,697L-174,698.5L-174,711.5L-172.5,713L-169.5,712L-167,714.5L-170.5,718L-172,718.25"/>
        </g>
        <g transform="matrix(1,0,0,1,702,0)">
            <path d="M-216.5,716L-221.5,715L-223.5,713L-224.5,713L-229,708.5L-229,706.5L-226.5,704L-222.5,704L-221,705.5L-221,708.5L-219.5,710L-218.5,710L-217.5,711L-216.5,710L-215.5,711L-214.5,710L-210.5,709L-209,707.5L-208.75,706L-208.625,699L-209.25,696.25L-211,695.875L-225.5,695L-227,693.5L-227.375,692L-227.375,689L-226.625,687L-226,684.5L-224,682.5L-223.875,678.25L-219.5,677L-217.5,675L-201,675.625L-199.25,676.25L-199.5,678L-200.25,679.75L-202,680.125L-218.75,681L-221.375,686L-222.625,689L-222.75,690.875L-212,690.75L-207.5,692L-204,695.5L-203.625,706L-205,710.5L-207.5,713L-211,714.25L-215.5,715L-216.5,716"/>
        </g>
        <g transform="matrix(1,0,0,1,702,0)">
            <path d="M51,627.375L48.5,628L47,626.5L46,617.5L44.5,616L43.5,616L42,617.5L41.375,623L40.75,625.75L37.25,625.75L35.5,619L35.125,614.25L38.5,614L41.5,611L46.5,611L50,614.5L51,622.5L53,624.5L52.75,626.75L51,627.375"/>
        </g>
        <g transform="matrix(1,0,0,1,702,0)">
            <path d="M25.75,624.75L23.5,625L22,623.5L21.5,621L21.75,616.25L19.125,615.75L19,611.5L20.5,610L22.5,610L26,613.5L26,621.5L27,622.5L26,623.5L25.75,624.75"/>
        </g>
        <g transform="matrix(1,0,0,1,702,0)">
            <path d="M20.5,609L18.625,606.5L18,603.5L19.5,602L22.75,602.25L23,603.5L24,604.5L23,605.5L23,606.5L20.5,609"/>
        </g>
        <g transform="matrix(1,0,0,1,702,0)">
            <path d="M11.5,628L9.5,628L8,626.5L6.875,617.25L5,617.375L2.5,618L1,619.5L1,624.5L-0.5,626L-3.5,626L-5,624.5L-5.5,623L-7.5,619L-8.25,617.25L-9.875,617.25L-9,625.5L-11.5,628L-15,624.5L-15,622.5L-15.5,622L-16.5,623L-18,621.5L-17,617.5L-14.5,615L-13.5,615L-10.5,612L-5.25,612.125L-4,615.5L-3.5,616L-1.5,614L3,612.75L10.5,612L12,613.5L12,615.5L13,616.5L12,617.5L12.5,619L12.625,621L12,623.5L14,625.5L11.5,628"/>
        </g>
        <g transform="matrix(1,0,0,1,702,0)">
            <path d="M-37,630.5L-48.75,629.75L-49.375,628L-49.75,625.25L-46,623.625L-42.5,623L-41,624.5L-40.75,625.75L-37.5,626L-36.5,625L-35.5,626L-34.5,625L-30.25,624.875L-30.5,621L-31,618.5L-32.5,617L-33.5,618L-34.5,617L-37,617.375L-42,618.625L-44.5,619L-47,616.5L-48,610.5L-47,609.5L-48,608.5L-48,604.5L-46.5,603L-45.5,603L-43.5,601L-42.5,602L-34,601.25L-26,599.5L-22.25,599.25L-22,600.5L-21,601.5L-23.5,604L-29.5,605L-30.5,606L-31.5,605L-32.5,606L-42.5,606L-44,607.5L-42.875,613.75L-41,613.75L-36,612.5L-32,612.5L-29.5,613L-27,615.5L-25.625,620L-25,624.5L-24,625.5L-25,626.5L-25,627.5L-26.5,629L-37,630.5"/>
        </g>
        <g transform="matrix(1,0,0,1,702,0)">
            <path d="M232.5,507L229.5,507L228,505.5L228.75,500L228.75,498L228,493.5L227.5,493L225,495.5L224,500.5L221.5,503L220.5,503L218,500.5L217,489.5L219.5,487L220.5,488L221.75,488.25L222,489.5L222.5,490L223.5,489L225.5,488L228,487.375L230.5,488L232,489.5L233.125,493L234,505.5L232.5,507M222,492L222,491L221,491L221,492L222,492"/>
        </g>
        <g transform="matrix(1,0,0,1,702,0)">
            <path d="M211.5,509L209.5,509L207,506.5L206.625,504L204.75,496.25L202.25,495.75L202,492.5L204.5,490L208.5,492L210,493.5L210.25,495L213,504.5L214,505.5L213,506.5L213,507.5L211.5,509"/>
        </g>
        <g transform="matrix(1,0,0,1,702,0)">
            <path d="M198.5,506L194.25,504.75L191.5,498L191,495.5L190.5,495L189,496.5L188,502.5L185.5,505L182.5,505L180,502.5L179,495.5L179,495L178,495.5L177,502.5L174.5,505L173.5,505L171,502.5L170.5,500L169.5,497L169.625,493L170.25,491.25L172.5,491L173.5,492L175.5,490L176.5,490L178.5,488L182.5,488L184.5,490L189,488.625L193.5,488L195,489.5L195.5,491L197.5,496L198,498.5L201,501.5L200,504.5L198.5,506"/>
        </g>
        <g transform="matrix(1,0,0,1,702,0)">
            <path d="M204.5,489L200.25,486.75L200,483.5L202.5,481L203.5,482L204.5,482L206,483.5L206,487.5L204.5,489"/>
        </g>
        <g transform="matrix(1,0,0,1,702,0)">
            <path d="M155,507.375L142.5,506L137,499.5L136,498.5L135.75,497L135.625,492L136.5,489L137.625,486L138,484.5L141,481.5L158,471.5L165,469.5L168,469.625L169.75,470.25L170,472.5L168,474.5L149.5,481L144,486.5L144.5,487L147.5,487L148.5,486L149.5,487L150.5,486L155.5,486L157.5,488L158.5,488L162,491.5L163,495.5L164,496.5L163,497.5L162.25,503L161.75,504.75L155,507.375M151,499.5L156.75,497.75L156.375,495L155.75,493.25L153.5,493L152.5,492L151.5,493L150.5,492L147,492.625L145.5,493L143.259,493.302L141.5,495L141,495.5L143.5,498L145,498.5L147,499.375L151,499.5"/>
        </g>
        <g transform="matrix(1,0,0,1,702,0)">
            <path d="M-359,471.75L-360.5,472L-363,469.5L-360.5,467L-359,466.5L-357,465.625L-340.25,464.875L-340.25,462L-353.75,462.75L-354,461.5L-355,460.5L-354,459.5L-353.5,458L-347.5,445L-347,443.5L-349,441.5L-346.5,439L-342.5,439L-341,440.5L-342,441.5L-341.5,446L-340.375,450L-338.625,454L-337.625,457L-336,465.5L-335.5,466L-334.5,465L-333.5,466L-326.25,465.875L-327,438.5L-326,437.5L-327,436.5L-326,435.5L-326.25,432.25L-357.75,432L-357,461.5L-359.5,464L-362,461.5L-361.625,436L-363,430.5L-361.5,429L-360,428.75L-330,428.25L-326,427.5L-320.25,427.125L-320,429.5L-322,431.5L-322,439.5L-323,440.5L-322,441.5L-323,442.5L-322.75,467L-323,468.5L-324.5,470L-345,469.375L-359,471.75M-341.25,458.875L-341,456.5L-343,454.5L-344,448.5L-344.5,448L-346,449.5L-346.375,451L-348.375,456L-348.75,458.75L-347.5,459L-346.5,458L-345.5,459L-341.25,458.875"/>
        </g>
        <g transform="matrix(1,0,0,1,702,0)">
            <path d="M285.5,1094L279,1093.38L269,1089.75L264.25,1088.88L264.25,1086.25L267.75,1084.75L267.625,1082L265.75,1073.25L262.5,1072L261,1070.5L261,1069.5L262.5,1068L271,1065.5L276,1065.75L279.5,1067L283,1070.5L283,1071.5L284,1072.5L283,1073.5L284,1074.5L281,1077.5L282.5,1079L285.5,1080L288,1082.5L289,1090.5L285.5,1094M283.5,1090L285,1088.5L285,1085.5L283.5,1084L282.5,1084L280.5,1082L273.25,1080.75L273,1079.5L272,1078.5L274.5,1076L277.5,1075L279,1073.5L279,1072.5L276.5,1070L269.25,1070.13L269.375,1073L272.25,1086.75L280,1089.5L283.5,1090"/>
        </g>
        <g transform="matrix(1,0,0,1,702,0)">
            <path d="M301,1112.38L292,1112.25L287,1110.75L280,1110.75L278.5,1111L277.5,1110L276.5,1111L270,1110.38L264,1108.75L255.5,1108L254,1106.5L254,1104.5L255.5,1103L257,1102.63L261,1102.5L269,1104.13L290,1105.88L292,1106.25L300,1106.38L305.5,1105L306,1104.5L305,1103.5L306,1083.5L305,1082.5L306,1081.5L305,1080.5L306,1079.5L306,1073.5L307,1072.5L306,1071.5L307,1070.5L307,1061.5L305.5,1060L255.5,1059L254.5,1058L254,1058.5L253.5,1062L253.75,1067L254.375,1069L254.25,1074L255.5,1081L255,1098.5L253.5,1100L251.5,1100L250,1098.5L249.5,1069L248.25,1063L248.625,1059L248,1056.5L249.5,1055L261,1053.5L308.5,1055L311,1057.5L312,1061.5L313,1062.5L312,1063.5L310,1094.5L309,1095.5L310,1096.5L310,1108.5L308.5,1110L307.5,1110L305.5,1112L301,1112.38"/>
        </g>
        <g transform="matrix(1,0,0,1,702,0)">
            <path d="M184.5,1053L183.25,1052.75L183,1049.5L184.5,1048L187,1050.5L184.5,1053"/>
        </g>
        <g transform="matrix(1,0,0,1,702,0)">
            <path d="M110.75,1061.75L107.25,1061.75L107,1059.5L108.5,1058L110.5,1058L112,1059.5L111,1060.5L110.75,1061.75"/>
        </g>
        <g transform="matrix(1,0,0,1,702,0)">
            <path d="M93,1062.38L90.5,1063L88,1060.5L88,1059.5L89.5,1058L93.75,1058.13L94.5,1060L94.75,1061.75L93,1062.38"/>
        </g>
        <g transform="matrix(1,0,0,1,702,0)">
            <path d="M120.5,1063L119.5,1063L118,1061.5L118,1059.5L121.5,1056L123.75,1056.25L123.375,1059L123,1060.5L120.5,1063"/>
        </g>
        <g transform="matrix(1,0,0,1,702,0)">
            <path d="M76.75,1062.88L72.5,1063L71,1061.5L71,1060.5L72.5,1059L75.5,1059L77,1060.5L76.75,1062.88"/>
        </g>
        <g transform="matrix(1,0,0,1,702,0)">
            <path d="M51.5,1064L49.25,1060.75L52,1059.38L53.5,1059L56,1061.5L54.5,1063L52.5,1063L51.5,1064"/>
        </g>
        <g transform="matrix(1,0,0,1,702,0)">
            <path d="M33,1062.38L26.5,1062L24,1059.5L25.5,1058L29,1058.5L35,1058.63L36.75,1059.25L37,1060.5L35.5,1062L33,1062.38"/>
        </g>
        <g transform="matrix(1,0,0,1,702,0)">
            <path d="M-6,1062.75L-7.5,1063L-9,1061.5L-9,1060.5L-6.5,1058L-2,1058.75L-0.25,1059.25L0,1060.5L-1.5,1062L-6,1062.75"/>
        </g>
        <g transform="matrix(1,0,0,1,702,0)">
            <path d="M-20.25,1062.88L-24.5,1063L-27,1060.5L-27,1059.5L-25.5,1058L-21.5,1059L-20,1060.5L-20.25,1062.88"/>
        </g>
        <g transform="matrix(1,0,0,1,702,0)">
            <path d="M-40.5,1065L-42,1063.5L-42,1061.5L-43,1060.5L-41.5,1059L-40.5,1059L-39.5,1058L-38,1059.5L-37.5,1061L-37.25,1062.75L-38.5,1063L-40.5,1065"/>
        </g>
        <g transform="matrix(1,0,0,1,702,0)">
            <path d="M15,1061.63L13.5,1062L12.5,1061L11.5,1062L9.5,1062L8,1060.5L9,1059.5L9,1058.5L10.5,1057L18.75,1057L18.75,1060.75L15,1061.63"/>
        </g>
        <g transform="matrix(1,0,0,1,702,0)">
            <path d="M-49.25,1064.75L-56.75,1065.75L-56.375,1062L-55.75,1060.13L-51.5,1060L-49,1062.5L-49.25,1064.75"/>
        </g>
        <g transform="matrix(1,0,0,1,702,0)">
            <path d="M-72.5,1066L-74.75,1064.75L-75,1062.5L-76,1061.5L-74.5,1060L-71.5,1060L-70,1061.5L-70.25,1064.75L-71.5,1065L-72.5,1066"/>
        </g>
        <g transform="matrix(1,0,0,1,702,0)">
            <path d="M-78,1060.5L-79.5,1061L-81,1059.5L-81,1058.5L-83,1056.5L-82.75,1053.25L-79.5,1052L-76,1055.5L-76,1057.5L-77,1058.5L-76,1059.5L-76.5,1060L-78,1060.5"/>
        </g>
        <g transform="matrix(1,0,0,1,702,0)">
            <path d="M-80.25,1048.75L-82.5,1049L-84,1047.5L-83,1043.5L-81.5,1042L-80.25,1042.25L-80,1045.5L-81,1046.5L-80,1047.5L-80.25,1048.75"/>
        </g>
        <g transform="matrix(1,0,0,1,702,0)">
            <path d="M-78.125,1034.75L-79.5,1035L-81,1033.5L-81,1031.5L-79.5,1030L-78.125,1030.25L-78.125,1034.75"/>
        </g>
        <g transform="matrix(1,0,0,1,702,0)">
            <path d="M187.875,1027.75L184.25,1027.75L184.625,1024L185.25,1022.25L187.875,1022.25L187.875,1027.75"/>
        </g>
        <g transform="matrix(1,0,0,1,702,0)">
            <path d="M184.5,1009L183.5,1009L182,1007.5L182.125,1003.25L184.5,1003L186,1004.5L186,1007.5L184.5,1009"/>
        </g>
        <g transform="matrix(1,0,0,1,702,0)">
            <path d="M183.5,987L181.125,986.75L181.125,982.25L183.5,982L185,983.5L185,985.5L183.5,987"/>
        </g>
        <g transform="matrix(1,0,0,1,702,0)">
            <path d="M146.5,979L144.5,980L143,978.5L143,977.5L145.5,975L148.75,975.25L148.75,977.75L146.5,979"/>
        </g>
        <g transform="matrix(1,0,0,1,702,0)">
            <path d="M173.75,977.875L169.25,977.875L169.5,976L170.25,974.25L172.5,974L174,975.5L173.75,977.875"/>
        </g>
        <g transform="matrix(1,0,0,1,702,0)">
            <path d="M158.5,978L157.5,978L156,976.5L156.25,974.25L158.5,974L160,975.5L160,976.5L158.5,978"/>
        </g>
        <g transform="matrix(1,0,0,1,702,0)">
            <path d="M114,977.75L112.5,978L111,976.5L111.25,975.25L113.5,974L116,973.375L119.75,974.25L120,975.5L118.5,977L114,977.75"/>
        </g>
        <g transform="matrix(1,0,0,1,702,0)">
            <path d="M103.5,977L99.25,976.875L99,975.5L101.5,973L103.5,973L105,974.5L105,975.5L103.5,977"/>
        </g>
        <g transform="matrix(1,0,0,1,702,0)">
            <path d="M81.75,974.875L76.25,974.875L76,973.5L77.5,972L80.5,972L82,973.5L81.75,974.875"/>
        </g>
        <g transform="matrix(1,0,0,1,702,0)">
            <path d="M59.5,978L56.5,977L55.5,978L54.5,977L53.25,976.75L53.25,974.125L59.5,974L61,975.5L61,976.5L59.5,978"/>
        </g>
        <g transform="matrix(1,0,0,1,702,0)">
            <path d="M37,976.5L34.25,976.75L34,975.5L36.5,973L39.5,973L41,974.5L40.75,975.75L37,976.5"/>
        </g>
        <g transform="matrix(1,0,0,1,702,0)">
            <path d="M16.5,978L15.5,978L13,975.5L13.25,973.25L15,973.5L16.5,974L18,975.5L18,976.5L16.5,978"/>
        </g>
        <g transform="matrix(1,0,0,1,702,0)">
            <path d="M-28,978.625L-30.75,978.75L-31,976.5L-29.5,975L-28,974.75L-23,973.5L-19.5,973L-18,974.5L-19.5,976L-28,978.625"/>
        </g>
        <g transform="matrix(1,0,0,1,702,0)">
            <path d="M-43.5,978L-46.75,977.75L-47,975.5L-44.5,973L-43.5,973L-42,974.5L-42,976.5L-43.5,978"/>
        </g>
        <g transform="matrix(1,0,0,1,702,0)">
            <path d="M-1.5,976L-6,975.5L-8.75,975.75L-9,974.5L-6.5,972L-1,972.75L0.75,973.25L0.75,974.75L-0.5,975L-1.5,976"/>
        </g>
        <g transform="matrix(1,0,0,1,702,0)">
            <path d="M-78.25,1022.75L-79.5,1023L-82,1020.5L-81.5,1019L-80.5,1017L-80,1015.5L-78.5,1014L-77.25,1014.25L-77,1017.5L-79,1019.5L-78,1020.5L-78.25,1022.75"/>
        </g>
        <g transform="matrix(1,0,0,1,702,0)">
            <path d="M-75.25,1004.75L-78.5,1005L-80,1003.5L-80.5,1002L-80.75,1000.25L-78.5,1000L-75,1003.5L-75.25,1004.75"/>
        </g>
        <g transform="matrix(1,0,0,1,702,0)">
            <path d="M-78.5,993L-80,991.5L-79.75,989.25L-77.25,989.25L-77,991.5L-78.5,993"/>
        </g>
        <g transform="matrix(1,0,0,1,702,0)">
            <path d="M-60.5,978L-61.5,977L-62.5,978L-64.75,977.75L-65,975.5L-62.5,973L-60.5,973L-58,975.5L-58.25,976.75L-59.5,977L-60.5,978"/>
        </g>
        <g transform="matrix(1,0,0,1,702,0)">
            <path d="M-74.5,981L-77,979.625L-80.875,978.75L-81,973.5L-79.5,972L-78.25,972.25L-77.75,974.75L-74.25,976.25L-73,979.5L-74.5,981"/>
        </g>
        <g transform="matrix(1,0,0,1,702,0)">
            <path d="M185.5,972L182.25,970.75L182.625,968L184.25,964.25L187.75,964.25L187.5,966L187,967.5L186,968.5L187,969.5L186,970.5L186,971.5L185.5,972"/>
        </g>
        <g transform="matrix(1,0,0,1,702,0)">
            <path d="M-103.125,979.75L-105.5,980L-109,976.5L-109.625,973L-110.375,971L-111,968.5L-111,968L-112,968.5L-112,975.5L-113.5,977L-116.5,976L-118,974.5L-119.625,966L-122,958.5L-120.5,957L-118,959.5L-117,962.5L-115.5,964L-113.5,962L-109.5,962L-108,963.5L-105.625,968L-104.5,971L-103.5,975L-103.125,979.75"/>
        </g>
        <g transform="matrix(1,0,0,1,702,0)">
            <path d="M-138.5,976L-140.5,977L-144,973.5L-144.5,969L-146.25,961.25L-148.5,961L-149,961.5L-148,962.5L-147.375,965L-147.25,967L-148,971.5L-149.5,973L-151.5,973L-154,970.5L-154.375,969L-155.5,966L-156,962.5L-156.5,962L-158,963.5L-158.375,965L-159.5,968L-160,971.5L-161.5,973L-163.5,973L-165,971.5L-165.625,969L-168.25,963L-169,958.5L-167.5,957L-166.5,957L-164,959.5L-163.75,960.75L-162.25,960.75L-162,959.5L-159.5,957L-156.5,956L-155.5,955L-154.5,956L-153.5,956L-152.5,957L-151.5,956L-144.5,955L-141,958.5L-140.75,960L-139.5,965L-139,969.5L-138.5,970L-135,966.5L-135,961.5L-133.5,960L-132.5,960L-131.5,959L-131,959.5L-130,968.5L-127.5,971L-123.25,972.25L-123,974.5L-124.5,976L-130.5,975L-133,972.5L-133,971.5L-133.5,971L-135,972.5L-135,973.5L-136.5,975L-138.5,976"/>
        </g>
        <g transform="matrix(1,0,0,1,702,0)">
            <path d="M-179.5,972L-183,972.5L-188,972.25L-190,971.5L-192,970.5L-193.75,969.75L-194.25,968.25L-195.75,967.75L-197,964.5L-194.5,962L-192.5,962L-187.5,967L-186.5,967L-185.5,968L-184.5,967L-180.5,967L-179,965.5L-178.75,964L-178.625,959L-179.25,956.25L-181,955.75L-191.5,956L-193,954.5L-192.25,949L-191,944.5L-191.5,944L-192.5,945L-194.75,944.75L-195.25,943L-196,938.5L-194.5,937L-183,937.75L-178.5,939L-177.5,940L-176.5,939L-174.5,939L-172,941.5L-173.25,944.75L-174.5,945L-175.5,946L-176.5,945L-180,944.375L-182,943.625L-184.5,943L-187,945.5L-187.375,947L-188,950.5L-187.5,951L-186.5,950L-178.5,951L-175,954.5L-173.75,958L-173.5,964L-174,967.5L-176.5,970L-177.5,970L-179.5,972M-190,943L-190,942L-191,942L-191,943L-190,943"/>
        </g>
        <g transform="matrix(1,0,0,1,702,0)">
            <path d="M239,1068.75L232.5,1068L231.5,1069L230.5,1068L229.5,1069L228.5,1068L227.5,1069L226.5,1068L205.5,1068L204.5,1069L203.5,1068L137.5,1066L136.5,1065L135.5,1066L134,1065.63L130.5,1065L125.451,1065.29L124.564,1062.22L126,1059.5L126,1045.5L127,1044.5L126,1043.5L125.25,1033L124.625,1030L122,991.5L123,990.5L122,989.5L123,988.5L122,987.5L120,935.5L121,934.5L120,933.5L120,888.5L119,887.5L120,886.5L118.75,881L119,857L-31.5,854L-32.5,853L-33.5,854L-54.5,852L-55.5,853L-56.5,852L-97.5,853L-98.5,852L-99.5,853L-156.5,853L-157.5,854L-158.5,853L-222.5,852L-223.5,851L-224.5,852L-232.875,852L-237,852.5L-236.5,771L-238,762.5L-239,761.5L-238,760.5L-239,759.5L-238,758.5L-239,757.5L-242,656.5L-241,655.5L-242,654.5L-241,653.5L-238.25,610L-237.5,606L-237.5,603L-238,599.5L-237,598.5L-238,597.5L-237,596.5L-236.75,563L-235.625,555L-236,532.5L-235,531.5L-236,530.5L-235,529.5L-235,521.5L-234,520.5L-235,519.5L-234,507.5L-235,506.5L-234,505.5L-234,500.5L-235,499.5L-234,498.5L-234.25,497L-234,470L-252.5,471L-253.5,470L-254.5,471L-255.5,470L-288.5,471L-289.5,470L-290.5,471L-291.5,470L-292.5,470L-293.5,471L-294.5,470L-295.5,471L-301.5,471L-302.5,472L-303.5,471L-306.5,472L-307.5,471L-308.5,472L-310.5,472L-312,470.5L-311.75,467.25L-300.5,466L-299.5,465L-298.5,466L-297.5,465L-254.5,465L-253.5,464L-252.5,465L-249.5,465L-248.5,464L-247.5,465L-246.5,464L-231.5,464L-230.5,465L-229.5,464L-227,466.5L-227.25,468.75L-228.75,469.25L-229,470.5L-227,472.5L-229,474.5L-228.75,477.75L-226.5,478L-225,479.5L-225.125,484.75L-227.5,485L-228.5,484L-230,485.5L-230,501.5L-229,502.5L-230,503.5L-230,506.5L-228.5,508L-190.5,505L-189.5,506L-188.5,505L-114.5,506L-113.5,507L-112.5,506L-109,506.625L-107,506.5L-105,506.125L-83.5,507L-82.5,508L-81.5,507L-78.5,507L-77.5,508L-76.5,507L-75.5,507L-74.5,508L-73.5,507L-15.5,507L-14.5,508L-13.5,507L70.5,510L71.5,509L72.5,510L73.5,510L74.5,509L75.5,510L116.5,510L118,511.5L117.375,515L117,516.5L118,517.5L117,518.5L118,519.5L117.5,521L117.25,523L121,611.5L120,612.5L121,613.5L121,634.5L120,635.5L121,636.5L121,640.5L120,641.5L121,642.5L120.25,652L121.875,668L121,749.75L124.5,750L125.5,749L126.5,750L127.75,750.25L128.25,752.75L129.75,753.25L130.375,755L130.75,757.75L127,757.375L125.5,757L123.5,755L121,755.25L118,839.5L119,840.5L118,841.5L117.75,842.75L115.5,843L114,841.5L113.625,840L113.125,837L115.25,803L115,801.5L116,800.5L115,799.5L116,798.5L116,783.5L117,782.5L116,781.5L117,780.5L115.875,755.125L30.5,755L29.5,756L28.5,755L27.5,755L26.5,756L25.5,755L21.5,755L20.5,756L19.5,755L7.5,755L6.5,756L5.5,755L4.5,756L3.5,755L-16.5,755L-17.5,754L-18.5,755L-19.5,754L-20.5,755L-21.5,754L-38.5,755L-39.5,756L-40.5,755L-41.5,756L-57.5,756L-58.5,757L-59.5,756L-63,756.5L-67,756.375L-69.5,757L-71.5,758L-73.5,756L-75.75,755.75L-76,752.5L-74.5,751L-73.125,750.75L-71,725.5L-70,724.5L-71,723.5L-72.5,697L-72,693.5L-71,692.5L-72,691.5L-71,690.5L-71,687.5L-70,686.5L-71,685.5L-70,684.5L-68,652.5L-67,651.5L-68,650.5L-66,611.5L-67,610.5L-66,609.5L-67,608.5L-67,592.5L-68,591.5L-67,590.5L-67.875,573L-67,567.5L-66,566.5L-67,565.5L-68,537.5L-67,536.5L-68,535.5L-67.5,532L-67.25,514.25L-68.5,514L-69,513.5L-68,512.5L-68.5,512L-72.5,512L-73.5,513L-74.5,512L-76,512.5L-78,512.5L-79.5,512L-80.5,513L-81.5,512L-182.5,512L-183.5,511L-184.5,512L-220.5,512L-221.5,513L-222.5,512L-225.75,512.25L-226,513.5L-227.5,515L-228.5,514L-229,514.5L-230.25,538L-230.75,542L-230,549.5L-231,550.5L-230,551.5L-231,552.5L-231.5,566L-231,568.5L-232,569.5L-231,570.5L-236.625,638L-236,645.5L-237,646.5L-236,647.5L-237,648.5L-237,657.5L-238,658.5L-237,659.5L-238,660.5L-237,661.5L-238,662.5L-238,669.5L-237,670.5L-238,671.5L-234,749.5L-235,750.5L-234,751.5L-233.375,763L-232.375,769L-231.5,772L-231,820.5L-230,821.5L-231,822.5L-230,827.5L-231,828.5L-230,829.5L-231.875,843L-231.5,845L-230.75,847L-206.5,847L-205.5,846L-204.5,847L-203.5,847L-202.5,846L-201.5,847L-181.5,847L-180.5,848L-179.5,847L-178.5,848L-147.5,848L-146.5,847L-145.5,848L-144.5,847L-142.5,847L-141.5,848L-140.5,847L-134.5,847L-133.5,848L-132.5,847L-126.5,848L-125.5,847L-124.5,848L-123.5,848L-122.5,847L-121.5,848L-116.5,848L-115.5,847L-114.5,848L-101.5,847L-100.5,848L-99.5,847L-98.5,848L-97.5,848L-96.5,847L-95.5,848L-94.5,847L-50.5,847L-49.5,848L-48.5,847L-47.5,848L-32.5,848L-31.5,849L-30.5,848L-1.5,849L-0.5,848L0.5,849L7.5,849L8.5,848L9.5,849L23.5,849L24.5,848L25.5,849L54.5,849L55.5,850L56.5,849L57.5,850L76.5,850L77.5,851L78.5,850L79.5,851L120.5,851L123,853.5L124,884.5L125,885.5L124,886.5L124,898.5L123,899.5L124,900.5L123,903.5L124.5,905L128.5,904L131,906.5L131,907.5L129.5,909L123.25,909.125L124,917.5L125,918.5L124,919.5L125,920.5L124,921.5L125,922.5L125,949.5L126,950.5L125,951.5L126,965.5L127,966.5L126,967.5L126.125,973L134.5,973L136,974.5L136,975.5L134.5,977L129,977.625L126.25,978.25L126,981.5L127,982.5L126,983.5L126.5,987L128.75,1021L128.5,1029L130.5,1042L130,1059.88L150.5,1061L151.5,1060L152.5,1061L155.5,1060L156.5,1061L157.5,1060L158.5,1061L169.5,1062L170.5,1063L171.5,1062L172.5,1063L173.5,1062L174.5,1063L175.5,1062L176.5,1063L177.5,1062L183,1062.75L184.875,1062.75L185,1058.5L186.5,1057L187.75,1057.25L188.375,1059L189.25,1063L244.75,1063L245,1064.5L246,1065.5L243.5,1068L239,1068.75M117,750L117,693.5L118,692.5L117,691.5L118,690.5L116,644.5L117,643.5L116,642.5L117,641.5L116.375,638L116,636.5L117,635.5L116,634.5L117,633.5L117,619.5L116,618.5L117,617.5L116,616.5L117,603.5L116,602.5L117,601.5L117,587.5L118,586.5L117,585.5L118,584.5L117,583.5L118,582.5L117,581.5L117.75,572L113.125,523L113.5,521L113.625,519L113,516.5L111.5,515L78.5,515L77.5,514L76.5,515L67.5,515L66.5,514L65.5,515L64.5,514L12.5,513L11.5,512L10.5,513L-15.5,513L-16.5,512L-17.5,513L-18.5,512L-19.5,513L-63,512L-63,534.5L-62,535.5L-63,536.5L-62,537.5L-63,538.5L-62,539.5L-62,550.5L-61,551.5L-62,552.5L-62,561.5L-61,562.5L-62,563.5L-61.625,565L-61.5,568L-62,571.5L-63,572.5L-62,573.5L-62.625,576L-62.875,578L-63,592.5L-62,593.5L-63,594.5L-63,595.5L-62,596.5L-63,597.5L-62,598.5L-61,618.5L-62,619.5L-61,620.5L-62,621.5L-64,641.5L-63,642.5L-64,643.5L-63,644.5L-63.5,656L-66,675.5L-65,676.5L-66,677.5L-66.625,688L-68,697.5L-67,698.5L-68,699.5L-67,744.5L-68,745.5L-67,746.5L-68,747.5L-68,750.5L-66.5,752L-65.5,751L-11.5,749L-10.5,750L-9.5,749L-6,749.625L-4.5,750L-3.5,749L-2.5,750L77.5,750L78.5,749L79.5,750L80.5,749L117,750"/>
        </g>
    </g>
</svg>
