<?xml version="1.0" encoding="UTF-8" standalone="no"?>
<!DOCTYPE svg PUBLIC "-//W3C//DTD SVG 1.1//EN" "http://www.w3.org/Graphics/SVG/1.1/DTD/svg11.dtd">
<svg width="100%" height="100%" viewBox="0 0 625 312" version="1.1" xmlns="http://www.w3.org/2000/svg" xmlns:xlink="http://www.w3.org/1999/xlink" xml:space="preserve" xmlns:serif="http://www.serif.com/" style="fill-rule:evenodd;clip-rule:evenodd;stroke-linejoin:round;stroke-miterlimit:2;">
    <g transform="matrix(1,0,0,1,-217.795,-1381.45)">
        <rect x="217.795" y="1381.45" width="624.23" height="311.41" style="fill:rgb(235,235,235);"/>
        <g transform="matrix(1,0,0,1,702,0)">
            <path d="M-136.5,1669L-138,1668.5L-140,1667.5L-141.5,1667L-145.5,1663L-147.5,1665L-151.75,1667.25L-152.25,1668.75L-155.75,1668.75L-156,1666.5L-152.5,1663L-148.5,1661L-148,1660.5L-154,1654.5L-154,1652.5L-152.5,1651L-151.5,1651L-144.5,1658L-142.5,1656L-140.5,1655L-134.5,1651L-132.25,1650.25L-132,1652.5L-134.5,1655L-138.5,1657L-142,1660.5L-139.5,1663L-136.5,1664L-135,1665.5L-135,1667.5L-136.5,1669"/>
        </g>
        <g transform="matrix(1,0,0,1,702,0)">
            <path d="M95,1625.5L86.5,1636L85.5,1636L84,1637.5L84,1638.5L82.5,1640L81.5,1640L80,1638.5L91,1625.5L93,1622.5L94,1621.5L87.5,1615L84.5,1614L82.5,1612L77.25,1611.88L77,1609.5L78.5,1608L79.5,1609L84,1609.75L86.5,1611L94.5,1617L97,1619.5L97,1623.5L95,1625.5"/>
        </g>
        <g transform="matrix(1,0,0,1,702,0)">
            <path d="M7.5,1580L0.5,1579L-2,1576.5L-2.125,1572.25L-3.5,1572L-4.5,1573L-6,1571.5L-5,1570.5L-5,1569.5L-3.5,1568L1,1566.75L8.5,1566L10,1567.5L10.25,1569L10.375,1575L10,1577.5L7.5,1580M4.5,1577L7,1574.5L6.875,1570.13L2.25,1570.13L1.5,1573L1.25,1575.75L4.5,1577"/>
        </g>
        <g transform="matrix(1,0,0,1,702,0)">
            <path d="M-11.5,1566L-12.5,1566L-14,1564.5L-14,1562.5L-12.5,1561L-11.25,1561.25L-10,1564.5L-11.5,1566"/>
        </g>
        <g transform="matrix(1,0,0,1,702,0)">
            <path d="M-22,1564.5L-25.75,1563.75L-26,1562.5L-24.5,1561L-21.5,1561L-20.5,1560L-19,1561.5L-19,1562.5L-20.5,1564L-22,1564.5"/>
        </g>
        <g transform="matrix(1,0,0,1,702,0)">
            <path d="M-42.5,1558L-45.75,1557.75L-45.75,1555.25L-42.5,1554L-41,1555.5L-41,1556.5L-42.5,1558"/>
        </g>
        <g transform="matrix(1,0,0,1,702,0)">
            <path d="M-69.5,1551L-75.5,1551L-77,1549.5L-77,1548.5L-75.5,1547L-69.25,1547.13L-69,1548.5L-68,1549.5L-69.5,1551"/>
        </g>
        <g transform="matrix(1,0,0,1,702,0)">
            <path d="M7,1590.25L-4.5,1590L-5.5,1591L-6.5,1590L-7.5,1591L-18.5,1591L-19.5,1590L-20.5,1591L-41.5,1591L-42.5,1590L-43.5,1591L-44.5,1590L-78.5,1590L-79.5,1589L-80.5,1590L-81.5,1589L-148,1587L-148,1599.5L-149.5,1601L-151.5,1601L-153,1599.5L-152,1596.5L-153,1595.5L-152,1594.5L-153,1593.5L-152.125,1586.13L-181.5,1585L-182.5,1586L-183.5,1585L-184.5,1586L-189,1586.5L-199,1588.25L-253.5,1587L-254.5,1586L-255.5,1587L-259.5,1587L-260.5,1586L-261.5,1587L-265.5,1587L-266.5,1586L-267.5,1587L-273.5,1587L-274.5,1586L-275.5,1587L-287.5,1587L-288.5,1588L-289.5,1587L-290.5,1588L-296,1587.25L-305,1589.63L-307,1589.5L-308.5,1589L-311,1586.5L-311.75,1579.25L-310.5,1579L-309.5,1578L-308,1579.5L-306.75,1585.75L-305,1585.63L-301,1584.63L-294.5,1584L-293.5,1583L-292.5,1584L-260.5,1583L-259.5,1582L-258.5,1583L-257.5,1582L-200,1584.25L-181,1581.63L-168.5,1581L-167.5,1582L-166.5,1581L-131.5,1584L-130.5,1583L-129.5,1584L-4.5,1587L-3.5,1586L-2.5,1587L-1.5,1586L-0.5,1587L5.75,1586.88L5.5,1585L5,1583.5L6.5,1582L10.75,1583.25L11,1586.5L9,1588.5L8.75,1589.75L7,1590.25"/>
        </g>
        <g transform="matrix(1,0,0,1,702,0)">
            <path d="M-9,1575.38L-38.5,1574L-39.5,1573L-40.5,1574L-41.5,1573L-127.5,1569L-128.5,1570L-129.5,1569L-132.5,1569L-133.5,1570L-134.5,1569L-225.5,1568L-226.5,1567L-227.5,1568L-232.5,1568L-233.5,1567L-234.5,1568L-235.5,1567L-236.5,1568L-296.5,1570L-298,1568.5L-298,1566.5L-296.5,1565L-295,1565.25L-261.5,1565L-260.5,1564L-259.5,1565L-22,1570.5L-10.5,1572L-9.5,1571L-8.5,1572L-7.25,1572.25L-7.25,1574.75L-9,1575.38"/>
        </g>
        <g transform="matrix(1,0,0,1,702,0)">
            <path d="M-310.5,1570L-313.5,1570L-315.5,1568L-319.75,1566.75L-320,1564.5L-317.5,1562L-311.5,1562L-309,1564.5L-309,1565.5L-308,1566.5L-309,1567.5L-309,1568.5L-310.5,1570"/>
        </g>
        <g transform="matrix(1,0,0,1,702,0)">
            <path d="M38,1544.13L23,1544.25L20,1543.38L18.25,1543.25L18,1544.5L16.5,1546L13,1542.5L10,1524.5L8,1522.5L9,1521.5L9,1520.5L10.5,1519L11.5,1519L12,1518.5L11,1517.5L12,1516.5L12.25,1514.25L16,1514.5L22,1515.63L25,1516.63L27,1517.5L28.5,1518L30,1519.5L30.5,1521L31.375,1523L32,1526.5L30.5,1528L26.5,1530L26,1530L26.5,1531L36,1531.75L40.5,1533L43,1535.5L43.5,1537L44.375,1539L45,1541.5L43.5,1543L40,1543.63L38,1544.13M19,1528.5L24,1526.5L25.5,1526L27,1524.5L27,1523.5L24.5,1521L18,1519.5L15,1519.63L13.5,1520L13,1520.5L14,1521.5L15.125,1528.75L19,1528.5M37,1540.13L38.5,1540L40,1538.5L38.5,1537L34,1535.75L16.5,1534L16,1534.5L17,1535.5L17.25,1536.75L22,1539.38L25,1540.25L37,1540.13"/>
        </g>
        <g transform="matrix(1,0,0,1,702,0)">
            <path d="M-101.25,1543.88L-106,1543.25L-107.75,1542.75L-107.75,1541.25L-104.5,1541L-103.5,1540L-101,1542.5L-101.25,1543.88"/>
        </g>
        <g transform="matrix(1,0,0,1,702,0)">
            <path d="M-142.25,1532.88L-148.75,1532.88L-148.75,1531.25L-147,1530.63L-143.5,1530L-142,1531.5L-142.25,1532.88"/>
        </g>
        <g transform="matrix(1,0,0,1,702,0)">
            <path d="M-185,1524.38L-187.5,1525L-190,1522.5L-187.5,1520L-186.5,1521L-184.5,1521L-183,1522.5L-183.25,1523.75L-185,1524.38"/>
        </g>
        <g transform="matrix(1,0,0,1,702,0)">
            <path d="M-213.5,1518L-218.75,1516.75L-218.75,1514.25L-213.5,1513L-212,1514.5L-212,1516.5L-213.5,1518"/>
        </g>
        <g transform="matrix(1,0,0,1,702,0)">
            <path d="M-238.5,1512L-242.75,1510.75L-243,1508.5L-241.5,1507L-238.5,1507L-237,1508.5L-237,1510.5L-238.5,1512"/>
        </g>
        <g transform="matrix(1,0,0,1,702,0)">
            <path d="M-257.25,1505.75L-261.5,1505L-262.5,1506L-264,1504.5L-264,1503.5L-261.5,1501L-258.25,1502.25L-257.5,1504L-257.25,1505.75"/>
        </g>
        <g transform="matrix(1,0,0,1,702,0)">
            <path d="M-284.5,1499L-287,1496.5L-286,1495.5L-285.75,1494.25L-284.5,1494L-283,1495.5L-283,1497.5L-284.5,1499"/>
        </g>
        <g transform="matrix(1,0,0,1,702,0)">
            <path d="M-318.5,1554L-320.5,1554L-322,1552.5L-322,1549.5L-323,1548.5L-322,1547.5L-324,1505.5L-322.5,1504L-321.5,1504L-320,1505.5L-319.5,1516L-318,1529.5L-317,1530.5L-318,1531.5L-317,1532.5L-317,1535.5L-318,1536.5L-317,1537.5L-318,1538.5L-317,1545.5L-318,1546.5L-317.5,1547L-316.5,1547L-315,1548.5L-315,1550.5L-318.5,1554"/>
        </g>
        <g transform="matrix(1,0,0,1,702,0)">
            <path d="M-305.5,1490L-306.5,1490L-308,1488.5L-307.75,1486.25L-305.5,1486L-304,1487.5L-304,1488.5L-305.5,1490"/>
        </g>
        <g transform="matrix(1,0,0,1,702,0)">
            <path d="M-422.25,1548.75L-426.875,1547.75L-426.25,1540L-424.5,1535L-424,1532.5L-423,1531.5L-425.5,1529L-426.75,1528.75L-430,1519.5L-432,1517.5L-431.75,1515.25L-427.5,1513L-425,1515.5L-426,1516.5L-425,1517.5L-424,1523.5L-421.5,1526L-421,1525.5L-420.375,1523L-419.5,1521L-413.75,1511.25L-412.5,1511L-411.5,1510L-410.5,1511L-409.125,1511.25L-409.75,1517L-410.5,1519L-411.5,1521L-416,1527.5L-418,1529.5L-418.625,1532L-421.25,1540L-422,1545.5L-421,1546.5L-422,1547.5L-422.25,1548.75"/>
        </g>
        <g transform="matrix(1,0,0,1,702,0)">
            <g transform="matrix(1,0,0,1,-248.089,-14.2208)">
                <path d="M325.5,1484L321,1483.38L310,1480.63L287,1476.5L283,1475.5L211,1463.5L198,1460.5L193.5,1460L192,1461.5L192,1462.5L190.5,1464L185.5,1464L183.5,1466L182,1466.38L178.5,1467L177,1465.5L178.25,1462L181,1448.5L183,1446.5L182.5,1446L181.5,1446L180,1444.5L180.25,1441.25L184,1441.5L200,1445.5L206,1446.5L262.5,1459L263.5,1460L264.5,1459L265.5,1460L267.5,1460L268.5,1461L271.5,1458L272.75,1457.75L273.5,1456L282,1440.5L289.25,1430.25L295,1426.5L297,1425.75L303.5,1425L304.5,1426L305.5,1425L306.5,1426L311,1426.5L318,1428.38L332.5,1434L339,1440.5L340,1451.5L339,1452.5L340,1453.5L338.375,1460L336.625,1464L336,1466.5L334,1468.5L333.5,1470L331,1474.5L329,1476.5L328,1481.5L325.5,1484M187.875,1454.75L188,1448.5L189,1447.5L188.5,1447L185.5,1447L185,1447.5L186,1448.5L185,1453.5L184,1454.5L184.5,1455L187.875,1454.75M281.5,1471L282,1470.5L281,1469.5L281.5,1468L281.75,1466.25L278.5,1465L277.5,1464L277,1464.5L276.75,1465.88L269,1465.38L198,1449.5L192.125,1449.13L192,1455.5L192.5,1456L193.5,1455L195.5,1455L197.5,1457L202,1457.5L206,1458.5L281.5,1471M185,1459.5L186.5,1459L187,1458L183.25,1458.25L183.25,1459.75L185,1459.5M323.75,1479.75L324.625,1477L330,1466.5L332,1464.5L332.625,1462L333.375,1460L334.25,1456L335,1442.5L330.5,1438L329,1437.5L327,1436.5L317,1432.63L313,1431.5L308.5,1431L307.5,1430L306.5,1431L305.5,1430L296.5,1431L290,1437.5L288.5,1440L286,1443.5L279.5,1455L278.625,1457L278.25,1459.75L282.5,1461L284.5,1463L285.5,1463L288.5,1466L289.5,1465L290.5,1465L292,1463.5L293,1455.5L294,1454.5L293,1453.5L294,1452.5L294.625,1450L298.5,1442L299,1440.5L300.5,1439L301.5,1439L303.5,1437L308,1436.25L310,1436.25L325,1439.5L330,1441.5L331.5,1442L334,1444.5L334,1445.5L332.5,1447L330,1446.38L325,1444.5L313,1441.5L307,1441.75L303.25,1443.25L302.5,1445L299.5,1451L298.75,1453L296,1467.5L294,1469.5L294,1471.5L295.5,1473L320,1478.63L322,1479.5L323.75,1479.75M284.5,1472L285,1471L283.5,1471L283,1472L284.5,1472"/>
            </g>
        </g>
        <g transform="matrix(1,0,0,1,702,0)">
            <path d="M-321.5,1493L-323.5,1492L-329,1486.5L-328,1481.5L-325.5,1479L-324,1478.63L-320,1478.63L-318.5,1479L-316,1481.5L-315.75,1483L-314.25,1488L-314,1489.5L-315.5,1491L-317,1491.38L-320.5,1492L-321.5,1493M-318.25,1488.88L-318.625,1486L-319,1484.5L-321.5,1482L-323.5,1482L-325,1483.5L-325,1486.5L-322.5,1489L-318.25,1488.88"/>
        </g>
        <g transform="matrix(1,0,0,1,702,0)">
            <path d="M-289.25,1456.75L-291.5,1457L-293,1455.5L-294.25,1452.13L-308.75,1453L-310,1457.5L-311.5,1459L-312.5,1459L-314,1457.5L-313.5,1456L-313.25,1454.25L-314.5,1454L-316,1452.5L-315,1451.5L-314.75,1450.25L-311.25,1449.75L-310.5,1447L-308,1440.5L-305.5,1438L-305,1438.5L-305.625,1442L-306.375,1444L-307,1447.5L-308,1448.5L-307.5,1449L-297.25,1447.75L-297.625,1445L-299.5,1441L-300,1439.5L-302,1437.5L-302,1435.5L-304,1433.5L-304.5,1432L-304.75,1430.25L-302.5,1430L-301,1431.5L-300.5,1433L-295.625,1442L-294.375,1445L-294,1446.5L-292.5,1448L-290,1447.5L-286,1447.63L-284.5,1448L-284,1448.5L-285,1449.5L-285.25,1450.75L-287,1451.38L-290.5,1452L-291,1452.5L-289,1454.5L-289.25,1456.75"/>
        </g>
        <g transform="matrix(1,0,0,1,702,0)">
            <path d="M-368.25,1566.88L-376,1566.25L-377.75,1565.75L-380.375,1550L-381,1527.5L-382.5,1526L-383.5,1526L-384.5,1525L-385.5,1526L-386.5,1525L-387.5,1526L-388.5,1525L-389.75,1524.75L-390,1522.5L-388.5,1521L-380.125,1521L-380.125,1502L-380.375,1500L-381,1497.5L-380,1496.5L-381,1495.5L-380,1494.5L-380.5,1492L-381.5,1489L-381.625,1486L-381,1481.5L-378.5,1479L-374,1479.75L-370.25,1481.25L-369.75,1482.75L-367.25,1483.25L-367,1484.5L-368.5,1486L-371,1485.38L-375,1483.5L-376.75,1483.25L-377,1486.5L-378,1487.5L-377,1488.5L-376.5,1511L-375,1523.5L-376.5,1525L-377.5,1525L-378,1525.5L-377,1526.5L-377,1542.5L-376,1543.5L-377,1544.5L-373.75,1562.88L-369.5,1563L-368,1564.5L-368.25,1566.88"/>
        </g>
        <g transform="matrix(1,0,0,1,702,0)">
            <path d="M47,1625.88L45.5,1626L44.5,1625L43.5,1626L42.5,1625L41.5,1626L-76.5,1629L-77.5,1630L-78.5,1629L-79.5,1630L-135,1632.88L-137,1632.5L-139,1632.5L-140.5,1633L-141.5,1632L-142.5,1633L-143.5,1632L-144.5,1633L-190.5,1631L-191.5,1630L-192.5,1631L-193.5,1630L-214.5,1629L-215.5,1628L-216.5,1629L-217.5,1628L-258.5,1629L-259.5,1630L-260.5,1629L-309.5,1630L-310.5,1631L-311.5,1630L-350.75,1630L-351,1631.5L-352,1632.5L-351,1633.5L-351,1652.5L-352.5,1654L-354.875,1653.75L-355,1631.25L-362,1631.63L-383,1627.5L-408,1627.25L-419.5,1626L-420.5,1625L-421.5,1626L-423.75,1625.75L-423.75,1622.25L-420,1622.38L-405,1624.38L-380,1624.63L-355,1628L-355,1617.5L-354,1616.5L-355,1615.5L-356,1574.5L-357,1573.5L-356,1572.5L-356,1560.5L-355,1559.5L-356,1558.5L-355.5,1526L-361.5,1485L-361,1474.5L-360,1473.5L-361,1472.5L-360,1471.5L-361,1445.5L-360,1444.5L-361,1443.5L-360,1442.5L-361,1441.5L-363,1409.5L-362,1408.5L-363,1407.5L-363,1403.5L-364.5,1402L-366.5,1402L-367.5,1401L-369,1402.5L-369,1404.5L-371,1406.5L-373,1410.5L-377.5,1415L-380,1416.5L-383.5,1419L-385.5,1420L-388.5,1423L-390.75,1422.75L-390.375,1420L-390,1418.5L-388.5,1417L-386.5,1416L-383,1413.5L-380.5,1412L-376,1407.5L-370.75,1398.25L-369,1397.63L-366,1397.5L-356,1401.5L-351,1404.5L-349.5,1405L-347.5,1407L-345.5,1407L-343,1409.5L-343.25,1411.75L-347,1411.38L-349,1410.5L-355,1406.5L-357,1405.5L-358.875,1405.25L-357,1436.5L-358,1437.5L-357,1438.5L-356.625,1472L-358,1484.5L-357,1485.5L-358,1486.5L-356.5,1492L-352.625,1523L-353,1576.5L-352,1577.5L-353,1578.5L-352,1579.5L-353,1580.5L-351.25,1605L-351.625,1611L-351,1617.5L-352,1618.5L-351,1619.5L-352,1620.5L-350.875,1626.88L-245.5,1625L-244.5,1626L-243.5,1625L-151.5,1628L-150.5,1629L-149.5,1628L-148.5,1629L-120.5,1628L-119.5,1627L-118.5,1628L-117.5,1627L-112.5,1627L-111.5,1626L-110.5,1627L-106.5,1627L-105.5,1626L-104.5,1627L-100.5,1627L-99.5,1626L-98.5,1627L-97.5,1626L-96.5,1627L-95.5,1626L-94.5,1627L-25.5,1622L-24.5,1623L-23.5,1622L-21.5,1622L-20.5,1623L-19.5,1622L-18.5,1623L79,1620.5L82.5,1621L83.5,1620L84,1620.5L84,1621.5L85,1622.5L83.5,1624L47,1625.88"/>
        </g>
    </g>
</svg>
