<?xml version="1.0" encoding="UTF-8" standalone="no"?>
<!DOCTYPE svg PUBLIC "-//W3C//DTD SVG 1.1//EN" "http://www.w3.org/Graphics/SVG/1.1/DTD/svg11.dtd">
<svg width="100%" height="100%" viewBox="0 0 531 209" version="1.1" xmlns="http://www.w3.org/2000/svg" xmlns:xlink="http://www.w3.org/1999/xlink" xml:space="preserve" xmlns:serif="http://www.serif.com/" style="fill-rule:evenodd;clip-rule:evenodd;stroke-linejoin:round;stroke-miterlimit:2;">
    <g transform="matrix(1,0,0,1,-284.68,-766.24)">
        <rect x="284.68" y="766.24" width="530.16" height="208.226" style="fill:rgb(235,235,235);"/>
        <g transform="matrix(1,0,0,1,702,0)">
            <path d="M29.75,938.75L26,940.25L21.5,941L20.5,942L19.5,941L18.25,940.75L17.75,939.25L16.5,939L15,937.5L14.75,936L14.75,929L15,927.5L16.5,926L26.5,925L28.5,927L29.75,927.25L31,931.5L32,932.5L31,933.5L30.375,937L29.75,938.75"/>
        </g>
        <g transform="matrix(1,0,0,1,702,0)">
            <path d="M60,910.875L53,906.5L51.5,906L50,904.5L50,901.5L51.5,900L54.5,900L55.5,901L56,900.5L57,893.5L56,892.5L57,891.5L56,890.5L57,889.5L58,883.5L56.5,882L55.5,883L49.25,883.75L49,880.5L51.5,878L63,876.5L72.5,876L75,878.5L75,879.5L76,880.5L75,881.5L73,885.5L71,887.5L71.5,888L74,888.25L86.5,891L89,893.5L89.5,896L89.375,899L87,903.5L82.5,908L77,909.25L60,910.875M63,887.5L64.5,887L70,881.5L69.5,881L60.5,881L60,881.5L61,882.5L61.125,887.75L63,887.5M71,889L71,888L70,888L70,889L71,889M75,905.375L79.5,905L81.5,903L82.5,903L84,901.5L84,899.5L86,897.5L85,896.5L84.75,895.25L83,894.625L79,893.75L61.25,893L61,894.5L60,895.5L61,896.5L60.625,898L60,901.5L61,902.5L60,903.5L60.25,904.75L75,905.375M57,903L57,902L56,902L56,903L57,903"/>
        </g>
        <g transform="matrix(1,0,0,1,702,0)">
            <path d="M-354,843.5L-355,851.5L-358.5,855L-366.5,854L-369,851.5L-369.5,850L-369.625,848L-368,842.5L-366.5,841L-361,839.375L-359,839.5L-357.5,840L-354,843.5"/>
        </g>
        <g transform="matrix(1,0,0,1,702,0)">
            <path d="M-345.5,820L-348,817.5L-348.625,814L-349.25,812.125L-354,812.5L-359,813.5L-365.5,814L-366.5,815L-367.5,814L-368,814.5L-369,820.5L-370.5,822L-373.875,821.75L-374,817.5L-372,815.5L-371,811.5L-369,809.5L-365.625,803L-363.5,798L-360.5,792L-361.5,789L-363,786.5L-361.5,785L-359.25,785.25L-359,786.5L-358.5,787L-357.5,786L-356.125,786.25L-355.25,791L-348.625,804L-347.75,806.75L-344.5,807L-343.5,806L-341,808.5L-341,809.5L-343.5,812L-344.75,812.25L-344.75,814L-344,818.5L-345.5,820M-351.5,808L-351,807.5L-352,806.5L-352.625,804L-356.5,796L-357,794.5L-358,794L-358,794.5L-358.5,796L-363.5,807L-364,808.5L-365,809.5L-364.5,810L-351.5,808"/>
        </g>
    </g>
</svg>
