<?xml version="1.0" encoding="UTF-8" standalone="no"?>
<!DOCTYPE svg PUBLIC "-//W3C//DTD SVG 1.1//EN" "http://www.w3.org/Graphics/SVG/1.1/DTD/svg11.dtd">
<svg width="100%" height="100%" viewBox="0 0 459 183" version="1.1" xmlns="http://www.w3.org/2000/svg" xmlns:xlink="http://www.w3.org/1999/xlink" xml:space="preserve" xmlns:serif="http://www.serif.com/" style="fill-rule:evenodd;clip-rule:evenodd;stroke-linejoin:round;stroke-miterlimit:2;">
    <g transform="matrix(1,0,0,1,-304.509,-1102.34)">
        <rect x="304.509" y="1102.34" width="458.791" height="182.607" style="fill:rgb(235,235,235);"/>
        <g transform="matrix(1,0,0,1,702,0)">
            <path d="M12,1261.5L9,1261.63L2,1259.63L-1,1258.38L-6,1255.5L-7.75,1254.75L-7.75,1252.25L-5.5,1252L-4.5,1251L-3.5,1252L-2.25,1251.75L-1,1244.5L0,1243.5L-2,1241.5L-2,1240.5L-0.5,1239L3.75,1240.25L4.25,1242.88L8.5,1243L11,1240.5L11,1239.5L8.5,1237L-2.5,1237L-4.5,1239L-5.5,1238L-6.5,1238L-9,1235.5L-9,1234.5L-7.5,1233L11.5,1234L15,1237.5L14,1243.5L12,1245.5L12.5,1246L16.5,1247L20,1250.5L20,1253.5L21,1254.5L20,1255.5L20,1257.5L17.5,1260L12,1261.5M4,1244L4,1243L3,1243L3,1244L4,1244M13,1257.38L15.75,1256.75L17,1253.5L13.5,1250L12,1249.75L4,1247.38L2.125,1247.25L2,1253.5L1,1254.5L2.5,1256L8,1257.38L13,1257.38"/>
        </g>
        <g transform="matrix(1,0,0,1,702,0)">
            <path d="M-0.5,1231L-7.5,1231L-10,1228.5L-10,1226.5L-10.5,1226L-12.5,1228L-17,1227.25L-22,1225.63L-40,1221.5L-45,1219.63L-62,1215.38L-64,1214.63L-68,1213.5L-78,1210.5L-97,1206.5L-112,1201.5L-118,1200.5L-131,1196.5L-146,1190.5L-212,1173.5L-218,1172.5L-234,1168.38L-239,1166.5L-254,1162.38L-261,1159.5L-284,1154.5L-294,1151.75L-307.5,1150L-310.5,1153L-318,1152.25L-320,1151.63L-323.5,1151L-326,1148.5L-326,1142.5L-321.5,1138L-317,1136.63L-312,1136.75L-310.5,1137L-308,1139.5L-307.5,1141L-306.625,1143L-305.75,1146.88L-292,1148.75L-277,1152.5L-266,1154.5L-259,1156.5L-252,1159.38L-144,1187.5L-126,1194.5L-85,1205.5L-74,1207.5L-67,1209.63L-62,1211.5L-43,1216.63L-39,1218.38L-31,1220.5L-15.5,1223L-14.5,1224L-13.5,1223L-12.5,1224L-11.5,1224L-10.5,1225L-10,1224.5L-11,1220.5L-8.5,1218L-6,1217.63L1,1217.75L2.5,1218L5,1220.5L5,1226.5L2.5,1229L1.5,1229L-0.5,1231M-313.5,1150L-313,1149.5L-314.5,1148L-315.75,1147.75L-316,1145.5L-314.5,1144L-312.5,1144L-310.5,1146L-310,1145.5L-310,1143.5L-313.5,1140L-319.5,1141L-322,1143.5L-322,1144.5L-321.5,1145L-320.5,1144L-319.25,1144.25L-319,1147.5L-316.5,1150L-313.5,1150M-322,1147L-322,1145.5L-323,1145L-323,1146L-322,1147M-1.5,1227L1,1224.5L1,1223.5L-1.5,1221L-2.5,1222L-4.5,1222L-7,1224.5L-6.75,1226.88L-1.5,1227"/>
        </g>
        <g transform="matrix(1,0,0,1,702,0)">
            <path d="M-351.5,1161L-352.5,1161L-354,1159.5L-354,1157.5L-354.5,1157L-355.5,1158L-368.75,1158L-369,1159.5L-370.5,1161L-372.75,1160.75L-373.25,1159.25L-375.5,1159L-376,1158.5L-375,1157.5L-376,1156.5L-375,1155.5L-375,1154.5L-373.5,1153L-372.25,1153.25L-372,1154.5L-372,1155L-371,1154.5L-366,1145.5L-362.5,1140L-359.5,1134L-358.75,1132.13L-354.25,1132.13L-353.875,1134L-351.875,1152.88L-346.5,1153L-345,1154.5L-345.25,1156.88L-349.75,1157.13L-350,1159.5L-351.5,1161M-356.5,1154L-355,1152.5L-357,1138.5L-358,1138L-358,1138.5L-364.5,1150L-365,1151.5L-367,1153.5L-366.5,1154L-356.5,1154"/>
        </g>
    </g>
</svg>
