<?xml version="1.0" encoding="UTF-8" standalone="no"?>
<!DOCTYPE svg PUBLIC "-//W3C//DTD SVG 1.1//EN" "http://www.w3.org/Graphics/SVG/1.1/DTD/svg11.dtd">
<svg width="100%" height="100%" viewBox="0 0 297 285" version="1.1" xmlns="http://www.w3.org/2000/svg" xmlns:xlink="http://www.w3.org/1999/xlink" xml:space="preserve" xmlns:serif="http://www.serif.com/" style="fill-rule:evenodd;clip-rule:evenodd;stroke-linejoin:round;stroke-miterlimit:2;">
    <g transform="matrix(1,0,0,1,-790.647,-1557.47)">
        <g transform="matrix(1,0,0,1,702,0)">
            <g transform="matrix(-1,0,0,1,1175.78,0)">
                <rect x="790.647" y="1557.47" width="296.483" height="284.151" style="fill:rgb(235,235,235);"/>
            </g>
        </g>
        <g transform="matrix(1,0,0,1,702,0)">
            <g transform="matrix(-0.99975,0.0223679,0.0223679,0.99975,435.737,-4.79808)">
                <path d="M340,1828.5L331.5,1829L330.5,1828L329.5,1829L328.5,1828L327.5,1829L118.5,1833L117.5,1832L116.5,1833L115.5,1832L112.5,1832L111.5,1833L110.5,1832L109.5,1832L108,1830.5L108.25,1828.25L109.5,1828L110,1828L109.5,1827L108.5,1827L107,1825.5L106.75,1815L106.125,1810L107,1785.5L108.5,1784L109.5,1784L111,1782.5L110,1781.5L109.625,1779L109.625,1771L108.5,1765L108.5,1755L100.5,1622L99,1609.5L100,1608.5L99,1607.5L99,1590.5L100,1589.5L99,1588.5L100,1587.5L99,1568.25L100.5,1568L101.5,1567L103,1568.5L103,1569.5L105.5,1572L190.5,1569L191.5,1570L192.5,1569L237.5,1568L238.5,1567L239.5,1568L353.5,1565L355.5,1563L361.5,1564L363.5,1566L364.5,1566L365,1566.5L364,1567.5L364,1568.5L362.5,1570L360.25,1570.25L359.875,1572L358,1612.5L359,1613.5L358,1614.5L359,1615.5L359,1618.5L358,1619.5L359,1620.5L361,1639.5L360,1640.5L361,1641.5L361,1642.5L360,1643.5L361,1644.5L360,1645.5L361,1646.5L360,1647.5L361,1648.5L360,1649.5L361,1650.5L361,1664.5L362,1665.5L361,1666.5L359.375,1695L358.5,1701L358.5,1708L360.5,1721L361.5,1725L362,1728.5L363,1729.5L362,1730.5L365.375,1754L366,1772.5L367,1773.5L366,1774.5L367,1775.5L367,1785.5L368,1786.5L367,1787.5L367.5,1799L366.5,1805L366.625,1811L367,1813.5L366,1814.5L367,1815.5L367,1826.75L365.5,1827L364.5,1828L363.5,1827L350.5,1828L349.5,1827L348.5,1828L340,1828.5M340.5,1589L342,1587.5L344.5,1581L345,1578.5L352,1571.5L352,1570.5L353,1569.5L352.5,1569L351,1569.5L349,1569.5L347,1569.13L319,1569.13L317,1569.5L315,1569.5L313.5,1569L312.5,1570L311.5,1569L250.5,1571L249.5,1572L248.5,1571L247.5,1572L147.5,1576L146.5,1575L145.5,1576L144.5,1575L114.5,1575L113.5,1576L112.5,1575L111.5,1576L105.5,1576L104,1577.5L104.25,1579L105,1604.5L104,1605.5L105,1606.5L104.5,1610L105,1618.5L106,1619.5L105,1620.5L106,1621.5L106,1625.5L107,1626.5L106,1627.5L107,1628.5L106,1629.5L107,1641.5L106,1642.5L107,1643.5L108,1646.5L107,1647.5L108,1648.5L107,1649.5L107,1650.5L108,1651.5L107,1652.5L109,1688.5L110,1689.5L109,1690.5L110.75,1734L113.625,1756L114.75,1778L116.5,1784L116.5,1787L115.75,1789.75L112.5,1790L111.5,1789L111,1789.5L110,1821.5L112,1823.5L111,1824.5L111.25,1825.75L113,1826.5L114.75,1826.75L116,1824.5L121,1816.5L122,1814.5L123.5,1813L128.5,1810L130,1808.5L130.25,1807.25L131.5,1807L140,1798.5L144,1792.5L146,1790.5L145,1789.5L145.25,1787.25L146.5,1787L147.5,1786L148.5,1787L149.5,1786L150.5,1786L162,1774.5L162,1773.5L169.5,1766L176.5,1761L181,1756.5L187,1748.5L187.625,1746L187,1743.5L188.5,1742L196.5,1741L200.5,1737L223.5,1717L230,1710.5L230,1708.5L231.5,1707L234.5,1706L236,1704.5L237,1701.5L247.5,1691L248.5,1691L272,1667.5L273,1660.5L275.5,1658L279.5,1658L284.5,1653L285.5,1653L288,1650.5L288.25,1649.25L289.5,1649L291,1647.5L293,1644.5L313,1620.5L315,1618.5L315.125,1614.25L319.75,1612.75L324.25,1606.25L325.75,1605.75L326.25,1604.25L327.5,1604L335,1596.5L335.5,1595L336.5,1593L337,1591.5L339.5,1589L340.5,1589M337,1614.88L337,1600.5L336.5,1600L323,1613.5L323.5,1614L337,1614.88M345,1654.5L354.5,1653L356,1651.5L355.625,1649L354,1610.5L353,1609.5L354,1608.5L354,1607.5L353,1606.5L354,1605.5L352.75,1599.25L341.125,1600L340.5,1605L340.5,1610L341.125,1615L351.5,1615L353,1616.5L353,1617.5L351.5,1619L320.125,1617.13L321.25,1629L322,1656L345,1654.5M304,1639.63L308,1638.5L318.75,1636.88L318.625,1633L317,1623.5L316.5,1623L304,1635.5L303,1637.5L302.25,1639.75L304,1639.63M310,1657.5L317.75,1656.88L318,1654.5L319,1653.5L318,1652.5L318,1641.13L313,1641.5L302,1644.25L302,1657.88L310,1657.5M298,1656.75L298,1645.5L297.5,1645L293,1649.5L293,1650.5L287.5,1656L286.5,1656L286,1657L294.5,1657L295.5,1656L296.5,1657L298,1656.75M286,1658L286,1657L285,1657L285,1658L286,1658M340,1823.5L346.5,1823L347.5,1822L348.5,1823L361.75,1823L362,1819.5L363,1818.5L362,1817.5L361.5,1805L362.75,1798L362.75,1785L361,1774.5L362,1773.5L361,1772.5L361,1752.5L360,1751.5L361,1750.5L360,1749.5L360,1748.5L361,1747.5L360,1746.5L354.625,1710L356,1683.5L355,1682.5L356,1681.5L355.875,1657.25L337.5,1659L336.5,1660L335.5,1659L334.5,1660L327.5,1660L326.5,1659L325.5,1660L321.125,1660.13L321,1665.5L319.5,1667L317.25,1666.75L317,1665.5L316,1664.5L317,1663.5L316.75,1661L302.25,1661L301.75,1663.75L299.25,1663.75L297.75,1660L281.25,1661.13L278.5,1665L276.125,1669L277.5,1680L279,1706.75L280.5,1707L282,1708.5L280.5,1710L279.25,1710.25L278.75,1713L278.75,1724L280.5,1731L280.625,1734L279,1742.5L280,1743.5L278,1745.5L279,1746.5L279,1749.5L277.5,1751L276.5,1750L275.25,1749.75L275,1748.5L274,1747.5L275,1746.5L274.75,1745.25L270.5,1744L269.5,1745L268.5,1744L267.5,1745L236,1745.88L234,1746.5L232,1746.63L228,1745.5L222,1744.5L214,1744.5L208,1745.5L197.5,1745L195.5,1747L194.5,1747L192,1749.5L191.5,1760L189,1778.5L190,1779.5L189,1780.5L187,1822.5L188,1823.5L187,1824.5L187.5,1825L225.5,1824L226.5,1823L227.5,1824L238.5,1824L239.5,1825L240.5,1824L242,1824.5L244,1824.75L249,1823.75L276.5,1822L277.5,1823L278.5,1822L281.5,1822L282.5,1823L283.5,1822L327.5,1824L328.5,1823L329.5,1824L340,1823.5M211.875,1740.75L212,1733.5L211.5,1733L207.5,1737L206.5,1737L202,1741.5L202.5,1742L211.875,1740.75M259,1689.5L272.5,1688L274,1686.5L274,1680.5L273,1679.5L274,1678.5L273,1677.5L273,1672.5L272.5,1672L267.5,1677L266.25,1677.25L266,1678.5L255,1689.5L255.5,1690L259,1689.5M276,1706.5L275,1705.5L275,1691.5L274.5,1691L273.5,1692L272.5,1692L271.5,1693L271,1692.5L270.75,1691.13L254.25,1693.13L252.625,1698L252,1703.5L251,1704.5L253.5,1707L258.5,1707L259.5,1708L260.5,1707L274.5,1708L276,1706.5M248.75,1706.75L249,1704.5L248,1703.5L249,1702.5L250,1696.5L248.5,1695L240,1703.5L240,1704.5L238,1706.5L238.5,1707L244.5,1707L245.5,1706L246.5,1707L248.75,1706.75M276,1739.5L276.5,1736L276.375,1730L274.375,1723L274.25,1721L275,1711.13L264,1711.5L260.5,1711L259.5,1712L258.5,1711L256,1710.5L252.25,1710.25L251.75,1711.75L249.25,1711.75L248.75,1710L235.5,1710L234,1711.5L234,1726.75L235.5,1727L237,1728.5L235.5,1730L234,1730.25L234,1741.75L274.5,1741L276,1739.5M230.75,1726.88L230.25,1723L231,1715.5L230.5,1715L225.5,1720L224.5,1720L221,1723.5L221,1724.5L220,1725.5L220.5,1726L230.75,1726.88M231,1741.88L231,1730.13L216.25,1729.13L216,1730.5L217,1731.5L216.5,1732L215.125,1732.25L216,1740.5L216.5,1741L217.5,1740L218.5,1741L231,1741.88M213,1733L213,1731.5L212,1731L212,1732L213,1733M156,1825.5L182.75,1824L183.5,1822L183.75,1820L182.25,1813L182.25,1811L183,1805.5L184,1804.5L183,1803.5L184,1793.5L185,1792.5L184,1791.5L185,1790.5L184,1789.5L185,1788.5L185,1782.5L183.5,1781L182.5,1782L181.5,1781L179,1780.5L173,1778.63L166,1778.13L166,1791.88L173,1792.5L180.5,1794L182,1795.5L181.75,1796.75L178,1796.5L165.5,1794L165,1794.5L166,1795.5L166,1798.5L164.5,1800L163,1798.5L161.75,1794.13L150.5,1793L149,1794.5L148.5,1798L148.625,1803L149,1805.5L150,1806.5L149,1807.5L149,1821.75L146,1821.75L146,1813.5L147,1812.5L146,1811.5L146.625,1808L146.625,1806L145.5,1803L145.625,1799L146,1797.5L145.5,1797L144,1798.5L141,1802.5L138.25,1806.75L140,1806.5L141.5,1806L143,1807.5L143.5,1810L143.75,1812.75L142.5,1813L141,1811.5L140.75,1810.25L139,1809.75L134.5,1809L133,1810.5L134,1821.5L131.5,1824L131,1823.5L129.875,1814.25L128.5,1814L124,1818.5L121.625,1823L121,1825.5L120,1826.5L120.5,1827L124,1827.5L136.5,1827L137.5,1826L138.5,1827L139.5,1826L156,1825.5M184.5,1778L186,1776.5L188,1755.5L187.5,1755L183,1759.5L183,1760.5L178.5,1765L173.5,1768L167,1774.5L167.5,1775L174,1775.63L180,1777.38L184.5,1778M163,1790.88L163,1781.5L161.5,1780L160,1781.5L159.75,1782.75L151.5,1789L151,1790L163,1790.88M111,1827L111,1826L110,1826L110,1827L111,1827M351.5,1596L353,1594.5L354.5,1584L355,1575.5L354.5,1575L349,1580.5L348.625,1582L345.5,1589L344.75,1590.75L343.5,1591L340,1594.5L340.25,1596L351.5,1596"/>
            </g>
        </g>
    </g>
</svg>
