<?xml version="1.0" encoding="UTF-8" standalone="no"?>
<!DOCTYPE svg PUBLIC "-//W3C//DTD SVG 1.1//EN" "http://www.w3.org/Graphics/SVG/1.1/DTD/svg11.dtd">
<svg width="100%" height="100%" viewBox="0 0 1020 287" version="1.1" xmlns="http://www.w3.org/2000/svg" xmlns:xlink="http://www.w3.org/1999/xlink" xml:space="preserve" xmlns:serif="http://www.serif.com/" style="fill-rule:evenodd;clip-rule:evenodd;stroke-linejoin:round;stroke-miterlimit:2;">
    <g transform="matrix(1,0,0,1,-201.707,-167.563)">
        <g transform="matrix(1,0,0,1.11244,0,-51.012)">
            <rect x="201.707" y="196.482" width="1019.52" height="257.194" style="fill:rgb(235,235,235);"/>
        </g>
        <g transform="matrix(1,0,0,1,702,0)">
            <path d="M-192.5,433L-194.5,433L-196,431.5L-195.75,429.25L-190.5,426L-190,425.5L-192,423.5L-192,422.5L-194,420.5L-193.75,417.125L-189.5,417L-188,418.5L-189,419.5L-188,420.5L-188,421.5L-186.5,423L-183.5,420L-182,419.5L-180,418.625L-177.5,418L-176,419.5L-176,420.5L-175,421.5L-176.5,423L-177.5,422L-178.5,423L-181.5,424L-183,425.5L-181,427.5L-181.25,429.875L-186,429.25L-188,429.5L-189.5,430L-192.5,433"/>
        </g>
        <g transform="matrix(1,0,0,1,702,0)">
            <path d="M11.875,392.75L8.5,393L7,391.5L7,384.5L5,382.5L5,379.5L7,377.5L5.5,376L4.5,376L3,374.5L3.25,371.25L4.5,371L6,369.5L3,355.5L4.5,354L21.5,356L23.5,358L24.75,358.25L26,361.5L27,362.5L26,363.5L25,366.5L22,369.5L22.5,370L27.5,370L29.5,372L31.5,372L33.5,374L34.5,374L37,376.5L37,377.5L39,379.5L38.375,383L37.75,384.75L36.5,385L34.5,387L12.125,387.25L11.875,392.75M19.5,365L21,363.5L21,362.5L19.5,361L9.25,360.125L10,368.5L10.5,369L11.5,368L15,367.375L19.5,365M25,382.625L31.5,382L33,380.5L29.5,377L25,375.75L12.5,375L11,376.5L11,379.5L12.5,381L25,382.625"/>
        </g>
        <g transform="matrix(1,0,0,1,702,0)">
            <path d="M-22,348.5L-26,348.375L-27.5,348L-29,346.5L-30.25,343.25L-31.5,343L-33,341.5L-33,340.5L-34,339.5L-33,338.5L-33,336.5L-30.5,334L-29,333.5L-27,332.5L-25,331.75L-20.5,331L-16,335.5L-15.5,337L-14.625,339L-14,342.5L-19.5,348L-22,348.5M-27,339L-27,338L-28,338L-28,339L-27,339M-23,345L-23,344L-24,344L-24,345L-23,345"/>
        </g>
        <g transform="matrix(1,0,0,1,702,0)">
            <path d="M-193.5,403L-196.25,400.75L-197,398.5L-198,397.5L-197,396.5L-197.5,395L-198.375,393L-199.25,390L-200,382.5L-201,381.5L-199.5,380L-197.5,380L-196,381.5L-196.375,383L-196.5,386L-192.5,398L-192,401.5L-193.5,403"/>
        </g>
        <g transform="matrix(1,0,0,1,702,0)">
            <path d="M-20.5,376L-69.5,376L-70.5,377L-71.5,376L-72.5,377L-88.5,377L-89.5,378L-90.5,377L-93.5,377L-94.5,378L-95.5,377L-97,377.5L-101,377.375L-103.5,378L-104.5,377L-105.5,378L-106.5,377L-107.5,378L-114,377.25L-118,377.875L-195,377.25L-196.5,377L-197.5,378L-198.5,377L-220.5,376L-221.5,377L-222.5,376L-223.5,376L-224.5,377L-225.5,376L-226.5,376L-227.5,377L-228.5,376L-229.5,377L-230.5,376L-231.5,377L-235.5,376L-236.5,377L-237.5,376L-329.5,376L-330.5,377L-331.5,376L-332.5,377L-347.5,378L-349,376.5L-348.25,368.25L-349.75,367.75L-350,365.5L-348.5,364L-345.5,364L-344,365.5L-344.75,373L-234.5,372L-233.5,373L-232.5,372L-231.5,373L-151.5,372L-150.5,373L-149.5,372L-137.5,372L-136.5,373L-135.5,372L-134,372.25L-129,372.25L-127.5,372L-126.5,373L-125.5,372L-124.5,373L-26.25,370.75L-26.25,369L-27,363.5L-25.5,362L-23.5,362L-21,364.5L-22,365.5L-21.375,368L-19.625,372L-19,374.5L-20.5,376"/>
        </g>
        <g transform="matrix(1,0,0,1,702,0)">
            <path d="M-40.25,343L-62.5,343L-63.5,344L-64.5,343L-195.5,343L-196.5,342L-197.5,343L-198.5,342L-211.5,342L-212.5,343L-213.5,342L-229.5,342L-230.5,343L-231.5,342L-240.5,343L-241.5,342L-242.5,343L-243.5,342L-245.5,342L-246.5,343L-247.5,342L-270.5,342L-271.5,341L-272.5,342L-325.5,342L-326.5,343L-327.5,342L-330.5,342L-331.5,343L-332.5,342L-333.5,343L-355.75,343L-356,341.5L-354.5,340L-224.5,339L-223.5,338L-222.5,339L-205.5,338L-204.5,339L-203.5,338L-41.5,339L-40,340.5L-40.25,343"/>
        </g>
        <g transform="matrix(1,0,0,1,702,0)">
            <path d="M-359,335.375L-361.5,336L-363,334.5L-362.25,330L-361,325.5L-360,324.5L-361,323.5L-361.5,320L-361.5,314L-361.75,312L-362.625,290L-363.75,282L-364.625,279L-365.5,277L-365.625,275L-364.75,272.25L-361.5,271L-360,272.5L-359.5,278L-356.5,302L-357,314.5L-356,315.5L-357,316.5L-355.5,322L-355.625,326L-356,327.5L-355,328.5L-358,331.5L-357,332.5L-357.25,334.75L-359,335.375"/>
        </g>
        <g transform="matrix(1,0,0,1,702,0)">
            <path d="M-404.5,336L-412,334.25L-415.75,332.75L-416,319.5L-415,318.5L-416,317.5L-416,308L-428.5,309L-430,307.5L-430,305.5L-428.5,304L-416,304L-415.25,294L-413.5,286L-413.5,280L-414.5,275L-415,270.5L-413.5,269L-399.25,269.25L-399,272.5L-401.5,275L-409.875,274.125L-409.625,288L-411.5,298L-411,320.5L-412,321.5L-411,322.5L-412,323.5L-411,324.5L-411,329.5L-409.5,331L-405,330.25L-403,330.5L-401.25,331.25L-401.25,334.75L-403.5,335L-404.5,336"/>
        </g>
        <g transform="matrix(1,0,0,1,702,0)">
            <path d="M-464.5,332L-466,330L-467,328.5L-466,327.5L-465.375,325L-462.375,318L-456.5,307L-456,305.5L-458.5,303L-459.5,303L-461,301.5L-461.5,300L-462.5,298L-463,296.5L-464.5,295L-465.5,295L-467,293.5L-465.75,289.25L-463.25,289.25L-462.5,291L-458.5,297L-458,298.5L-456.5,300L-455.5,300L-452,296.5L-448,290.5L-444.5,287L-443.5,287L-442,288.5L-442.625,291L-459.375,322L-460.5,325L-462.25,330.75L-463.5,331L-464.5,332"/>
        </g>
        <g transform="matrix(1,0,0,1,702,0)">
            <path d="M331,252.5L329.5,253L322,245.5L322,244.5L319.5,242L318.5,243L316.5,244L312.5,247L309.5,249L308,247.5L308.25,245.25L314.5,241L316.75,239.75L316,237.5L312.5,231L312,229.5L311.5,229L310,230.5L308.75,233.75L306.25,233.75L306.5,231L307.625,228L308,226.5L310.5,224L313.5,224L315,225.5L315.625,228L316.5,230L319,234.5L320.5,236L321.5,236L332,225.5L332.25,224.25L333.5,224L335.5,222L338,224.5L336.5,226L335.25,226.25L335,227.5L323,239.5L325,241.5L325,242.5L328.5,246L329.5,246L333,249.5L332.75,251.75L331,252.5"/>
        </g>
        <g transform="matrix(1,0,0,1,702,0)">
            <path d="M275.5,238L273.5,238L271.5,236L259.5,236L258,234.5L258,233.5L259.5,232L270,231.25L277.5,232L279,233.5L278,234.5L279,235.5L278.5,236L277.5,236L275.5,238"/>
        </g>
        <g transform="matrix(1,0,0,1,702,0)">
            <path d="M278.5,228L253.25,228L253,226.5L252,225.5L253.5,224L269.5,223L270.5,224L271.5,223L272.5,224L273.5,223L276.5,224L277.5,223L278.5,224L279.75,224.25L280,226.5L278.5,228"/>
        </g>
        <g transform="matrix(1,0,0,1,702,0)">
            <path d="M221.5,249L205,248.25L197.5,247L195,244.5L195.25,241.25L198,241.625L200,242.375L202.5,243L203,242.5L202,241.5L203,224.25L201.25,223.75L201.5,222L202,220.5L203,219.5L202.5,219L198.25,219.125L197.75,220.75L196.5,221L194,218.5L195,217.5L195.25,216.125L200.5,216L201.5,215L202.5,216L212,216.625L216,217.5L220.875,219.25L221,223.5L216.5,228L213.5,229L213,229L213.5,230L215,230.375L220,232.5L222,233.5L223.5,234L227,237.5L227.375,239L227.375,242L226.5,244L226,245.5L224.5,247L223.5,247L221.5,249M214,224.5L216.5,223L217,222.5L215.5,221L206.25,220.125L206.5,224L207.25,226.75L211,226.375L214,224.5M220,244.125L221.5,244L223,242.5L223,241.5L224,240.5L220.5,237L219,236.5L215,234.625L211,233.5L206,233.125L207.25,245L220,244.125"/>
        </g>
        <g transform="matrix(1,0,0,1,702,0)">
            <path d="M182.5,249L180,248.75L179,237.5L178.5,237L177.5,238L166.5,238L165,239.5L163.875,247.75L160.125,247.75L160.75,238L152.5,238L151,236.5L151,235.5L152.5,234L163.75,234L164.5,232L169.5,221L170,218.5L171,217.5L169,215.5L170,214.5L170,213.5L171.5,212L174.5,211L175.5,210L176,210.5L176.625,213L180.5,223L185,246.5L182.5,249M178.5,234L179,233.5L178,232.5L177.5,228L175,218.5L174,218L174,218.5L173.625,220L169.375,231L169,232.5L168,233.5L168.5,234L174,233.25L176,233.375L178.5,234"/>
        </g>
        <g transform="matrix(1,0,0,1,702,0)">
            <path d="M-358,265.25L-364.5,265L-367,262.5L-367,260.5L-368,259.5L-367,258.5L-366.875,252.25L-365,251.75L-359,251.75L-357.5,252L-354,255.5L-353,262.5L-354.5,264L-358,265.25M-359.25,260.75L-359.25,258.25L-361.5,258L-363,259.5L-362.75,260.75L-359.25,260.75"/>
        </g>
        <g transform="matrix(1,0,0,1,702,0)">
            <path d="M-410.5,251L-412.5,251L-414,249.5L-413.375,246L-412.5,244L-412,242.5L-411,241.5L-412,240.5L-411.375,237L-411,235.5L-409.5,234L-407.5,234L-405,231.5L-404.5,230L-397.625,215L-397.75,207.25L-394.5,207L-392.5,209L-391.25,209.25L-391,212.5L-392,213.5L-391,214.5L-390.375,218L-384,234.5L-385,235.5L-384,236.5L-382,247.5L-383.5,249L-384.5,249L-388,245.5L-388.75,239L-389.25,237L-403.5,238L-405,239.5L-407,243.5L-406,244.5L-407,245.5L-409,249.5L-410.5,251M-398,232.75L-390.25,231.875L-390.375,230L-393.5,222L-394,220.5L-395,220L-395,220.5L-395.5,222L-396.5,224L-398.625,229L-399,230.5L-401,232.5L-400.5,233L-398,232.75"/>
        </g>
        <g transform="matrix(1,0,0,1,702,0)">
            <path d="M228.5,207L177,202.5L158.25,203.875L158.25,201.25L173,198.625L190.5,198L191.5,199L192.5,198L193.5,199L203,199.5L218,201.5L225,201.25L227,201.5L228.5,202L230,203.5L230,205.5L228.5,207"/>
        </g>
        <g transform="matrix(1,0,0,1,702,0)">
            <path d="M359.5,245L358.5,245L356,242.5L354.75,237.25L353.5,237L352.5,236L351.5,237L350.5,237L348,234.5L349,233.5L349.25,232.25L355.875,232.75L355,225.5L356.5,224L359.5,223L361,224.5L360.125,231.875L367.5,231L369,232.5L369,233.5L367.5,235L359.125,236.125L359.125,240.75L360.75,241.25L361,243.5L359.5,245M360,233L360,232L359,232L359,233L360,233"/>
        </g>
        <g transform="matrix(1,0,0,1,702,0)">
            <path d="M404.5,237L398.5,261L396.75,266L396,270.5L394.5,272L392.5,272L391,270.5L391.375,269L394.375,261L396.625,253L397.375,251L400.625,237L400.75,234.25L399.5,234L397.5,236L389.5,237L388,235.5L387,224.25L385.25,223.75L385.25,220.25L386.5,220L387.5,219L390,221.5L391.25,233.75L393,233.5L395,232.5L405.5,224L406.5,223L408,224.5L408,226.5L406,228.5L404.5,237"/>
        </g>
    </g>
</svg>
